<?xml version="1.0" standalone="no"?>
<!DOCTYPE svg PUBLIC "-//W3C//DTD SVG 1.1//EN" "http://www.w3.org/Graphics/SVG/1.1/DTD/svg11.dtd" >
<svg>
<metadata>
Created by FontForge 20120731 at Wed Sep 04 16:25:23 2013

Copyright (c) 2010 by Leftloft. All rights reserved.
</metadata>
<defs>
<font id="LiipEticaBd" horiz-adv-x="604" >
  <font-face 
    font-family="Liip Etica Bd"
    font-weight="700"
    font-stretch="normal"
    units-per-em="1000"
    panose-1="2 0 8 3 4 0 0 2 0 4"
    ascent="730"
    descent="-270"
    x-height="529"
    cap-height="720"
    bbox="-220 -279 2236 965"
    underline-thickness="50"
    underline-position="-50"
    unicode-range="U+0020-FB04"
  />
<missing-glyph horiz-adv-x="167" 
 />
    <glyph glyph-name="ff" unicode="ff" horiz-adv-x="654" 
d="M564 0h-170v406h-142v-406h-170v406h-69v97l69 17v31c0 109 54 169 167 169c34 0 68 -4 103 -13l-10 -109c-17 5 -33 7 -46 7c-29 0 -44 -16 -44 -48v-28h142v34c0 109 54 169 167 169c35 0 69 -4 101 -12l-8 -110c-17 5 -33 7 -46 7c-29 0 -44 -16 -44 -48v-40h87v-123
h-87v-406z" />
    <glyph glyph-name="fi" unicode="fi" horiz-adv-x="618" 
d="M252 529h311v-529h-170v406h-141v-406h-170v406h-69v97l69 17v43c0 113 55 169 164 169c25 0 51 -3 78 -9v-110c-9 2 -19 3 -29 3c-29 0 -43 -16 -43 -47v-40zM383 660c0 53 41 83 98 83c60 0 99 -30 99 -83c0 -51 -39 -80 -99 -80c-56 0 -98 29 -98 80z" />
    <glyph glyph-name="fl" unicode="fl" horiz-adv-x="615" 
d="M564 720v-720h-170v406h-142v-406h-170v406h-69v97l69 17v43c0 113 55 169 164 169c25 0 51 -3 78 -9v-110c-9 2 -19 3 -29 3c-29 0 -43 -16 -43 -47v-40h142v191h170z" />
    <glyph glyph-name="ffi" unicode="ffi" horiz-adv-x="929" 
d="M563 0h-170v406h-141v-406h-170v406h-69v97l69 17v31c0 109 54 169 167 169c34 0 68 -4 103 -13l-10 -109c-17 5 -33 7 -46 7c-29 0 -44 -16 -44 -48v-28h141v34c0 113 55 169 164 169c25 0 51 -3 78 -9v-110c-9 2 -19 3 -29 3c-29 0 -43 -16 -43 -47v-40h311v-529h-170
v406h-141v-406zM694 660c0 53 41 83 98 83c60 0 99 -30 99 -83c0 -51 -39 -80 -99 -80c-56 0 -98 29 -98 80z" />
    <glyph glyph-name="ffl" unicode="ffl" horiz-adv-x="927" 
d="M564 0h-170v406h-142v-406h-170v406h-69v97l69 17v31c0 109 54 169 167 169c34 0 68 -4 103 -13l-10 -109c-17 5 -33 7 -46 7c-29 0 -44 -16 -44 -48v-28h142v34c0 113 55 169 164 169c25 0 51 -3 78 -9v-110c-9 2 -19 3 -29 3c-29 0 -43 -16 -43 -47v-40h142v191h170
v-720h-170v406h-142v-406z" />
    <glyph glyph-name="ft" unicode="ft" horiz-adv-x="671" 
d="M649 529v-123h-86v-254c0 -27 10 -37 34 -37c12 0 26 2 43 7l15 -114c-42 -14 -84 -21 -127 -21c-91 0 -135 48 -135 133v286h-141v-406h-170v406h-69v97l69 17v43c0 113 55 169 164 169c25 0 51 -3 78 -9v-110c-9 2 -19 3 -29 3c-29 0 -43 -16 -43 -47v-40h144l16 157
h150v-157h87z" />
    <glyph glyph-name="tt" unicode="tt" horiz-adv-x="670" 
d="M648 529v-123h-86v-254c0 -27 10 -37 35 -37c13 0 27 2 43 7l15 -114c-42 -14 -84 -21 -127 -21c-91 0 -135 48 -135 133v286h-139v-254c0 -27 10 -37 35 -37c13 0 27 2 43 7l15 -114c-42 -14 -84 -21 -127 -21c-91 0 -135 48 -135 133v286h-72v96l75 26l16 158h150v-157
h142l16 157h150v-157h86z" />
    <glyph glyph-name="fft" unicode="fft" horiz-adv-x="980" 
d="M957 529v-123h-85v-254c0 -27 10 -37 34 -37c12 0 26 2 43 7l15 -114c-42 -14 -84 -21 -127 -21c-91 0 -135 48 -135 133v286h-141v-406h-170v406h-139v-406h-170v406h-69v97l69 17v31c0 109 54 169 167 169c34 0 68 -4 103 -13l-10 -109c-17 5 -33 7 -46 7
c-29 0 -44 -16 -44 -48v-28h139v34c0 113 55 169 164 169c25 0 51 -3 78 -9v-110c-9 2 -19 3 -29 3c-29 0 -43 -16 -43 -47v-40h144l16 157h150v-157h86z" />
    <glyph glyph-name=".notdef" horiz-adv-x="167" 
 />
    <glyph glyph-name=".notdef" horiz-adv-x="167" 
 />
    <glyph glyph-name=".null" horiz-adv-x="0" 
 />
    <glyph glyph-name="CR" horiz-adv-x="0" 
 />
    <glyph glyph-name="space" unicode=" " horiz-adv-x="205" 
 />
    <glyph glyph-name="quotesingle" unicode="'" horiz-adv-x="207" 
d="M51 720h105v-292h-105v292z" />
    <glyph glyph-name="quotedbl" unicode="&#x22;" horiz-adv-x="373" 
d="M51 720h105v-292h-105v292zM217 720h105v-292h-105v292z" />
    <glyph glyph-name="numbersign" unicode="#" horiz-adv-x="706" 
d="M426 374h-119l-34 -106h116zM670 478v-104h-137l-36 -106h112v-104h-146l-59 -159l-100 22l50 137h-116l-59 -159l-99 22l49 137h-91v104h127l36 106h-102v104h137l61 172l101 -22l-53 -150h116l62 169l100 -19l-53 -150h100z" />
    <glyph glyph-name="ampersand" unicode="&#x26;" horiz-adv-x="757" 
d="M299 570c0 -26 17 -56 50 -89c43 28 63 53 63 85s-21 53 -56 53c-37 0 -57 -22 -57 -49zM316 123c41 0 80 18 116 54l-135 157c-53 -28 -79 -68 -79 -119c0 -53 37 -92 98 -92zM719 89l-118 -99l-82 86c-71 -64 -134 -89 -230 -89c-68 0 -123 19 -166 57
c-42 39 -63 90 -63 154c0 100 52 169 149 221c-43 45 -62 84 -62 141c0 47 18 87 55 120c37 34 87 51 150 51c57 0 104 -14 141 -42s56 -67 56 -118c0 -67 -37 -122 -112 -167l63 -75l96 96l97 -94l-103 -103z" />
    <glyph glyph-name="asterisk" unicode="*" horiz-adv-x="478" 
d="M388 417l-60 -46l-92 90l-93 -90l-62 46l67 99l-103 44l30 71l107 -23l18 113h72l18 -113l117 24l26 -72l-109 -44z" />
    <glyph glyph-name="comma" unicode="," horiz-adv-x="257" 
d="M29 73c0 47 37 83 90 83c69 0 101 -44 101 -116c0 -96 -59 -175 -167 -210l-26 60c67 29 92 64 95 108c-8 -2 -16 -3 -24 -3c-43 0 -69 33 -69 78z" />
    <glyph glyph-name="hyphen" unicode="-" horiz-adv-x="326" 
d="M297 211h-269v133h269v-133z" />
    <glyph glyph-name="period" unicode="." horiz-adv-x="258" 
d="M37 69c0 55 32 88 92 88c56 0 92 -33 92 -84s-36 -86 -92 -86c-59 0 -92 34 -92 82z" />
    <glyph glyph-name="colon" unicode=":" horiz-adv-x="258" 
d="M37 69c0 55 32 88 92 88c56 0 92 -33 92 -84s-36 -86 -92 -86c-59 0 -92 34 -92 82zM37 430c0 55 32 88 92 88c56 0 92 -33 92 -84s-36 -86 -92 -86c-59 0 -92 34 -92 82z" />
    <glyph glyph-name="semicolon" unicode=";" horiz-adv-x="257" 
d="M29 73c0 47 37 83 90 83c69 0 101 -44 101 -116c0 -96 -59 -175 -167 -210l-26 60c67 29 92 64 95 108c-8 -2 -16 -3 -24 -3c-43 0 -69 33 -69 78zM31 430c0 55 32 88 92 88c56 0 92 -33 92 -84s-36 -86 -92 -86c-59 0 -92 34 -92 82z" />
    <glyph glyph-name="question" unicode="?" horiz-adv-x="567" 
d="M363 223h-153v37c0 128 146 172 146 263c0 45 -29 65 -74 65c-49 0 -87 -31 -87 -91h-157c0 170 115 235 254 235c119 0 234 -58 234 -194c0 -149 -163 -200 -163 -297v-18zM194 69c0 55 32 88 92 88c56 0 92 -33 92 -84s-36 -86 -92 -86c-59 0 -92 34 -92 82z" />
    <glyph glyph-name="exclam" unicode="!" horiz-adv-x="328" 
d="M237 223h-141l-15 262v235h171v-235zM72 69c0 55 32 88 92 88c56 0 92 -33 92 -84s-36 -86 -92 -86c-59 0 -92 34 -92 82z" />
    <glyph glyph-name="exclamdown" unicode="&#xa1;" horiz-adv-x="328" 
d="M81 -192v235l15 262h141l15 -262v-235h-171zM72 459c0 48 33 82 92 82c56 0 92 -35 92 -86s-36 -84 -92 -84c-59 0 -92 33 -92 88z" />
    <glyph glyph-name="questiondown" unicode="&#xbf;" horiz-adv-x="567" 
d="M207 305h153v-37c0 -128 -146 -172 -146 -263c0 -45 29 -65 74 -65c49 0 87 31 87 91h157c0 -170 -115 -235 -254 -235c-119 0 -234 58 -234 194c0 149 163 200 163 297v18zM376 459c0 -55 -33 -88 -92 -88c-56 0 -92 33 -92 84s36 86 92 86c59 0 92 -34 92 -82z" />
    <glyph glyph-name="at" unicode="@" horiz-adv-x="984" 
d="M546 190l42 159c-15 8 -33 12 -55 12c-99 0 -159 -95 -159 -187c0 -55 22 -86 69 -86c45 0 87 43 103 102zM694 398l-54 -225c-5 -20 -7 -34 -7 -42c0 -29 14 -43 43 -43s56 12 79 37c47 51 70 118 70 181c0 166 -129 261 -293 258c-209 3 -365 -164 -360 -372
c0 -96 30 -172 89 -227c59 -56 138 -84 236 -84c113 0 209 30 290 90l42 -67c-44 -35 -97 -61 -159 -79s-123 -27 -183 -27c-239 0 -415 144 -415 395c0 266 204 458 463 457c223 4 384 -140 382 -340c0 -91 -33 -173 -82 -224c-49 -49 -111 -79 -174 -79
c-67 0 -104 29 -113 77c-36 -49 -77 -75 -138 -75c-84 0 -134 57 -134 160c-3 146 106 273 261 271c64 0 106 -13 157 -42z" />
    <glyph glyph-name="A" unicode="A" horiz-adv-x="704" 
d="M7 0l256 720h177l257 -720h-190l-40 132h-230l-40 -132h-190zM351 518l-68 -237h137z" />
    <glyph glyph-name="B" unicode="B" horiz-adv-x="663" 
d="M341 575h-106v-138h93c59 0 90 29 90 72c0 40 -26 66 -77 66zM358 304h-123v-155h123c56 0 89 29 89 78c0 48 -33 77 -89 77zM308 0h-250v720h281c176 0 260 -53 260 -176c0 -76 -43 -138 -120 -161v-2c106 -19 148 -97 148 -162c0 -176 -143 -219 -319 -219z" />
    <glyph glyph-name="C" unicode="C" horiz-adv-x="683" 
d="M581 224l79 -120c-88 -78 -186 -117 -295 -117c-216 0 -327 152 -327 371c0 215 117 374 333 374c158 0 280 -87 290 -272h-178c-7 57 -28 112 -109 112c-92 0 -147 -73 -147 -213c0 -141 58 -212 157 -212c75 0 134 28 197 77z" />
    <glyph glyph-name="D" unicode="D" horiz-adv-x="717" 
d="M319 564h-84v-409h84c120 0 175 66 175 205c0 136 -58 204 -175 204zM58 0v720h261c240 0 360 -141 360 -348c0 -257 -123 -372 -387 -372h-234z" />
    <glyph glyph-name="E" unicode="E" horiz-adv-x="598" 
d="M561 0h-503v720h499v-156h-322v-126h292v-146h-292v-137h326v-155z" />
    <glyph glyph-name="F" unicode="F" horiz-adv-x="570" 
d="M235 0h-177v720h483v-156h-306v-148h269v-144h-269v-272z" />
    <glyph glyph-name="G" unicode="G" horiz-adv-x="715" 
d="M498 264h-103v133h274v-298c-71 -75 -168 -112 -293 -112c-256 0 -338 174 -338 370c0 218 105 375 337 375c203 0 281 -108 294 -251h-183c-7 61 -43 92 -108 92c-99 0 -154 -77 -154 -213c0 -139 53 -217 168 -217c44 0 79 10 106 29v92z" />
    <glyph glyph-name="H" unicode="H" horiz-adv-x="717" 
d="M235 0h-177v720h177v-280h247v280h177v-720h-177v280h-247v-280z" />
    <glyph glyph-name="I" unicode="I" horiz-adv-x="293" 
d="M235 0h-177v720h177v-720z" />
    <glyph glyph-name="J" unicode="J" horiz-adv-x="423" 
d="M193 720h177v-519c0 -145 -67 -214 -200 -214c-64 0 -114 7 -151 21l12 141c33 -7 62 -11 87 -11c57 0 75 21 75 88v494z" />
    <glyph glyph-name="K" unicode="K" horiz-adv-x="687" 
d="M235 0h-177v720h177v-280h77l152 280h196l-197 -350l218 -370h-204l-168 295h-74v-295z" />
    <glyph glyph-name="L" unicode="L" horiz-adv-x="560" 
d="M58 0v720h177v-565h299v-155h-476z" />
    <glyph glyph-name="M" unicode="M" horiz-adv-x="876" 
d="M772 720l69 -720h-166l-38 416l-127 -416h-140l-128 417l-39 -417h-168l69 720h184l151 -475l157 475h176z" />
    <glyph glyph-name="N" unicode="N" horiz-adv-x="724" 
d="M232 0h-174v720h154l279 -423v423h175v-720h-153l-281 414v-414z" />
    <glyph glyph-name="O" unicode="O" horiz-adv-x="787" 
d="M224 361c0 -132 61 -214 169 -214c109 0 170 82 170 214c0 125 -62 210 -170 210s-169 -85 -169 -210zM38 361c0 113 32 203 96 270s150 101 259 101s196 -33 260 -100s96 -157 96 -271c0 -117 -32 -208 -96 -275c-63 -66 -150 -99 -260 -99c-109 0 -196 33 -260 100
c-63 67 -95 158 -95 274z" />
    <glyph glyph-name="P" unicode="P" horiz-adv-x="636" 
d="M326 568h-91v-196h87c71 0 107 37 107 98s-34 98 -103 98zM235 0h-177v720h283c165 0 263 -90 263 -242c0 -157 -93 -250 -272 -250h-97v-228z" />
    <glyph glyph-name="Q" unicode="Q" horiz-adv-x="787" 
d="M762 40l-60 -142l-267 91c-19 -1 -33 -2 -42 -2c-109 0 -196 33 -260 99c-63 67 -95 158 -95 275c0 113 32 203 96 270s150 101 259 101s196 -33 260 -100s96 -157 96 -271c0 -116 -40 -207 -120 -273v-5zM224 361c0 -132 61 -214 169 -214c109 0 170 82 170 214
c0 125 -62 210 -170 210s-169 -85 -169 -210z" />
    <glyph glyph-name="R" unicode="R" horiz-adv-x="670" 
d="M58 0v720h281c177 0 275 -90 275 -234c0 -91 -37 -157 -110 -199l149 -287h-192l-121 246c-17 -3 -36 -4 -56 -4h-49v-242h-177zM330 568h-95v-186h90c72 0 109 33 109 96c0 61 -33 90 -104 90z" />
    <glyph glyph-name="S" unicode="S" horiz-adv-x="618" 
d="M18 113l86 108c68 -53 145 -88 206 -88c55 0 87 26 87 69c0 21 -9 38 -28 51c-18 13 -55 27 -112 43c-149 43 -209 102 -209 215c0 152 118 221 264 221c96 0 187 -36 259 -100l-81 -108c-59 44 -117 66 -174 66c-53 0 -86 -20 -86 -60c0 -21 10 -38 30 -49
s62 -28 127 -49c1 -1 2 -1 3 -1c69 -23 118 -49 147 -80s44 -74 44 -130c0 -73 -24 -131 -73 -172c-48 -41 -113 -62 -196 -62c-117 0 -215 42 -294 126z" />
    <glyph glyph-name="T" unicode="T" horiz-adv-x="627" 
d="M402 0h-177v564h-208v156h593v-156h-208v-564z" />
    <glyph glyph-name="U" unicode="U" horiz-adv-x="702" 
d="M53 276v444h177v-440c0 -91 45 -136 120 -136c83 0 122 43 122 136v440h177v-444c0 -189 -107 -288 -299 -288c-198 0 -297 96 -297 288z" />
    <glyph glyph-name="V" unicode="V" horiz-adv-x="662" 
d="M431 0h-205l-222 720h185l142 -512l146 512h181z" />
    <glyph glyph-name="W" unicode="W" horiz-adv-x="934" 
d="M371 0h-189l-177 720h181l105 -489l97 489h158l100 -490l101 490h182l-178 -720h-183l-101 444z" />
    <glyph glyph-name="X" unicode="X" horiz-adv-x="674" 
d="M214 0h-208l222 366l-212 354h195l126 -221l131 221h201l-230 -367l222 -353h-203l-125 209z" />
    <glyph glyph-name="Y" unicode="Y" horiz-adv-x="673" 
d="M420 0h-177v276l-241 444h193l138 -270l140 270h198l-251 -444v-276z" />
    <glyph glyph-name="Z" unicode="Z" horiz-adv-x="636" 
d="M606 0h-579v111l312 453h-297v156h565v-69l-341 -496h340v-155z" />
    <glyph glyph-name="a" unicode="a" horiz-adv-x="553" 
d="M336 187v24c-17 3 -34 5 -49 5c-61 0 -92 -21 -92 -63c0 -32 21 -50 62 -50c45 0 79 36 79 84zM506 340v-340h-135l-15 62c-37 -50 -91 -75 -161 -75c-101 0 -167 55 -167 158c0 99 78 167 239 167c27 0 50 -1 69 -4v29c0 49 -25 73 -75 73c-55 0 -95 -15 -154 -46
l-53 101c67 48 148 76 231 76c147 0 221 -62 221 -201z" />
    <glyph glyph-name="b" unicode="b" horiz-adv-x="619" 
d="M221 351v-180c24 -31 55 -46 92 -46c63 0 95 46 95 137c0 99 -31 142 -92 142c-35 0 -67 -18 -95 -53zM198 61l-15 -61h-132v720h170v-241c39 41 89 62 150 62c119 0 217 -83 217 -273c0 -187 -79 -280 -238 -280c-65 0 -117 32 -152 73z" />
    <glyph glyph-name="c" unicode="c" horiz-adv-x="553" 
d="M476 167l45 -103c-65 -51 -141 -77 -228 -77c-153 0 -262 97 -262 275c0 83 24 150 73 201c49 52 115 78 196 78c144 0 230 -77 231 -222h-141c-4 57 -31 85 -82 85c-65 0 -98 -45 -98 -136c0 -92 41 -147 114 -147c44 0 95 15 152 46z" />
    <glyph glyph-name="d" unicode="d" horiz-adv-x="615" 
d="M567 0h-149l-10 64c-32 -45 -86 -77 -159 -77c-144 0 -218 99 -218 276c0 186 103 278 225 278c55 0 102 -19 142 -58v237h169v-720zM397 171v189c-21 21 -53 41 -92 41c-63 0 -95 -45 -95 -136c0 -93 32 -139 97 -139c35 0 65 15 90 45z" />
    <glyph glyph-name="e" unicode="e" horiz-adv-x="568" 
d="M476 160l44 -106c-68 -45 -142 -67 -223 -67c-168 0 -266 101 -266 273c0 85 24 153 72 204c49 51 114 77 196 77c156 0 241 -83 241 -250c0 -38 -1 -63 -3 -75h-326c8 -56 40 -95 109 -95c48 0 89 11 156 39zM211 319h168c0 64 -26 96 -78 96c-64 0 -90 -57 -90 -96z
" />
    <glyph glyph-name="f" unicode="f" horiz-adv-x="342" 
d="M252 0h-170v406h-69v97l69 17v43c0 109 54 169 167 169c35 0 69 -4 101 -12l-8 -110c-17 5 -33 7 -46 7c-29 0 -44 -16 -44 -48v-40h86v-123h-86v-406z" />
    <glyph glyph-name="g" unicode="g" horiz-adv-x="619" 
d="M428 529h139v-490c0 -186 -83 -249 -264 -249c-71 0 -137 11 -197 34l25 119c3 0 27 -6 30 -6c4 -1 26 -6 30 -6c18 -4 42 -9 63 -9c11 0 23 -1 35 -1c81 0 115 29 115 114v31c-37 -47 -92 -71 -155 -71c-136 0 -218 91 -218 260c0 176 83 286 228 286
c65 0 120 -31 157 -71zM397 173v186c-19 21 -58 42 -95 42c-59 0 -92 -45 -92 -136c0 -89 32 -133 96 -133c35 0 65 14 91 41z" />
    <glyph glyph-name="h" unicode="h" horiz-adv-x="591" 
d="M51 0v720h170v-246c40 40 96 67 156 67c104 0 167 -66 167 -181v-360h-170v316c0 57 -16 84 -67 84c-32 0 -66 -20 -86 -41v-359h-170z" />
    <glyph glyph-name="i" unicode="i" horiz-adv-x="281" 
d="M46 660c0 53 41 83 98 83c60 0 99 -30 99 -83c0 -51 -39 -80 -99 -80c-56 0 -98 29 -98 80zM56 529h170v-529h-170v529z" />
    <glyph glyph-name="j" unicode="j" horiz-adv-x="279" 
d="M42 660c0 53 41 83 98 83c60 0 99 -30 99 -83c0 -51 -39 -80 -99 -80c-56 0 -98 29 -98 80zM55 529h169v-565c0 -111 -51 -168 -164 -168c-39 0 -72 4 -99 13l9 117c16 -3 30 -5 42 -5c31 0 43 12 43 52v556z" />
    <glyph glyph-name="k" unicode="k" horiz-adv-x="578" 
d="M51 720h170v-361h43l105 170h184l-156 -235l180 -294h-197l-128 222h-31v-222h-170v720z" />
    <glyph glyph-name="l" unicode="l" horiz-adv-x="272" 
d="M221 720v-720h-170v720h170z" />
    <glyph glyph-name="m" unicode="m" horiz-adv-x="857" 
d="M51 0v529h140l15 -62c44 49 96 74 157 74s104 -24 129 -71c47 47 103 71 167 71c99 0 151 -60 151 -173v-368h-170v333c0 45 -13 66 -50 66c-26 0 -51 -12 -74 -35v-364h-170v327c0 51 -9 72 -46 72c-31 0 -62 -18 -79 -37v-362h-170z" />
    <glyph glyph-name="n" unicode="n" horiz-adv-x="591" 
d="M51 0v529h140l15 -63c39 43 98 75 169 75c104 0 169 -64 169 -179v-362h-170v307c0 65 -22 93 -66 93c-36 0 -70 -21 -87 -41v-359h-170z" />
    <glyph glyph-name="o" unicode="o" horiz-adv-x="617" 
d="M210 265c0 -93 33 -139 99 -139c65 0 98 46 98 139c0 96 -37 139 -98 139s-99 -46 -99 -139zM31 261c0 188 125 280 280 280s275 -92 275 -276c0 -185 -124 -278 -285 -278c-168 0 -270 97 -270 274z" />
    <glyph glyph-name="p" unicode="p" horiz-adv-x="620" 
d="M221 353v-185c21 -20 57 -42 96 -42c60 0 90 45 90 136c0 95 -28 141 -88 141c-36 0 -77 -26 -98 -50zM221 44v-244h-170v729h139l19 -61c45 49 101 73 167 73c125 0 212 -92 212 -273c0 -179 -78 -280 -222 -280c-56 0 -104 19 -145 56z" />
    <glyph glyph-name="q" unicode="q" horiz-adv-x="615" 
d="M567 -200h-171v244c-37 -37 -84 -56 -140 -56c-151 0 -225 98 -225 275c0 186 102 278 232 278c59 0 110 -22 153 -67l24 55h127v-729zM397 169v191c-20 21 -53 41 -92 41c-63 0 -95 -45 -95 -136c0 -93 32 -139 97 -139c35 0 65 14 90 43z" />
    <glyph glyph-name="r" unicode="r" horiz-adv-x="379" 
d="M51 529h133l18 -71c27 48 69 83 114 83c19 0 37 -4 56 -12l-12 -152c-17 5 -35 8 -54 8c-31 0 -68 -23 -85 -47v-338h-170v529z" />
    <glyph glyph-name="s" unicode="s" horiz-adv-x="523" 
d="M20 84l69 94c25 -17 53 -32 84 -45c32 -12 58 -18 79 -18c35 0 53 11 53 34c0 27 -17 37 -90 54c-115 27 -167 72 -167 165c0 107 87 173 220 173c87 0 161 -28 222 -85l-70 -91c-58 34 -105 51 -141 51c-35 0 -52 -11 -52 -32c0 -11 6 -20 19 -27c13 -6 40 -15 81 -27
c57 -17 98 -38 123 -61s38 -57 38 -102c0 -115 -84 -180 -220 -180c-99 0 -189 38 -248 97z" />
    <glyph glyph-name="t" unicode="t" horiz-adv-x="362" 
d="M340 529v-123h-86v-254c0 -27 10 -37 35 -37c13 0 27 2 43 7l15 -114c-42 -14 -84 -21 -127 -21c-91 0 -135 48 -135 133v286h-72v96l75 26l16 158h150v-157h86z" />
    <glyph glyph-name="u" unicode="u" horiz-adv-x="586" 
d="M535 529v-529h-136l-18 63c-44 -48 -93 -76 -162 -76c-115 0 -172 60 -172 180v362h171v-320c0 -56 17 -83 62 -83c35 0 63 13 86 39v364h169z" />
    <glyph glyph-name="v" unicode="v" horiz-adv-x="549" 
d="M177 0l-172 529h173l101 -371l101 371h164l-168 -529h-199z" />
    <glyph glyph-name="w" unicode="w" horiz-adv-x="800" 
d="M559 186l64 343h169l-143 -529h-185l-65 303l-63 -303h-185l-143 529h168l75 -343l68 343h160z" />
    <glyph glyph-name="x" unicode="x" horiz-adv-x="561" 
d="M183 0h-181l176 264l-171 265h183l90 -159l94 159h180l-171 -265l175 -264h-181l-96 157z" />
    <glyph glyph-name="y" unicode="y" horiz-adv-x="561" 
d="M284 165l100 364h169l-182 -501l-28 -73c-6 -17 -14 -35 -25 -56c-10 -21 -20 -37 -29 -46c-28 -33 -74 -61 -138 -57c-36 0 -73 4 -111 13l12 118c34 -4 59 -6 74 -6c37 0 57 11 70 60l4 14l-192 534h177z" />
    <glyph glyph-name="z" unicode="z" horiz-adv-x="477" 
d="M450 0h-419v103l202 302h-197v124h414v-70l-218 -335h218v-124z" />
    <glyph glyph-name="bracketleft" unicode="[" horiz-adv-x="365" 
d="M323 -2v-123h-256v845h256v-124h-98v-598h98z" />
    <glyph glyph-name="bracketright" unicode="]" horiz-adv-x="365" 
d="M298 720v-845h-256v123h98v598h-98v124h256z" />
    <glyph glyph-name="parenleft" unicode="(" horiz-adv-x="382" 
d="M221 741l118 -58c-45 -68 -78 -129 -97 -184s-29 -119 -29 -194c0 -67 10 -128 30 -185c21 -56 56 -119 105 -188l-100 -67c-59 51 -106 115 -143 193s-55 160 -55 245c0 164 57 310 171 438z" />
    <glyph glyph-name="parenright" unicode=")" horiz-adv-x="382" 
d="M43 683l118 58c114 -128 171 -274 171 -438c0 -85 -18 -167 -55 -245s-84 -142 -143 -193l-100 67c49 69 84 132 104 188c21 56 31 118 31 185c0 75 -10 139 -29 194s-52 116 -97 184z" />
    <glyph glyph-name="braceleft" unicode="{" horiz-adv-x="430" 
d="M392 720v-116h-34c-44 0 -57 -25 -57 -101v-110c0 -56 -23 -91 -80 -106c29 -8 48 -19 60 -34c18 -27 19 -58 20 -111v-85c0 -52 8 -66 56 -66h35v-116h-52c-156 0 -198 36 -198 161v117c0 56 -15 75 -60 75h-45v115h39c27 0 45 7 53 22c9 15 13 43 13 86v71
c0 75 15 126 46 155s84 43 161 43h43z" />
    <glyph glyph-name="braceright" unicode="}" horiz-adv-x="430" 
d="M72 604h-34v116h43c77 0 131 -14 161 -43c31 -29 46 -80 46 -155v-71c0 -43 4 -71 12 -86c9 -15 27 -22 54 -22h39v-115h-45c-45 0 -60 -20 -60 -75v-117c0 -125 -42 -161 -198 -161h-52v116h35c48 0 56 14 56 66v85c0 39 2 58 7 82c7 33 30 53 73 63
c-56 15 -80 49 -80 106v110c0 75 -13 101 -57 101z" />
    <glyph glyph-name="backslash" unicode="\" horiz-adv-x="429" 
d="M42 739h136l237 -831h-134z" />
    <glyph glyph-name="slash" unicode="/" horiz-adv-x="523" 
d="M521 671l-357 -694l-157 80l356 692z" />
    <glyph glyph-name="brokenbar" unicode="&#xa6;" horiz-adv-x="504" 
d="M180 219h144v-419h-144v419zM180 720h144v-420h-144v420z" />
    <glyph glyph-name="bar" unicode="|" horiz-adv-x="504" 
d="M180 720h144v-920h-144v920z" />
    <glyph glyph-name="asciicircum" unicode="^" horiz-adv-x="721" 
d="M312 693h94l223 -237l-77 -64l-191 191l-193 -192l-78 72z" />
    <glyph glyph-name="underscore" unicode="_" horiz-adv-x="484" 
d="M486 -211h-488v115h488v-115z" />
    <glyph glyph-name="asciitilde" unicode="~" horiz-adv-x="802" 
d="M677 385l65 -110c-61 -48 -144 -83 -216 -83c-74 0 -196 61 -258 61c-19 0 -37 -3 -55 -8c-35 -9 -50 -20 -97 -48l-63 107c72 55 142 82 210 82c71 0 193 -60 256 -60c45 0 98 20 158 59z" />
    <glyph glyph-name="uni00A0" unicode="&#xa0;" horiz-adv-x="205" 
 />
    <glyph glyph-name="zero" unicode="0" horiz-adv-x="623" 
d="M311 129c69 0 103 75 103 225c0 147 -30 224 -102 224s-103 -78 -103 -227s31 -222 102 -222zM43 351c0 241 97 369 272 369c172 0 265 -125 265 -360c0 -249 -95 -373 -272 -373c-175 0 -265 121 -265 364z" />
    <glyph glyph-name="one" unicode="1" horiz-adv-x="534" 
d="M66 127h141v382c-43 -21 -93 -33 -149 -37l-21 111c75 19 156 68 205 127h130v-583h125v-127h-431v127z" />
    <glyph glyph-name="two" unicode="2" horiz-adv-x="550" 
d="M512 0h-475v100l232 273c49 59 66 87 66 127c0 48 -33 77 -82 77c-24 0 -53 -8 -86 -23s-62 -33 -87 -54l-63 105c69 67 169 115 266 115c112 0 217 -64 217 -198c0 -39 -7 -73 -21 -103s-37 -64 -70 -103l-151 -181h254v-135z" />
    <glyph glyph-name="three" unicode="3" horiz-adv-x="560" 
d="M17 84l65 104c55 -41 111 -62 167 -62c64 0 108 27 108 83c0 57 -38 86 -113 87c-29 0 -52 -2 -68 -5l-3 130c43 1 79 11 109 28c30 18 45 42 45 71c0 43 -27 64 -80 64c-44 0 -91 -14 -141 -42l-61 102c73 51 142 76 233 76c124 0 207 -66 207 -174
c0 -75 -51 -141 -132 -170v-3c103 -11 160 -71 160 -171c0 -145 -112 -215 -251 -215c-91 0 -181 33 -245 97z" />
    <glyph glyph-name="four" unicode="4" horiz-adv-x="610" 
d="M348 562l-172 -288h172v288zM511 0h-163v142h-318v127l271 441h210v-436h72v-132h-72v-142z" />
    <glyph glyph-name="five" unicode="5" horiz-adv-x="552" 
d="M184 254h-134l33 456h388l-10 -150h-251l-12 -136c31 25 70 38 116 38c123 0 196 -78 196 -223c0 -162 -116 -252 -257 -252c-83 0 -173 30 -233 83l53 108c65 -35 111 -50 163 -50c68 0 115 34 115 114c0 66 -27 99 -82 99c-31 0 -57 -11 -80 -32z" />
    <glyph glyph-name="six" unicode="6" horiz-adv-x="581" 
d="M43 319c0 125 24 223 73 294s118 107 208 107c63 0 125 -17 188 -51l-46 -111c-40 21 -81 32 -124 32c-97 0 -139 -95 -144 -204c48 45 99 67 154 67c115 0 192 -79 192 -212c0 -183 -110 -254 -243 -254c-172 0 -258 111 -258 332zM299 123c53 0 90 39 90 103
c0 67 -28 101 -85 101c-37 0 -80 -24 -103 -45c1 -106 34 -159 98 -159z" />
    <glyph glyph-name="seven" unicode="7" horiz-adv-x="499" 
d="M487 710v-110l-240 -600h-172v16l226 545h-280v149h466z" />
    <glyph glyph-name="eight" unicode="8" horiz-adv-x="576" 
d="M182 197c0 -52 36 -82 99 -82c56 0 91 33 91 82c0 60 -57 91 -114 115c-45 -25 -76 -67 -76 -115zM222 534c0 -36 29 -66 88 -90c33 23 58 55 58 91c0 44 -28 67 -76 67c-45 0 -70 -28 -70 -68zM32 182c0 101 69 159 124 191c-52 24 -97 84 -97 159c0 56 21 101 63 136
c43 35 100 52 173 52c135 0 221 -68 221 -173c0 -72 -43 -129 -99 -162c83 -44 124 -106 124 -185c0 -135 -103 -213 -264 -213c-157 0 -245 70 -245 195z" />
    <glyph glyph-name="nine" unicode="9" horiz-adv-x="577" 
d="M533 403c0 -267 -100 -416 -272 -416c-71 0 -139 19 -205 56l46 108c40 -20 96 -36 137 -36c96 0 131 98 137 197c-44 -41 -94 -61 -149 -61c-120 0 -196 88 -196 220c0 168 112 249 243 249c171 0 259 -114 259 -317zM276 585c-53 0 -91 -39 -91 -103
c0 -68 33 -100 88 -100c40 0 80 19 101 46c0 93 -33 157 -98 157z" />
    <glyph glyph-name="dollar" unicode="$" horiz-adv-x="551" 
d="M343 -88h-128v91c-69 11 -149 56 -201 108l75 94c59 -45 129 -74 185 -74c53 0 79 19 79 56s-20 61 -132 94c-114 36 -187 88 -187 202c0 107 73 179 182 196v82h127v-84c65 -13 122 -41 171 -86l-74 -97c-45 36 -105 61 -156 61c-55 0 -85 -15 -85 -56
c0 -40 32 -66 139 -95c124 -35 186 -101 186 -200c0 -109 -68 -184 -181 -201v-91z" />
    <glyph glyph-name="Euro" unicode="&#x20ac;" horiz-adv-x="627" 
d="M67 381h-60l6 82h63c22 140 134 257 296 257c85 0 170 -33 234 -102l-67 -90c-44 37 -106 63 -159 63c-75 0 -123 -43 -144 -128h264l-6 -82h-267c-1 -7 -1 -18 -1 -31s0 -22 1 -27h262l-7 -81h-246c19 -77 72 -116 145 -116c60 0 116 21 169 63l60 -98
c-85 -73 -159 -104 -254 -104c-75 0 -138 24 -190 71c-52 48 -83 109 -92 184h-79l7 81h66c-1 5 -1 18 -1 37v21z" />
    <glyph glyph-name="cent" unicode="&#xa2;" horiz-adv-x="574" 
d="M492 258l49 -105c-46 -35 -98 -58 -156 -69v-102h-130v99c-125 16 -208 112 -208 269c0 74 19 136 56 185c38 50 89 79 153 87v97h129v-98c106 -22 160 -94 162 -217h-141c-4 57 -31 85 -82 85c-65 0 -98 -44 -98 -133c0 -91 42 -143 115 -143c45 0 95 15 151 45z" />
    <glyph glyph-name="sterling" unicode="&#xa3;" horiz-adv-x="546" 
d="M316 233c0 -35 -14 -68 -43 -101h239v-132h-473v118l67 10c29 27 49 68 49 105c0 23 -6 49 -18 78h-97v102h61c-22 41 -33 78 -33 112c0 56 21 102 63 139c43 37 97 56 164 56c88 0 165 -33 222 -92l-65 -95c-51 35 -89 55 -138 55s-73 -25 -73 -76c0 -25 10 -58 30 -99
h139v-102h-111c11 -28 17 -54 17 -78z" />
    <glyph glyph-name="yen" unicode="&#xa5;" horiz-adv-x="610" 
d="M223 294h-162v88h124l-175 328h175l120 -260l126 260h169l-182 -328h130v-88h-168v-65h168v-88h-168v-141h-157v141h-163v88h163v65z" />
    <glyph glyph-name="florin" unicode="&#x192;" horiz-adv-x="479" 
d="M-29 -200v119h39c32 0 52 21 61 68l69 321h-81v110h104l20 102c12 61 24 97 51 134s70 56 134 56h91v-123h-60c-37 0 -50 -27 -61 -84l-17 -85h88v-110h-110l-63 -297c-5 -25 -10 -46 -15 -63c-9 -33 -23 -72 -42 -93c-27 -36 -68 -55 -135 -55h-73z" />
    <glyph glyph-name="zero.tf" 
d="M204 351c0 -151 27 -222 98 -222c69 0 98 73 98 225c0 149 -26 224 -97 224c-72 0 -99 -75 -99 -227zM38 351c0 243 93 369 268 369c171 0 260 -125 260 -360c0 -249 -89 -373 -267 -373c-174 0 -261 121 -261 364z" />
    <glyph glyph-name="one.tf" 
d="M109 127h141v382c-43 -21 -93 -33 -149 -37l-21 111c75 19 156 68 205 127h130v-583h125v-127h-431v127z" />
    <glyph glyph-name="two.tf" 
d="M543 0h-475v100l232 273c49 59 66 87 66 127c0 48 -33 77 -82 77c-24 0 -53 -8 -86 -23s-62 -33 -87 -54l-63 105c69 67 169 115 266 115c112 0 217 -64 217 -198c0 -39 -7 -73 -21 -103s-37 -64 -70 -103l-151 -181h254v-135z" />
    <glyph glyph-name="three.tf" 
d="M30 84l65 104c55 -41 111 -62 167 -62c64 0 108 27 108 83c0 57 -38 86 -113 87c-29 0 -52 -2 -68 -5l-3 130c43 1 79 11 109 28c30 18 45 42 45 71c0 43 -27 64 -80 64c-44 0 -91 -14 -141 -42l-61 102c73 51 142 76 233 76c124 0 207 -66 207 -174
c0 -75 -51 -141 -132 -170v-3c103 -11 160 -71 160 -171c0 -145 -112 -215 -251 -215c-91 0 -181 33 -245 97z" />
    <glyph glyph-name="four.tf" 
d="M342 562l-163 -288h163v288zM505 0h-163v142h-305v127l261 441h207v-436h66v-132h-66v-142z" />
    <glyph glyph-name="five.tf" 
d="M216 254h-134l33 456h388l-10 -150h-251l-12 -136c31 25 70 38 116 38c123 0 196 -78 196 -223c0 -162 -116 -252 -257 -252c-83 0 -173 30 -233 83l53 108c65 -35 111 -50 163 -50c68 0 115 34 115 114c0 66 -27 99 -82 99c-31 0 -57 -11 -80 -32z" />
    <glyph glyph-name="six.tf" 
d="M53 319c0 125 24 223 73 294s118 107 208 107c63 0 125 -17 188 -51l-46 -111c-40 21 -81 32 -124 32c-97 0 -139 -95 -144 -204c48 45 99 67 154 67c115 0 192 -79 192 -212c0 -183 -110 -254 -243 -254c-172 0 -258 111 -258 332zM309 123c53 0 90 39 90 103
c0 67 -28 101 -85 101c-37 0 -80 -24 -103 -45c1 -106 34 -159 98 -159z" />
    <glyph glyph-name="seven.tf" 
d="M535 710v-110l-240 -600h-172v16l226 545h-280v149h466z" />
    <glyph glyph-name="eight.tf" 
d="M195 197c0 -52 36 -82 99 -82c56 0 91 33 91 82c0 60 -57 91 -114 115c-45 -25 -76 -67 -76 -115zM235 534c0 -36 29 -66 88 -90c33 23 58 55 58 91c0 44 -28 67 -76 67c-45 0 -70 -28 -70 -68zM45 182c0 101 69 159 124 191c-52 24 -97 84 -97 159c0 56 21 101 63 136
c43 35 100 52 173 52c135 0 221 -68 221 -173c0 -72 -43 -129 -99 -162c83 -44 124 -106 124 -185c0 -135 -103 -213 -264 -213c-157 0 -245 70 -245 195z" />
    <glyph glyph-name="nine.tf" 
d="M553 403c0 -267 -100 -416 -272 -416c-71 0 -139 19 -205 56l46 108c40 -20 96 -36 137 -36c96 0 131 98 137 197c-44 -41 -94 -61 -149 -61c-120 0 -196 88 -196 220c0 168 112 249 243 249c171 0 259 -114 259 -317zM296 585c-53 0 -91 -39 -91 -103
c0 -68 33 -100 88 -100c40 0 80 19 101 46c0 93 -33 157 -98 157z" />
    <glyph glyph-name="dollar.tf" 
d="M368 -88h-128v91c-69 11 -149 56 -201 108l75 94c59 -45 129 -74 185 -74c53 0 79 19 79 56s-20 61 -132 94c-114 36 -187 88 -187 202c0 107 73 179 182 196v82h127v-84c65 -13 122 -41 171 -86l-74 -97c-45 36 -105 61 -156 61c-55 0 -85 -15 -85 -56
c0 -40 32 -66 139 -95c124 -35 186 -101 186 -200c0 -109 -68 -184 -181 -201v-91z" />
    <glyph glyph-name="Euro.tf" 
d="M61 382h-61l7 81h63c26 143 131 257 298 257c80 0 161 -32 221 -97l-67 -90c-48 39 -98 58 -149 58c-76 0 -124 -47 -143 -128h264l-7 -81h-267c-1 -7 -1 -18 -1 -32c0 -13 0 -22 1 -27h262l-6 -81h-246c21 -77 69 -116 144 -116c53 0 106 18 158 55l61 -100
c-41 -36 -80 -61 -117 -74c-36 -13 -78 -20 -127 -20c-75 0 -137 24 -188 71c-51 48 -82 109 -93 184h-79l6 81h66c-1 5 -1 14 -1 26c0 15 0 26 1 33z" />
    <glyph glyph-name="cent.tf" 
d="M502 258l49 -105c-46 -35 -98 -58 -156 -69v-102h-130v99c-125 16 -208 112 -208 269c0 74 19 136 56 185c38 50 89 79 153 87v97h129v-98c106 -22 160 -94 162 -217h-141c-4 57 -31 85 -82 85c-65 0 -98 -44 -98 -133c0 -91 42 -143 115 -143c45 0 95 15 151 45z" />
    <glyph glyph-name="sterling.tf" 
d="M357 233c0 -35 -14 -68 -43 -101h239v-132h-473v118l67 10c29 27 49 68 49 105c0 23 -6 49 -18 78h-97v102h61c-22 41 -33 78 -33 112c0 56 21 102 63 139c43 37 97 56 164 56c88 0 165 -33 222 -92l-65 -95c-51 35 -89 55 -138 55s-73 -25 -73 -76c0 -25 10 -58 30 -99
h139v-102h-111c11 -28 17 -54 17 -78z" />
    <glyph glyph-name="yen.tf" 
d="M220 294h-162v88h124l-175 328h175l120 -260l126 260h169l-182 -328h130v-88h-168v-65h168v-88h-168v-141h-157v141h-163v88h163v65z" />
    <glyph glyph-name="florin.tf" 
d="M30 -200v119h39c32 0 52 21 61 68l69 321h-81v110h104l20 102c12 61 24 97 51 134s70 56 134 56h91v-123h-60c-37 0 -50 -27 -61 -84l-17 -85h88v-110h-110l-63 -297c-5 -25 -10 -46 -15 -63c-9 -33 -23 -72 -42 -93c-27 -36 -68 -55 -135 -55h-73z" />
    <glyph glyph-name="zero.osf" horiz-adv-x="644" 
d="M209 301c0 -115 38 -173 113 -173c77 0 113 56 113 176c0 116 -36 164 -113 164c-75 0 -113 -56 -113 -167zM41 302c0 196 106 310 285 310c181 0 277 -106 277 -307c0 -200 -99 -318 -282 -318c-187 0 -280 115 -280 315z" />
    <glyph glyph-name="one.osf" horiz-adv-x="505" 
d="M67 127h141v273c-43 -21 -93 -33 -149 -37l-21 111c37 9 75 26 112 49s68 49 93 78h130v-474h125v-127h-431v127z" />
    <glyph glyph-name="two.osf" horiz-adv-x="556" 
d="M517 0h-475v96l205 194c32 30 52 50 59 59c16 20 24 41 24 63c0 35 -26 57 -66 57c-45 0 -103 -25 -174 -75l-68 103c84 77 173 115 267 115c112 0 216 -57 216 -181c0 -36 -7 -67 -21 -92s-40 -55 -78 -92l-116 -112h227v-135z" />
    <glyph glyph-name="three.osf" horiz-adv-x="547" 
d="M7 28l68 103c59 -43 109 -64 169 -64c61 0 101 23 101 74c0 48 -33 69 -112 69c-28 0 -50 -2 -66 -5l-5 134c83 2 154 19 154 82c0 37 -27 55 -81 55c-43 0 -100 -18 -141 -42l-61 102c73 51 152 76 237 76c125 0 205 -57 205 -164c0 -74 -45 -126 -134 -156v-3
c107 -13 163 -69 163 -161c0 -138 -121 -199 -252 -199c-91 0 -184 35 -245 99z" />
    <glyph glyph-name="four.osf" horiz-adv-x="616" 
d="M358 467l-181 -253h181v253zM521 -60h-163v142h-321v127l277 392h207v-387h72v-132h-72v-142z" />
    <glyph glyph-name="five.osf" horiz-adv-x="554" 
d="M187 176h-134l32 425h388l-10 -150h-251l-10 -104c33 25 72 37 116 37c121 0 196 -77 196 -209c0 -162 -115 -246 -256 -246c-83 0 -173 30 -233 83l53 108c65 -35 111 -50 163 -50c65 0 115 37 115 105c0 59 -31 87 -78 87c-35 0 -67 -14 -86 -31z" />
    <glyph glyph-name="six.osf" horiz-adv-x="584" 
d="M47 319c0 125 24 223 73 294s118 107 208 107c63 0 125 -17 188 -51l-46 -111c-40 21 -81 32 -124 32c-97 0 -139 -95 -144 -204c48 45 99 67 154 67c115 0 192 -79 192 -212c0 -183 -110 -254 -243 -254c-172 0 -258 111 -258 332zM303 123c53 0 90 39 90 103
c0 67 -28 101 -85 101c-37 0 -80 -24 -103 -45c1 -106 34 -159 98 -159z" />
    <glyph glyph-name="seven.osf" horiz-adv-x="507" 
d="M486 601v-110l-228 -551h-175v16l214 496h-277v149h466z" />
    <glyph glyph-name="eight.osf" horiz-adv-x="559" 
d="M175 197c0 -52 36 -82 99 -82c56 0 91 33 91 82c0 60 -57 91 -114 115c-45 -25 -76 -67 -76 -115zM215 534c0 -36 29 -66 88 -90c33 23 58 55 58 91c0 44 -28 67 -76 67c-45 0 -70 -28 -70 -68zM25 182c0 101 69 159 124 191c-52 24 -97 84 -97 159c0 56 21 101 63 136
c43 35 100 52 173 52c135 0 221 -68 221 -173c0 -72 -43 -129 -99 -162c83 -44 124 -106 124 -185c0 -135 -103 -213 -264 -213c-157 0 -245 70 -245 195z" />
    <glyph glyph-name="nine.osf" horiz-adv-x="579" 
d="M537 295c0 -269 -100 -367 -272 -367c-71 0 -139 19 -205 56l46 108c40 -20 96 -36 137 -36c93 0 129 54 137 158c-44 -41 -94 -61 -149 -61c-120 0 -196 79 -196 210c0 168 112 249 243 249c171 0 259 -114 259 -317zM280 477c-55 0 -91 -39 -91 -100
c0 -60 35 -93 88 -93c40 0 78 19 99 46v7c0 83 -33 140 -96 140z" />
    <glyph glyph-name="dollar.osf" horiz-adv-x="560" 
d="M343 -88h-128v91c-69 11 -149 56 -201 108l75 94c59 -45 129 -74 185 -74c53 0 79 19 79 56s-20 61 -132 94c-114 36 -187 88 -187 202c0 107 73 179 182 196v82h127v-84c65 -13 122 -41 171 -86l-74 -97c-45 36 -105 61 -156 61c-55 0 -85 -15 -85 -56
c0 -40 32 -66 139 -95c124 -35 186 -101 186 -200c0 -109 -68 -184 -181 -201v-91z" />
    <glyph glyph-name="Euro.osf" horiz-adv-x="629" 
d="M67 381h-60l6 82h63c22 140 134 257 296 257c85 0 170 -33 234 -102l-67 -90c-44 37 -106 63 -159 63c-75 0 -123 -43 -144 -128h264l-6 -82h-267c-1 -7 -1 -18 -1 -31s0 -22 1 -27h262l-7 -81h-246c19 -77 72 -116 145 -116c60 0 116 21 169 63l60 -98
c-85 -73 -159 -104 -254 -104c-75 0 -138 24 -190 71c-52 48 -83 109 -92 184h-79l7 81h66c-1 5 -1 18 -1 37v21z" />
    <glyph glyph-name="cent.osf" horiz-adv-x="574" 
d="M491 179l49 -105c-46 -35 -98 -58 -156 -69v-102h-130v99c-125 16 -208 112 -208 269c0 74 19 136 56 185c38 50 89 79 153 87v97h129v-98c106 -22 160 -94 162 -217h-141c-4 57 -31 85 -82 85c-65 0 -98 -44 -98 -133c0 -91 42 -143 115 -143c45 0 95 15 151 45z" />
    <glyph glyph-name="sterling.osf" horiz-adv-x="536" 
d="M316 233c0 -35 -14 -68 -43 -101h239v-132h-473v118l67 10c29 27 49 68 49 105c0 23 -6 49 -18 78h-97v102h61c-22 41 -33 78 -33 112c0 56 21 102 63 139c43 37 97 56 164 56c88 0 165 -33 222 -92l-65 -95c-51 35 -89 55 -138 55s-73 -25 -73 -76c0 -25 10 -58 30 -99
h139v-102h-111c11 -28 17 -54 17 -78z" />
    <glyph glyph-name="yen.osf" horiz-adv-x="610" 
d="M223 294h-162v88h124l-175 328h175l120 -260l126 260h169l-182 -328h130v-88h-168v-65h168v-88h-168v-141h-157v141h-163v88h163v65z" />
    <glyph glyph-name="florin.osf" horiz-adv-x="492" 
d="M-11 -200v119h39c32 0 52 21 61 68l69 321h-81v110h104l20 102c12 61 24 97 51 134s70 56 134 56h91v-123h-60c-37 0 -50 -27 -61 -84l-17 -85h88v-110h-110l-63 -297c-5 -25 -10 -46 -15 -63c-9 -33 -23 -72 -42 -93c-27 -36 -68 -55 -135 -55h-73z" />
    <glyph glyph-name="zero.tosf" unicode="&#xf81e;" 
d="M204 305c0 -119 29 -175 97 -175c69 0 99 56 99 176c0 116 -31 164 -98 164c-65 0 -98 -55 -98 -165zM40 302c0 197 94 310 262 310c176 0 261 -103 261 -307c0 -201 -87 -318 -262 -318s-261 114 -261 315z" />
    <glyph glyph-name="one.tosf" unicode="&#xf81f;" 
d="M116 127h141v273c-43 -21 -93 -33 -149 -37l-21 111c37 9 75 26 112 49s68 49 93 78h130v-474h125v-127h-431v127z" />
    <glyph glyph-name="two.tosf" unicode="&#xf820;" 
d="M549 0h-475v96l205 194c32 30 52 50 59 59c16 20 24 41 24 63c0 35 -26 57 -66 57c-45 0 -103 -25 -174 -75l-68 103c84 77 173 115 267 115c112 0 216 -57 216 -181c0 -36 -7 -67 -21 -92s-40 -55 -78 -92l-116 -112h227v-135z" />
    <glyph glyph-name="three.tosf" unicode="&#xf821;" 
d="M40 28l68 103c59 -43 109 -64 169 -64c61 0 101 23 101 74c0 48 -33 69 -112 69c-28 0 -50 -2 -66 -5l-5 134c83 2 154 19 154 82c0 37 -27 55 -81 55c-43 0 -100 -18 -141 -42l-61 102c73 51 152 76 237 76c125 0 205 -57 205 -164c0 -74 -45 -126 -134 -156v-3
c107 -13 163 -69 163 -161c0 -138 -121 -199 -252 -199c-91 0 -184 35 -245 99z" />
    <glyph glyph-name="four.tosf" unicode="&#xf822;" 
d="M339 460l-161 -246h161v246zM502 -60h-163v142h-301v127l257 392h207v-387h72v-132h-72v-142z" />
    <glyph glyph-name="five.tosf" unicode="&#xf823;" 
d="M219 176h-134l32 425h388l-10 -150h-251l-10 -104c33 25 72 37 116 37c121 0 196 -77 196 -209c0 -162 -115 -246 -256 -246c-83 0 -173 30 -233 83l53 108c65 -35 111 -50 163 -50c65 0 115 37 115 105c0 59 -31 87 -78 87c-35 0 -67 -14 -86 -31z" />
    <glyph glyph-name="six.tosf" unicode="&#xf824;" 
d="M53 319c0 125 24 223 73 294s118 107 208 107c63 0 125 -17 188 -51l-46 -111c-40 21 -81 32 -124 32c-97 0 -139 -95 -144 -204c48 45 99 67 154 67c115 0 192 -79 192 -212c0 -183 -110 -254 -243 -254c-172 0 -258 111 -258 332zM309 123c53 0 90 39 90 103
c0 67 -28 101 -85 101c-37 0 -80 -24 -103 -45c1 -106 34 -159 98 -159z" />
    <glyph glyph-name="seven.tosf" unicode="&#xf825;" 
d="M536 601v-110l-228 -551h-175v16l214 496h-277v149h466z" />
    <glyph glyph-name="eight.tosf" unicode="&#xf826;" 
d="M202 197c0 -52 36 -82 99 -82c56 0 91 33 91 82c0 60 -57 91 -114 115c-45 -25 -76 -67 -76 -115zM242 534c0 -36 29 -66 88 -90c33 23 58 55 58 91c0 44 -28 67 -76 67c-45 0 -70 -28 -70 -68zM52 182c0 101 69 159 124 191c-52 24 -97 84 -97 159c0 56 21 101 63 136
c43 35 100 52 173 52c135 0 221 -68 221 -173c0 -72 -43 -129 -99 -162c83 -44 124 -106 124 -185c0 -135 -103 -213 -264 -213c-157 0 -245 70 -245 195z" />
    <glyph glyph-name="nine.tosf" unicode="&#xf827;" 
d="M551 295c0 -269 -100 -367 -272 -367c-71 0 -139 19 -205 56l46 108c40 -20 96 -36 137 -36c93 0 129 54 137 158c-44 -41 -94 -61 -149 -61c-120 0 -196 79 -196 210c0 168 112 249 243 249c171 0 259 -114 259 -317zM294 477c-55 0 -91 -39 -91 -100
c0 -60 35 -93 88 -93c40 0 78 19 99 46v7c0 83 -33 140 -96 140z" />
    <glyph glyph-name="dollar.tosf" 
d="M369 -88h-128v91c-69 11 -149 56 -201 108l75 94c59 -45 129 -74 185 -74c53 0 79 19 79 56s-20 61 -132 94c-114 36 -187 88 -187 202c0 107 73 179 182 196v82h127v-84c65 -13 122 -41 171 -86l-74 -97c-45 36 -105 61 -156 61c-55 0 -85 -15 -85 -56
c0 -40 32 -66 139 -95c124 -35 186 -101 186 -200c0 -109 -68 -184 -181 -201v-91z" />
    <glyph glyph-name="Euro.tosf" 
d="M67 382h-61l7 81h63c26 143 131 257 298 257c80 0 161 -32 221 -97l-67 -90c-48 39 -98 58 -149 58c-76 0 -124 -47 -143 -128h264l-7 -81h-267c-1 -7 -1 -18 -1 -32c0 -13 0 -22 1 -27h262l-6 -81h-246c21 -77 69 -116 144 -116c53 0 106 18 158 55l61 -100
c-41 -36 -80 -61 -117 -74c-36 -13 -78 -20 -127 -20c-75 0 -137 24 -188 71c-51 48 -82 109 -93 184h-79l6 81h66c-1 5 -1 14 -1 26c0 15 0 26 1 33z" />
    <glyph glyph-name="cent.tosf" 
d="M505 179l49 -105c-46 -35 -98 -58 -156 -69v-102h-130v99c-125 16 -208 112 -208 269c0 74 19 136 56 185c38 50 89 79 153 87v97h129v-98c106 -22 160 -94 162 -217h-141c-4 57 -31 85 -82 85c-65 0 -98 -44 -98 -133c0 -91 42 -143 115 -143c45 0 95 15 151 45z" />
    <glyph glyph-name="sterling.tosf" 
d="M345 233c0 -35 -14 -68 -43 -101h239v-132h-473v118l67 10c29 27 49 68 49 105c0 23 -6 49 -18 78h-97v102h61c-22 41 -33 78 -33 112c0 56 21 102 63 139c43 37 97 56 164 56c88 0 165 -33 222 -92l-65 -95c-51 35 -89 55 -138 55s-73 -25 -73 -76c0 -25 10 -58 30 -99
h139v-102h-111c11 -28 17 -54 17 -78z" />
    <glyph glyph-name="yen.tosf" 
d="M220 294h-162v88h124l-175 328h175l120 -260l126 260h169l-182 -328h130v-88h-168v-65h168v-88h-168v-141h-157v141h-163v88h163v65z" />
    <glyph glyph-name="florin.tosf" 
d="M29 -200v119h39c32 0 52 21 61 68l69 321h-81v110h104l20 102c12 61 24 97 51 134s70 56 134 56h91v-123h-60c-37 0 -50 -27 -61 -84l-17 -85h88v-110h-110l-63 -297c-5 -25 -10 -46 -15 -63c-9 -33 -23 -72 -42 -93c-27 -36 -68 -55 -135 -55h-73z" />
    <glyph glyph-name="section" unicode="&#xa7;" horiz-adv-x="540" 
d="M54 75l59 85c47 -31 109 -56 157 -56c33 0 50 10 50 30c0 29 -44 37 -96 54c-35 11 -55 18 -87 34c-43 23 -69 56 -72 111c0 57 31 100 92 128c-55 27 -82 65 -82 115c0 96 76 156 193 156c87 0 157 -23 212 -70l-45 -86c-52 31 -100 46 -143 46c-37 0 -63 -12 -63 -37
c0 -27 17 -36 89 -63c63 -23 105 -45 128 -66s34 -49 34 -82c0 -51 -29 -89 -88 -114c57 -31 86 -71 86 -122c0 -96 -82 -151 -194 -151c-85 0 -174 33 -230 88zM245 415c-27 -16 -41 -34 -41 -53c0 -27 33 -44 88 -59c27 15 41 33 41 53c0 16 -11 26 -29 35
c-15 7 -41 17 -59 24z" />
    <glyph glyph-name="copyright" unicode="&#xa9;" horiz-adv-x="803" 
d="M526 278l36 -55c-43 -41 -96 -62 -158 -62c-107 0 -169 81 -169 197c0 59 16 107 47 144s75 56 130 56c85 0 147 -49 151 -142h-80c-4 44 -25 68 -72 68c-56 0 -89 -46 -89 -125c0 -81 36 -124 93 -124c35 0 72 14 111 43zM407 659c-163 4 -297 -127 -294 -299
c0 -190 128 -299 294 -299c157 0 296 131 296 299c0 88 -27 160 -82 215c-55 56 -126 84 -214 84zM407 720c109 0 196 -33 261 -98c66 -65 99 -151 99 -258c3 -206 -169 -369 -360 -364c-194 0 -360 125 -360 360c-3 208 164 364 360 360z" />
    <glyph glyph-name="registered" unicode="&#xae;" horiz-adv-x="427" 
d="M74 547c0 -89 55 -141 139 -141c37 0 69 14 96 41s41 60 41 99c0 85 -57 141 -137 141s-139 -59 -139 -140zM214 728c53 0 97 -17 131 -50s51 -77 51 -132c0 -51 -18 -95 -54 -130s-79 -52 -129 -52c-109 0 -183 67 -183 182c0 53 18 97 53 131s79 51 131 51zM145 459
v178h71c45 0 70 -23 70 -59c0 -23 -10 -39 -30 -49l40 -70h-46l-33 61c-3 -1 -9 -1 -16 -1h-16v-60h-40zM211 605h-26v-54h24c23 0 34 10 34 29c0 15 -11 25 -32 25z" />
    <glyph glyph-name="trademark" unicode="&#x2122;" horiz-adv-x="653" 
d="M588 720l30 -269h-67l-15 163l-54 -163h-52l-53 163l-16 -163h-68l29 269h82l54 -170l55 170h75zM187 451h-72v204h-83v65h239v-65h-84v-204z" />
    <glyph glyph-name="ordfeminine" unicode="&#xaa;" horiz-adv-x="496" 
d="M303 408v13c-15 3 -30 4 -46 4c-53 0 -79 -16 -79 -47c0 -27 17 -40 50 -40c43 0 75 33 75 70zM424 515v-251h-102l-10 48c-21 -35 -72 -58 -121 -58c-79 0 -133 42 -133 115s56 125 175 125c21 0 44 -2 71 -5v23c0 37 -26 58 -70 58c-41 0 -83 -11 -126 -32l-30 79
c55 30 111 45 166 45c117 0 180 -46 180 -147z" />
    <glyph glyph-name="ordmasculine" unicode="&#xba;" horiz-adv-x="513" 
d="M178 456c0 -71 27 -106 80 -106s79 35 79 106c0 77 -31 110 -79 110c-53 0 -80 -37 -80 -110zM51 458c0 137 94 204 207 204c111 0 205 -67 205 -204c0 -136 -97 -203 -205 -203c-127 0 -207 70 -207 203z" />
    <glyph glyph-name="guillemotleft" unicode="&#xab;" horiz-adv-x="489" 
d="M190 431l67 -62l-94 -108l92 -108l-65 -60l-161 148v38zM398 431l67 -62l-94 -108l92 -108l-65 -60l-161 148v38z" />
    <glyph glyph-name="guillemotright" unicode="&#xbb;" horiz-adv-x="493" 
d="M238 153l92 108l-94 108l67 62l161 -152v-38l-161 -148zM26 153l92 108l-94 108l67 62l161 -152v-38l-161 -148z" />
    <glyph glyph-name="guilsinglleft" unicode="&#x2039;" horiz-adv-x="281" 
d="M190 431l67 -62l-94 -108l92 -108l-65 -60l-161 148v38z" />
    <glyph glyph-name="guilsinglright" unicode="&#x203a;" horiz-adv-x="281" 
d="M26 153l92 108l-94 108l67 62l161 -152v-38l-161 -148z" />
    <glyph glyph-name="quoteleft" unicode="&#x2018;" horiz-adv-x="232" 
d="M197 566c0 -41 -34 -73 -78 -73c-56 0 -87 40 -87 95c0 81 42 136 137 165l21 -53c-45 -17 -69 -43 -71 -76c8 1 13 2 16 2c35 0 62 -25 62 -60z" />
    <glyph glyph-name="quoteright" unicode="&#x2019;" horiz-adv-x="229" 
d="M32 651c0 41 33 73 78 73c56 0 87 -40 87 -95c0 -81 -44 -136 -137 -165l-21 53c45 17 69 43 71 76c-8 -1 -13 -2 -16 -2c-35 0 -62 25 -62 60z" />
    <glyph glyph-name="quotesinglbase" unicode="&#x201a;" horiz-adv-x="230" 
d="M39 47c0 41 33 73 78 73c56 0 87 -40 87 -95c0 -81 -44 -136 -137 -165l-21 53c45 17 69 43 71 76c-8 -1 -13 -2 -16 -2c-35 0 -62 25 -62 60z" />
    <glyph glyph-name="quotedblleft" unicode="&#x201c;" horiz-adv-x="429" 
d="M394 566c0 -41 -34 -73 -78 -73c-56 0 -87 40 -87 95c0 81 42 136 137 165l21 -53c-45 -17 -69 -43 -71 -76c8 1 13 2 16 2c35 0 62 -25 62 -60zM197 566c0 -41 -34 -73 -78 -73c-56 0 -87 40 -87 95c0 81 42 136 137 165l21 -53c-45 -17 -69 -43 -71 -76c8 1 13 2 16 2
c35 0 62 -25 62 -60z" />
    <glyph glyph-name="quotedblright" unicode="&#x201d;" horiz-adv-x="425" 
d="M228 651c0 41 33 73 78 73c56 0 87 -40 87 -95c0 -81 -44 -136 -137 -165l-21 53c45 17 69 43 71 76c-8 -1 -13 -2 -16 -2c-35 0 -62 25 -62 60zM32 651c0 41 33 73 78 73c56 0 87 -40 87 -95c0 -81 -44 -136 -137 -165l-21 53c45 17 69 43 71 76c-8 -1 -13 -2 -16 -2
c-35 0 -62 25 -62 60z" />
    <glyph glyph-name="quotedblbase" unicode="&#x201e;" horiz-adv-x="425" 
d="M234 47c0 41 33 73 78 73c56 0 87 -40 87 -95c0 -81 -44 -136 -137 -165l-21 53c45 17 69 43 71 76c-8 -1 -13 -2 -16 -2c-35 0 -62 25 -62 60zM39 47c0 41 33 73 78 73c56 0 87 -40 87 -95c0 -81 -44 -136 -137 -165l-21 53c45 17 69 43 71 76c-8 -1 -13 -2 -16 -2
c-35 0 -62 25 -62 60z" />
    <glyph glyph-name="dagger" unicode="&#x2020;" horiz-adv-x="506" 
d="M328 389v-494h-151v494h-141v135h141v196h151v-196h142v-135h-142z" />
    <glyph glyph-name="daggerdbl" unicode="&#x2021;" horiz-adv-x="506" 
d="M329 87v-192h-152v192h-141v135h141v167h-141v135h141v196h152v-196h141v-135h-141v-167h141v-135h-141z" />
    <glyph glyph-name="bullet" unicode="&#x2022;" horiz-adv-x="504" 
d="M110 312c0 40 14 74 42 101c28 28 62 42 101 42s72 -14 101 -43c29 -28 43 -61 43 -100s-14 -72 -43 -101s-63 -43 -102 -43c-40 0 -74 14 -101 43s-41 62 -41 101z" />
    <glyph glyph-name="ellipsis" unicode="&#x2026;" horiz-adv-x="917" 
d="M365 69c0 55 32 88 92 88c56 0 92 -33 92 -84s-36 -86 -92 -86c-59 0 -92 34 -92 82zM74 69c0 55 32 88 92 88c56 0 92 -33 92 -84s-36 -86 -92 -86c-59 0 -92 34 -92 82zM659 69c0 55 32 88 92 88c56 0 92 -33 92 -84s-36 -86 -92 -86c-59 0 -92 34 -92 82z" />
    <glyph glyph-name="paragraph" unicode="&#xb6;" horiz-adv-x="568" 
d="M258 720h252v-720h-108v634h-71v-634h-108v340c-116 12 -185 79 -185 187c0 57 20 104 60 139c41 36 94 54 160 54z" />
    <glyph glyph-name="periodcentered" unicode="&#xb7;" horiz-adv-x="320" 
d="M75 332c0 55 32 88 92 88c56 0 92 -33 92 -84s-36 -86 -92 -86c-59 0 -92 34 -92 82z" />
    <glyph glyph-name="uni00AD" unicode="&#xad;" horiz-adv-x="326" 
d="M297 211h-269v133h269v-133z" />
    <glyph glyph-name="endash" unicode="&#x2013;" horiz-adv-x="504" 
d="M502 218h-500v106h500v-106z" />
    <glyph glyph-name="emdash" unicode="&#x2014;" horiz-adv-x="1004" 
d="M1002 217h-1000v106h1000v-106z" />
    <glyph glyph-name="hyphen.case" horiz-adv-x="326" 
d="M297 264h-269v133h269v-133z" />
    <glyph glyph-name="Agrave" unicode="&#xc0;" horiz-adv-x="704" 
d="M7 0l256 720h177l257 -720h-190l-40 132h-230l-40 -132h-190zM351 518l-68 -237h137zM234 836l58 103l183 -113l-46 -79z" />
    <glyph glyph-name="Aacute" unicode="&#xc1;" horiz-adv-x="704" 
d="M7 0l256 720h177l257 -720h-190l-40 132h-230l-40 -132h-190zM351 518l-68 -237h137zM280 747l-46 79l184 113l57 -103z" />
    <glyph glyph-name="Acircumflex" unicode="&#xc2;" horiz-adv-x="704" 
d="M7 0l256 720h177l257 -720h-190l-40 132h-230l-40 -132h-190zM351 518l-68 -237h137zM198 808l109 117h97l111 -119l-61 -50l-97 64l-96 -65z" />
    <glyph glyph-name="Atilde" unicode="&#xc3;" horiz-adv-x="704" 
d="M7 0l256 720h177l257 -720h-190l-40 132h-230l-40 -132h-190zM351 518l-68 -237h137zM452 910l70 -28c-16 -67 -40 -105 -95 -105c-17 0 -41 5 -72 16s-50 17 -57 17c-16 0 -26 -9 -39 -38l-73 28c17 64 50 106 97 106c19 0 43 -6 72 -17s48 -17 57 -17c17 0 25 6 40 38z
" />
    <glyph glyph-name="Adieresis" unicode="&#xc4;" horiz-adv-x="704" 
d="M7 0l256 720h177l257 -720h-190l-40 132h-230l-40 -132h-190zM351 518l-68 -237h137zM386 838c0 41 30 72 81 72c55 0 82 -29 82 -72c0 -41 -33 -70 -81 -70c-53 0 -82 27 -82 70zM164 838c0 41 33 72 82 72c53 0 81 -29 81 -72c0 -41 -32 -70 -80 -70
c-53 0 -83 27 -83 70z" />
    <glyph glyph-name="Aring" unicode="&#xc5;" horiz-adv-x="704" 
d="M240 788c0 67 49 109 116 109s114 -40 114 -104c0 -31 -10 -56 -30 -75l257 -718h-190l-40 132h-230l-40 -132h-190l256 720c-15 17 -23 40 -23 68zM351 518l-68 -237h137zM315 792c0 -25 16 -39 41 -39c51 -3 53 83 0 77c-24 0 -41 -17 -41 -38z" />
    <glyph glyph-name="AE" unicode="&#xc6;" horiz-adv-x="1011" 
d="M974 0h-503v161h-193l-78 -161h-198l348 720h620v-156h-322v-129h292v-146h-292v-134h326v-155zM454 571l-129 -267h146v267h-17z" />
    <glyph glyph-name="Ccedilla" unicode="&#xc7;" horiz-adv-x="683" 
d="M293 -209l12 63c21 -7 41 -10 60 -10c29 0 43 10 43 29c0 24 -18 28 -65 28h-16l18 87c-204 8 -307 158 -307 370c0 215 117 374 333 374c158 0 280 -87 290 -272h-178c-7 57 -28 112 -109 112c-92 0 -147 -73 -147 -213c0 -141 58 -212 157 -212c75 0 134 28 197 77
l79 -120c-76 -67 -160 -105 -252 -115l-6 -34c65 -5 97 -32 97 -81c0 -63 -42 -100 -117 -100c-34 0 -64 6 -89 17z" />
    <glyph glyph-name="Egrave" unicode="&#xc8;" horiz-adv-x="598" 
d="M172 837l58 103l183 -113l-46 -79zM561 0h-503v720h499v-156h-322v-129h292v-146h-292v-134h326v-155z" />
    <glyph glyph-name="Eacute" unicode="&#xc9;" horiz-adv-x="598" 
d="M240 748l-46 79l184 113l57 -103zM561 0h-503v720h499v-156h-322v-129h292v-146h-292v-134h326v-155z" />
    <glyph glyph-name="Ecircumflex" unicode="&#xca;" horiz-adv-x="598" 
d="M561 0h-503v720h499v-156h-322v-129h292v-146h-292v-134h326v-155zM147 809l109 117h97l111 -119l-61 -50l-97 64l-96 -65z" />
    <glyph glyph-name="Edieresis" unicode="&#xcb;" horiz-adv-x="598" 
d="M561 0h-503v720h499v-156h-322v-129h292v-146h-292v-134h326v-155zM329 839c0 41 30 72 81 72c55 0 82 -29 82 -72c0 -41 -33 -70 -81 -70c-53 0 -82 27 -82 70zM107 839c0 41 33 72 82 72c53 0 81 -29 81 -72c0 -41 -32 -70 -80 -70c-53 0 -83 27 -83 70z" />
    <glyph glyph-name="Igrave" unicode="&#xcc;" horiz-adv-x="293" 
d="M235 0h-177v720h177v-720zM22 836l58 103l183 -113l-46 -79z" />
    <glyph glyph-name="Iacute" unicode="&#xcd;" horiz-adv-x="293" 
d="M235 0h-177v720h177v-720zM68 747l-46 79l184 113l57 -103z" />
    <glyph glyph-name="Icircumflex" unicode="&#xce;" horiz-adv-x="293" 
d="M235 0h-177v720h177v-720zM-11 808l109 117h97l111 -119l-61 -50l-97 64l-96 -65z" />
    <glyph glyph-name="Idieresis" unicode="&#xcf;" horiz-adv-x="293" 
d="M235 0h-177v720h177v-720zM174 838c0 41 30 72 81 72c55 0 82 -29 82 -72c0 -41 -33 -70 -81 -70c-53 0 -82 27 -82 70zM-48 838c0 41 33 72 82 72c53 0 81 -29 81 -72c0 -41 -32 -70 -80 -70c-53 0 -83 27 -83 70z" />
    <glyph glyph-name="Eth" unicode="&#xd0;" horiz-adv-x="763" 
d="M104 295h-72v119h72v306h261c235 0 360 -137 360 -362c0 -245 -124 -358 -387 -358h-234v295zM365 559h-84v-145h111v-119h-111v-134h84c120 0 174 61 174 197c0 135 -55 201 -174 201z" />
    <glyph glyph-name="Ntilde" unicode="&#xd1;" horiz-adv-x="724" 
d="M232 0h-174v720h154l279 -423v423h175v-720h-153l-281 414v-414zM462 910l70 -28c-16 -67 -40 -105 -95 -105c-17 0 -41 5 -72 16s-50 17 -57 17c-16 0 -26 -9 -39 -38l-73 28c17 64 50 106 97 106c19 0 43 -6 72 -17s48 -17 57 -17c17 0 25 6 40 38z" />
    <glyph glyph-name="Ograve" unicode="&#xd2;" horiz-adv-x="787" 
d="M224 361c0 -132 61 -214 169 -214c109 0 170 82 170 214c0 125 -62 210 -170 210s-169 -85 -169 -210zM38 361c0 113 32 203 96 270s150 101 259 101s196 -33 260 -100s96 -157 96 -271c0 -117 -32 -208 -96 -275c-63 -66 -150 -99 -260 -99c-109 0 -196 33 -260 100
c-63 67 -95 158 -95 274zM271 836l58 103l183 -113l-46 -79z" />
    <glyph glyph-name="Oacute" unicode="&#xd3;" horiz-adv-x="787" 
d="M224 361c0 -132 61 -214 169 -214c109 0 170 82 170 214c0 125 -62 210 -170 210s-169 -85 -169 -210zM38 361c0 113 32 203 96 270s150 101 259 101s196 -33 260 -100s96 -157 96 -271c0 -117 -32 -208 -96 -275c-63 -66 -150 -99 -260 -99c-109 0 -196 33 -260 100
c-63 67 -95 158 -95 274zM317 747l-46 79l184 113l57 -103z" />
    <glyph glyph-name="Ocircumflex" unicode="&#xd4;" horiz-adv-x="787" 
d="M224 361c0 -132 61 -214 169 -214c109 0 170 82 170 214c0 125 -62 210 -170 210s-169 -85 -169 -210zM38 361c0 113 32 203 96 270s150 101 259 101s196 -33 260 -100s96 -157 96 -271c0 -117 -32 -208 -96 -275c-63 -66 -150 -99 -260 -99c-109 0 -196 33 -260 100
c-63 67 -95 158 -95 274zM239 808l109 117h97l111 -119l-61 -50l-97 64l-96 -65z" />
    <glyph glyph-name="Otilde" unicode="&#xd5;" horiz-adv-x="787" 
d="M224 361c0 -132 61 -214 169 -214c109 0 170 82 170 214c0 125 -62 210 -170 210s-169 -85 -169 -210zM38 361c0 113 32 203 96 270s150 101 259 101s196 -33 260 -100s96 -157 96 -271c0 -117 -32 -208 -96 -275c-63 -66 -150 -99 -260 -99c-109 0 -196 33 -260 100
c-63 67 -95 158 -95 274zM503 910l70 -28c-16 -67 -40 -105 -95 -105c-17 0 -41 5 -72 16s-50 17 -57 17c-16 0 -26 -9 -39 -38l-73 28c17 64 50 106 97 106c19 0 43 -6 72 -17s48 -17 57 -17c17 0 25 6 40 38z" />
    <glyph glyph-name="Odieresis" unicode="&#xd6;" horiz-adv-x="787" 
d="M224 361c0 -132 61 -214 169 -214c109 0 170 82 170 214c0 125 -62 210 -170 210s-169 -85 -169 -210zM38 361c0 113 32 203 96 270s150 101 259 101s196 -33 260 -100s96 -157 96 -271c0 -117 -32 -208 -96 -275c-63 -66 -150 -99 -260 -99c-109 0 -196 33 -260 100
c-63 67 -95 158 -95 274zM423 838c0 41 30 72 81 72c55 0 82 -29 82 -72c0 -41 -33 -70 -81 -70c-53 0 -82 27 -82 70zM201 838c0 41 33 72 82 72c53 0 81 -29 81 -72c0 -41 -32 -70 -80 -70c-53 0 -83 27 -83 70z" />
    <glyph glyph-name="Oslash" unicode="&#xd8;" horiz-adv-x="787" 
d="M38 361c0 113 32 203 96 270s150 101 259 101c14 0 34 -1 59 -4l22 63h139l-36 -102c109 -59 172 -176 172 -328c0 -117 -32 -208 -96 -275c-63 -66 -150 -99 -260 -99c-23 0 -43 1 -60 4l-24 -70h-137l37 108c-109 59 -171 175 -171 332zM563 361c0 65 -15 117 -46 154
l-129 -368h5c109 0 170 81 170 214zM224 361c0 -69 15 -122 45 -159l128 369h-4c-108 0 -169 -85 -169 -210z" />
    <glyph glyph-name="Ugrave" unicode="&#xd9;" horiz-adv-x="702" 
d="M53 276v444h177v-440c0 -91 45 -136 120 -136c83 0 122 43 122 136v440h177v-444c0 -189 -107 -288 -299 -288c-198 0 -297 96 -297 288zM228 836l58 103l183 -113l-46 -79z" />
    <glyph glyph-name="Uacute" unicode="&#xda;" horiz-adv-x="702" 
d="M53 276v444h177v-440c0 -91 45 -136 120 -136c83 0 122 43 122 136v440h177v-444c0 -189 -107 -288 -299 -288c-198 0 -297 96 -297 288zM281 747l-46 79l184 113l57 -103z" />
    <glyph glyph-name="Ucircumflex" unicode="&#xdb;" horiz-adv-x="702" 
d="M53 276v444h177v-440c0 -91 45 -136 120 -136c83 0 122 43 122 136v440h177v-444c0 -189 -107 -288 -299 -288c-198 0 -297 96 -297 288zM196 808l109 117h97l111 -119l-61 -50l-97 64l-96 -65z" />
    <glyph glyph-name="Udieresis" unicode="&#xdc;" horiz-adv-x="702" 
d="M53 276v444h177v-440c0 -91 45 -136 120 -136c83 0 122 43 122 136v440h177v-444c0 -189 -107 -288 -299 -288c-198 0 -297 96 -297 288zM380 838c0 41 30 72 81 72c55 0 82 -29 82 -72c0 -41 -33 -70 -81 -70c-53 0 -82 27 -82 70zM158 838c0 41 33 72 82 72
c53 0 81 -29 81 -72c0 -41 -32 -70 -80 -70c-53 0 -83 27 -83 70z" />
    <glyph glyph-name="Yacute" unicode="&#xdd;" horiz-adv-x="673" 
d="M420 0h-177v276l-241 444h193l138 -270l140 270h198l-251 -444v-276zM276 747l-46 79l184 113l57 -103z" />
    <glyph glyph-name="Thorn" unicode="&#xde;" horiz-adv-x="636" 
d="M230 0h-177v720h177v-95h105c148 0 238 -68 258 -191c3 -16 4 -34 4 -54v-18c-8 -145 -101 -229 -270 -229h-97v-133zM321 470h-91v-198h87c69 0 107 38 107 103c0 64 -34 95 -103 95z" />
    <glyph glyph-name="germandbls" unicode="&#xdf;" horiz-adv-x="653" 
d="M251 0h-169v406h-69v96l69 18v16c0 146 133 184 256 184c144 0 229 -65 229 -189c0 -77 -47 -139 -119 -159c107 -21 168 -85 168 -184c0 -129 -91 -200 -201 -200c-48 0 -103 15 -138 43l32 111c18 -11 38 -16 60 -16c49 0 79 27 79 79c0 64 -48 92 -144 97v126
c61 4 101 36 101 91c0 53 -26 79 -77 79s-77 -32 -77 -95v-503z" />
    <glyph glyph-name="agrave" unicode="&#xe0;" horiz-adv-x="553" 
d="M336 187v24c-17 3 -34 5 -49 5c-61 0 -92 -21 -92 -63c0 -32 21 -50 62 -50c45 0 79 36 79 84zM506 340v-340h-135l-15 62c-37 -50 -91 -75 -161 -75c-101 0 -167 55 -167 158c0 99 78 167 239 167c27 0 50 -1 69 -4v29c0 49 -25 73 -75 73c-55 0 -95 -15 -154 -46
l-53 101c67 48 148 76 231 76c147 0 221 -62 221 -201zM149 701l80 94l159 -143l-65 -77z" />
    <glyph glyph-name="aacute" unicode="&#xe1;" horiz-adv-x="553" 
d="M336 187v24c-17 3 -34 5 -49 5c-61 0 -92 -21 -92 -63c0 -32 21 -50 62 -50c45 0 79 36 79 84zM506 340v-340h-135l-15 62c-37 -50 -91 -75 -161 -75c-101 0 -167 55 -167 158c0 99 78 167 239 167c27 0 50 -1 69 -4v29c0 49 -25 73 -75 73c-55 0 -95 -15 -154 -46
l-53 101c67 48 148 76 231 76c147 0 221 -62 221 -201zM217 575l-65 74l164 150l78 -95z" />
    <glyph glyph-name="acircumflex" unicode="&#xe2;" horiz-adv-x="553" 
d="M336 187v24c-17 3 -34 5 -49 5c-61 0 -92 -21 -92 -63c0 -32 21 -50 62 -50c45 0 79 36 79 84zM506 340v-340h-135l-15 62c-37 -50 -91 -75 -161 -75c-101 0 -167 55 -167 158c0 99 78 167 239 167c27 0 50 -1 69 -4v29c0 49 -25 73 -75 73c-55 0 -95 -15 -154 -46
l-53 101c67 48 148 76 231 76c147 0 221 -62 221 -201zM109 622l114 143h97l113 -142l-63 -47l-97 84l-96 -84z" />
    <glyph glyph-name="atilde" unicode="&#xe3;" horiz-adv-x="553" 
d="M336 187v24c-17 3 -34 5 -49 5c-61 0 -92 -21 -92 -63c0 -32 21 -50 62 -50c45 0 79 36 79 84zM506 340v-340h-135l-15 62c-37 -50 -91 -75 -161 -75c-101 0 -167 55 -167 158c0 99 78 167 239 167c27 0 50 -1 69 -4v29c0 49 -25 73 -75 73c-55 0 -95 -15 -154 -46
l-53 101c67 48 148 76 231 76c147 0 221 -62 221 -201zM370 726l70 -28c-16 -67 -40 -105 -95 -105c-17 0 -41 5 -72 16s-50 17 -57 17c-16 0 -26 -9 -39 -38l-73 28c17 64 50 106 97 106c19 0 43 -6 72 -17s48 -17 57 -17c17 0 25 6 40 38z" />
    <glyph glyph-name="adieresis" unicode="&#xe4;" horiz-adv-x="553" 
d="M336 187v24c-17 3 -34 5 -49 5c-61 0 -92 -21 -92 -63c0 -32 21 -50 62 -50c45 0 79 36 79 84zM506 340v-340h-135l-15 62c-37 -50 -91 -75 -161 -75c-101 0 -167 55 -167 158c0 99 78 167 239 167c27 0 50 -1 69 -4v29c0 49 -25 73 -75 73c-55 0 -95 -15 -154 -46
l-53 101c67 48 148 76 231 76c147 0 221 -62 221 -201zM300 660c0 41 30 72 81 72c55 0 82 -29 82 -72c0 -41 -33 -70 -81 -70c-53 0 -82 27 -82 70zM78 660c0 41 33 72 82 72c53 0 81 -29 81 -72c0 -41 -32 -70 -80 -70c-53 0 -83 27 -83 70z" />
    <glyph glyph-name="aring" unicode="&#xe5;" horiz-adv-x="553" 
d="M336 187v24c-17 3 -34 5 -49 5c-61 0 -92 -21 -92 -63c0 -32 21 -50 62 -50c45 0 79 36 79 84zM506 340v-340h-135l-15 62c-37 -50 -91 -75 -161 -75c-101 0 -167 55 -167 158c0 99 78 167 239 167c27 0 50 -1 69 -4v29c0 49 -25 73 -75 73c-55 0 -95 -15 -154 -46
l-53 101c67 48 148 76 231 76c147 0 221 -62 221 -201zM239 676c0 -24 15 -37 40 -37c49 -4 50 81 0 74c-24 0 -40 -16 -40 -37zM168 673c0 64 46 104 111 104c64 0 109 -37 109 -100c0 -61 -46 -102 -109 -102c-69 0 -111 35 -111 98z" />
    <glyph glyph-name="ae" unicode="&#xe6;" horiz-adv-x="871" 
d="M779 160l44 -106c-68 -45 -142 -67 -223 -67c-79 0 -141 22 -188 67c-52 -45 -113 -67 -184 -67c-125 0 -200 54 -200 169c0 92 71 159 218 159c31 0 61 -2 90 -7v32c0 53 -29 78 -81 78c-55 0 -111 -13 -169 -39l-34 102c31 17 68 32 109 43c42 11 81 17 118 17
c75 0 125 -17 164 -65c41 43 99 65 174 65c141 0 226 -86 226 -250c0 -36 -1 -60 -3 -72h-326c8 -56 41 -98 109 -98c48 0 89 11 156 39zM259 107c38 0 69 13 94 39c-10 21 -16 45 -17 71c-13 4 -31 6 -52 6c-59 0 -88 -20 -88 -61c0 -35 20 -55 63 -55zM514 317h168
c-1 63 -22 98 -78 98c-65 0 -90 -58 -90 -98z" />
    <glyph glyph-name="ccedilla" unicode="&#xe7;" horiz-adv-x="553" 
d="M200 -209l12 63c23 -7 45 -11 66 -11c29 0 45 8 45 29c0 24 -19 32 -63 32h-19l16 85c-137 15 -226 113 -226 273c0 83 24 150 73 201c49 52 115 78 196 78c144 0 230 -77 231 -222h-141c-4 57 -31 85 -82 85c-65 0 -98 -45 -98 -136c0 -92 41 -147 114 -147
c44 0 95 15 152 46l45 -103c-57 -45 -124 -71 -201 -76l-6 -33c64 -5 96 -32 96 -81c0 -63 -41 -100 -116 -100c-37 0 -69 6 -94 17z" />
    <glyph glyph-name="egrave" unicode="&#xe8;" horiz-adv-x="568" 
d="M476 160l44 -106c-68 -45 -142 -67 -223 -67c-168 0 -266 101 -266 273c0 85 24 153 72 204c49 51 114 77 196 77c156 0 241 -83 241 -250c0 -38 -1 -63 -3 -75h-326c8 -56 40 -95 109 -95c48 0 89 11 156 39zM211 319h168c0 64 -26 96 -78 96c-64 0 -90 -57 -90 -96z
M163 701l80 94l159 -143l-65 -77z" />
    <glyph glyph-name="eacute" unicode="&#xe9;" horiz-adv-x="568" 
d="M476 160l44 -106c-68 -45 -142 -67 -223 -67c-168 0 -266 101 -266 273c0 85 24 153 72 204c49 51 114 77 196 77c156 0 241 -83 241 -250c0 -38 -1 -63 -3 -75h-326c8 -56 40 -95 109 -95c48 0 89 11 156 39zM211 319h168c0 64 -26 96 -78 96c-64 0 -90 -57 -90 -96z
M242 575l-65 74l164 150l78 -95z" />
    <glyph glyph-name="ecircumflex" unicode="&#xea;" horiz-adv-x="568" 
d="M476 160l44 -106c-68 -45 -142 -67 -223 -67c-168 0 -266 101 -266 273c0 85 24 153 72 204c49 51 114 77 196 77c156 0 241 -83 241 -250c0 -38 -1 -63 -3 -75h-326c8 -56 40 -95 109 -95c48 0 89 11 156 39zM211 319h168c0 64 -26 96 -78 96c-64 0 -90 -57 -90 -96z
M132 622l114 143h97l113 -142l-63 -47l-97 84l-96 -84z" />
    <glyph glyph-name="edieresis" unicode="&#xeb;" horiz-adv-x="568" 
d="M476 160l44 -106c-68 -45 -142 -67 -223 -67c-168 0 -266 101 -266 273c0 85 24 153 72 204c49 51 114 77 196 77c156 0 241 -83 241 -250c0 -38 -1 -63 -3 -75h-326c8 -56 40 -95 109 -95c48 0 89 11 156 39zM211 319h168c0 64 -26 96 -78 96c-64 0 -90 -57 -90 -96z
M323 660c0 41 30 72 81 72c55 0 82 -29 82 -72c0 -41 -33 -70 -81 -70c-53 0 -82 27 -82 70zM101 660c0 41 33 72 82 72c53 0 81 -29 81 -72c0 -41 -32 -70 -80 -70c-53 0 -83 27 -83 70z" />
    <glyph glyph-name="igrave" unicode="&#xec;" horiz-adv-x="280" 
d="M56 529h170v-529h-170v529zM18 701l80 94l159 -143l-65 -77z" />
    <glyph glyph-name="iacute" unicode="&#xed;" horiz-adv-x="280" 
d="M56 529h170v-529h-170v529zM78 575l-65 74l164 150l78 -95z" />
    <glyph glyph-name="icircumflex" unicode="&#xee;" horiz-adv-x="280" 
d="M56 529h170v-529h-170v529zM-21 622l114 143h97l113 -142l-63 -47l-97 84l-96 -84z" />
    <glyph glyph-name="idieresis" unicode="&#xef;" horiz-adv-x="280" 
d="M56 529h170v-529h-170v529zM170 660c0 41 30 72 81 72c55 0 82 -29 82 -72c0 -41 -33 -70 -81 -70c-53 0 -82 27 -82 70zM-52 660c0 41 33 72 82 72c53 0 81 -29 81 -72c0 -41 -32 -70 -80 -70c-53 0 -83 27 -83 70z" />
    <glyph glyph-name="eth" unicode="&#xf0;" horiz-adv-x="568" 
d="M533 305c0 -201 -92 -318 -264 -318c-131 0 -238 72 -238 231c0 70 18 126 54 168c37 42 85 63 145 63c56 0 105 -21 148 -62c-27 143 -123 194 -263 216l39 121c72 -7 135 -24 189 -52l84 65l81 -95l-65 -50c60 -71 90 -167 90 -287zM277 123c67 0 98 56 97 157
c-23 27 -60 48 -100 48c-52 0 -86 -41 -86 -105c0 -67 33 -100 89 -100z" />
    <glyph glyph-name="ntilde" unicode="&#xf1;" horiz-adv-x="591" 
d="M51 0v529h140l15 -63c39 43 98 75 169 75c104 0 169 -64 169 -179v-362h-170v307c0 65 -22 93 -66 93c-36 0 -70 -21 -87 -41v-359h-170zM400 726l70 -28c-16 -67 -40 -105 -95 -105c-17 0 -41 5 -72 16s-50 17 -57 17c-16 0 -26 -9 -39 -38l-73 28c17 64 50 106 97 106
c19 0 43 -6 72 -17s48 -17 57 -17c17 0 25 6 40 38z" />
    <glyph glyph-name="ograve" unicode="&#xf2;" horiz-adv-x="617" 
d="M210 265c0 -93 33 -139 99 -139c65 0 98 46 98 139c0 96 -37 139 -98 139s-99 -46 -99 -139zM31 261c0 188 125 280 280 280s275 -92 275 -276c0 -185 -124 -278 -285 -278c-168 0 -270 97 -270 274zM188 701l80 94l159 -143l-65 -77z" />
    <glyph glyph-name="oacute" unicode="&#xf3;" horiz-adv-x="617" 
d="M210 265c0 -93 33 -139 99 -139c65 0 98 46 98 139c0 96 -37 139 -98 139s-99 -46 -99 -139zM31 261c0 188 125 280 280 280s275 -92 275 -276c0 -185 -124 -278 -285 -278c-168 0 -270 97 -270 274zM257 575l-65 74l164 150l78 -95z" />
    <glyph glyph-name="ocircumflex" unicode="&#xf4;" horiz-adv-x="617" 
d="M210 265c0 -93 33 -139 99 -139c65 0 98 46 98 139c0 96 -37 139 -98 139s-99 -46 -99 -139zM31 261c0 188 125 280 280 280s275 -92 275 -276c0 -185 -124 -278 -285 -278c-168 0 -270 97 -270 274zM144 622l114 143h97l113 -142l-63 -47l-97 84l-96 -84z" />
    <glyph glyph-name="otilde" unicode="&#xf5;" horiz-adv-x="617" 
d="M210 265c0 -93 33 -139 99 -139c65 0 98 46 98 139c0 96 -37 139 -98 139s-99 -46 -99 -139zM31 261c0 188 125 280 280 280s275 -92 275 -276c0 -185 -124 -278 -285 -278c-168 0 -270 97 -270 274zM406 726l70 -28c-16 -67 -40 -105 -95 -105c-17 0 -41 5 -72 16
s-50 17 -57 17c-16 0 -26 -9 -39 -38l-73 28c17 64 50 106 97 106c19 0 43 -6 72 -17s48 -17 57 -17c17 0 25 6 40 38z" />
    <glyph glyph-name="odieresis" unicode="&#xf6;" horiz-adv-x="617" 
d="M210 265c0 -93 33 -139 99 -139c65 0 98 46 98 139c0 96 -37 139 -98 139s-99 -46 -99 -139zM31 261c0 188 125 280 280 280s275 -92 275 -276c0 -185 -124 -278 -285 -278c-168 0 -270 97 -270 274zM335 660c0 41 30 72 81 72c55 0 82 -29 82 -72c0 -41 -33 -70 -81 -70
c-53 0 -82 27 -82 70zM113 660c0 41 33 72 82 72c53 0 81 -29 81 -72c0 -41 -32 -70 -80 -70c-53 0 -83 27 -83 70z" />
    <glyph glyph-name="oslash" unicode="&#xf8;" horiz-adv-x="617" 
d="M31 261c0 188 125 280 280 280c9 0 23 -1 40 -2l21 57h119l-33 -89c80 -43 128 -126 128 -242c0 -186 -124 -278 -285 -278c-9 0 -21 1 -37 2l-25 -69h-118l36 98c-80 43 -126 124 -126 243zM407 265c0 29 -4 55 -11 76l-80 -215c61 3 91 50 91 139zM210 265
c0 -32 3 -58 10 -77l80 216c-56 -4 -90 -51 -90 -139z" />
    <glyph glyph-name="ugrave" unicode="&#xf9;" horiz-adv-x="586" 
d="M535 529v-529h-136l-18 63c-44 -48 -93 -76 -162 -76c-115 0 -172 60 -172 180v362h171v-320c0 -56 17 -83 62 -83c35 0 63 13 86 39v364h169zM171 701l80 94l159 -143l-65 -77z" />
    <glyph glyph-name="uacute" unicode="&#xfa;" horiz-adv-x="586" 
d="M535 529v-529h-136l-18 63c-44 -48 -93 -76 -162 -76c-115 0 -172 60 -172 180v362h171v-320c0 -56 17 -83 62 -83c35 0 63 13 86 39v364h169zM245 575l-65 74l164 150l78 -95z" />
    <glyph glyph-name="ucircumflex" unicode="&#xfb;" horiz-adv-x="586" 
d="M535 529v-529h-136l-18 63c-44 -48 -93 -76 -162 -76c-115 0 -172 60 -172 180v362h171v-320c0 -56 17 -83 62 -83c35 0 63 13 86 39v364h169zM130 622l114 143h97l113 -142l-63 -47l-97 84l-96 -84z" />
    <glyph glyph-name="udieresis" unicode="&#xfc;" horiz-adv-x="586" 
d="M535 529v-529h-136l-18 63c-44 -48 -93 -76 -162 -76c-115 0 -172 60 -172 180v362h171v-320c0 -56 17 -83 62 -83c35 0 63 13 86 39v364h169zM321 660c0 41 30 72 81 72c55 0 82 -29 82 -72c0 -41 -33 -70 -81 -70c-53 0 -82 27 -82 70zM99 660c0 41 33 72 82 72
c53 0 81 -29 81 -72c0 -41 -32 -70 -80 -70c-53 0 -83 27 -83 70z" />
    <glyph glyph-name="yacute" unicode="&#xfd;" horiz-adv-x="561" 
d="M284 165l100 364h169l-182 -501l-28 -73c-6 -17 -14 -35 -25 -56c-10 -21 -20 -37 -29 -46c-28 -33 -74 -61 -138 -57c-36 0 -73 4 -111 13l12 118c34 -4 59 -6 74 -6c37 0 57 11 70 60l4 14l-192 534h177zM234 575l-65 74l164 150l78 -95z" />
    <glyph glyph-name="thorn" unicode="&#xfe;" horiz-adv-x="620" 
d="M221 361v-202c25 -29 55 -43 88 -43c64 0 98 49 98 146c0 100 -31 150 -92 150c-35 0 -66 -17 -94 -51zM221 44v-244h-170v920h166v-252c41 45 100 73 167 73c120 0 202 -92 202 -273c0 -179 -76 -280 -220 -280c-56 0 -104 19 -145 56z" />
    <glyph glyph-name="ydieresis" unicode="&#xff;" horiz-adv-x="561" 
d="M284 165l100 364h169l-182 -501l-28 -73c-6 -17 -14 -35 -25 -56c-10 -21 -20 -37 -29 -46c-28 -33 -74 -61 -138 -57c-36 0 -73 4 -111 13l12 118c34 -4 59 -6 74 -6c37 0 57 11 70 60l4 14l-192 534h177zM311 660c0 41 30 72 81 72c55 0 82 -29 82 -72
c0 -41 -33 -70 -81 -70c-53 0 -82 27 -82 70zM89 660c0 41 33 72 82 72c53 0 81 -29 81 -72c0 -41 -32 -70 -80 -70c-53 0 -83 27 -83 70z" />
    <glyph glyph-name="Amacron" unicode="&#x100;" horiz-adv-x="704" 
d="M7 0l256 720h177l257 -720h-190l-40 132h-230l-40 -132h-190zM351 518l-68 -237h137zM500 783h-289v103h289v-103z" />
    <glyph glyph-name="amacron" unicode="&#x101;" horiz-adv-x="553" 
d="M336 187v24c-17 3 -34 5 -49 5c-61 0 -92 -21 -92 -63c0 -32 21 -50 62 -50c45 0 79 36 79 84zM506 340v-340h-135l-15 62c-37 -50 -91 -75 -161 -75c-101 0 -167 55 -167 158c0 99 78 167 239 167c27 0 50 -1 69 -4v29c0 49 -25 73 -75 73c-55 0 -95 -15 -154 -46
l-53 101c67 48 148 76 231 76c147 0 221 -62 221 -201zM134 602v103h289v-103h-289z" />
    <glyph glyph-name="Abreve" unicode="&#x102;" horiz-adv-x="704" 
d="M7 0l256 720h177l257 -720h-190l-40 132h-230l-40 -132h-190zM351 518l-68 -237h137zM356 847c48 0 64 17 71 64l94 -14c-8 -88 -61 -132 -165 -132c-107 0 -155 39 -168 132l97 14c8 -45 26 -64 71 -64z" />
    <glyph glyph-name="abreve" unicode="&#x103;" horiz-adv-x="553" 
d="M336 187v24c-17 3 -34 5 -49 5c-61 0 -92 -21 -92 -63c0 -32 21 -50 62 -50c45 0 79 36 79 84zM506 340v-340h-135l-15 62c-37 -50 -91 -75 -161 -75c-101 0 -167 55 -167 158c0 99 78 167 239 167c27 0 50 -1 69 -4v29c0 49 -25 73 -75 73c-55 0 -95 -15 -154 -46
l-53 101c67 48 148 76 231 76c147 0 221 -62 221 -201zM271 673c48 0 64 22 71 71l94 -14c-8 -93 -63 -139 -165 -139c-105 0 -155 44 -168 139l97 15c8 -51 26 -72 71 -72z" />
    <glyph glyph-name="Aogonek" unicode="&#x104;" horiz-adv-x="704" 
d="M7 0l256 720h177l257 -720c-60 -37 -97 -86 -97 -117c0 -19 10 -28 29 -28c13 0 30 4 53 13l21 -70c-29 -17 -75 -32 -114 -32c-70 0 -105 28 -105 85c0 51 28 100 83 149h-60l-40 132h-230l-40 -132h-190zM351 518l-68 -237h137z" />
    <glyph glyph-name="aogonek" unicode="&#x105;" horiz-adv-x="553" 
d="M506 340v-340c-52 -40 -82 -86 -82 -117c0 -19 10 -28 29 -28c13 0 30 4 53 13l21 -70c-29 -17 -75 -32 -114 -32c-70 0 -105 28 -105 85c0 51 28 100 83 149h-18l-19 66c-36 -48 -94 -79 -159 -79c-101 0 -167 55 -167 158c0 97 76 162 239 162c27 0 50 -1 69 -4v37
c0 49 -26 73 -79 73c-56 0 -95 -13 -151 -42l-52 97c59 44 148 73 231 73c147 0 221 -62 221 -201zM336 173v41c-13 3 -30 5 -49 5c-61 0 -92 -22 -92 -66c0 -32 21 -52 60 -52c45 0 81 29 81 72z" />
    <glyph glyph-name="Cacute" unicode="&#x106;" horiz-adv-x="683" 
d="M581 224l79 -120c-88 -78 -186 -117 -295 -117c-216 0 -327 152 -327 371c0 215 117 374 333 374c158 0 280 -87 290 -272h-178c-7 57 -28 112 -109 112c-92 0 -147 -73 -147 -213c0 -141 58 -212 157 -212c75 0 134 28 197 77zM295 747l-46 79l184 113l57 -103z" />
    <glyph glyph-name="cacute" unicode="&#x107;" horiz-adv-x="553" 
d="M476 167l45 -103c-65 -51 -141 -77 -228 -77c-153 0 -262 97 -262 275c0 83 24 150 73 201c49 52 115 78 196 78c144 0 230 -77 231 -222h-141c-4 57 -31 85 -82 85c-65 0 -98 -45 -98 -136c0 -92 41 -147 114 -147c44 0 95 15 152 46zM244 575l-65 74l164 150l78 -95z
" />
    <glyph glyph-name="Ccircumflex" unicode="&#x108;" horiz-adv-x="683" 
d="M581 224l79 -120c-88 -78 -186 -117 -295 -117c-216 0 -327 152 -327 371c0 215 117 374 333 374c158 0 280 -87 290 -272h-178c-7 57 -28 112 -109 112c-92 0 -147 -73 -147 -213c0 -141 58 -212 157 -212c75 0 134 28 197 77zM199 808l109 117h97l111 -119l-61 -50
l-97 64l-96 -65z" />
    <glyph glyph-name="ccircumflex" unicode="&#x109;" horiz-adv-x="553" 
d="M476 167l45 -103c-65 -51 -141 -77 -228 -77c-153 0 -262 97 -262 275c0 83 24 150 73 201c49 52 115 78 196 78c144 0 230 -77 231 -222h-141c-4 57 -31 85 -82 85c-65 0 -98 -45 -98 -136c0 -92 41 -147 114 -147c44 0 95 15 152 46zM124 622l114 143h97l113 -142
l-63 -47l-97 84l-96 -84z" />
    <glyph glyph-name="Cdotaccent" unicode="&#x10a;" horiz-adv-x="683" 
d="M581 224l79 -120c-88 -78 -186 -117 -295 -117c-216 0 -327 152 -327 371c0 215 117 374 333 374c158 0 280 -87 290 -272h-178c-7 57 -28 112 -109 112c-92 0 -147 -73 -147 -213c0 -141 58 -212 157 -212c75 0 134 28 197 77zM270 851c0 53 41 83 98 83
c60 0 99 -30 99 -83c0 -51 -39 -80 -99 -80c-56 0 -98 29 -98 80z" />
    <glyph glyph-name="cdotaccent" unicode="&#x10b;" horiz-adv-x="553" 
d="M476 167l45 -103c-65 -51 -141 -77 -228 -77c-153 0 -262 97 -262 275c0 83 24 150 73 201c49 52 115 78 196 78c144 0 230 -77 231 -222h-141c-4 57 -31 85 -82 85c-65 0 -98 -45 -98 -136c0 -92 41 -147 114 -147c44 0 95 15 152 46zM199 660c0 53 41 83 98 83
c60 0 99 -30 99 -83c0 -51 -39 -80 -99 -80c-56 0 -98 29 -98 80z" />
    <glyph glyph-name="Ccaron" unicode="&#x10c;" horiz-adv-x="683" 
d="M581 224l79 -120c-88 -78 -186 -117 -295 -117c-216 0 -327 152 -327 371c0 215 117 374 333 374c158 0 280 -87 290 -272h-178c-7 57 -28 112 -109 112c-92 0 -147 -73 -147 -213c0 -141 58 -212 157 -212c75 0 134 28 197 77zM532 879l-109 -117h-97l-111 119l61 50
l97 -64l96 65z" />
    <glyph glyph-name="ccaron" unicode="&#x10d;" horiz-adv-x="553" 
d="M476 167l45 -103c-65 -51 -141 -77 -228 -77c-153 0 -262 97 -262 275c0 83 24 150 73 201c49 52 115 78 196 78c144 0 230 -77 231 -222h-141c-4 57 -31 85 -82 85c-65 0 -98 -45 -98 -136c0 -92 41 -147 114 -147c44 0 95 15 152 46zM455 724l-114 -143h-97l-113 142
l66 49l96 -86l96 84z" />
    <glyph glyph-name="Dcaron" unicode="&#x10e;" horiz-adv-x="717" 
d="M319 564h-84v-409h84c120 0 175 66 175 205c0 136 -58 204 -175 204zM58 0v720h261c240 0 360 -141 360 -348c0 -257 -123 -372 -387 -372h-234zM459 879l-109 -117h-97l-111 119l61 50l97 -64l96 65z" />
    <glyph glyph-name="dcaron" unicode="&#x10f;" horiz-adv-x="733" 
d="M567 0h-149l-10 64c-32 -45 -86 -77 -159 -77c-144 0 -218 99 -218 276c0 186 103 278 225 278c55 0 102 -19 142 -58v237h169v-720zM397 171v189c-21 21 -53 41 -92 41c-63 0 -95 -45 -95 -136c0 -93 32 -139 97 -139c35 0 65 15 90 45zM706 514h-108l28 206h135z" />
    <glyph glyph-name="Dcroat" unicode="&#x110;" horiz-adv-x="763" 
d="M104 295h-72v119h72v306h261c235 0 360 -137 360 -362c0 -245 -124 -358 -387 -358h-234v295zM365 559h-84v-145h111v-119h-111v-134h84c120 0 174 61 174 197c0 135 -55 201 -174 201z" />
    <glyph glyph-name="dcroat" unicode="&#x111;" horiz-adv-x="615" 
d="M248 569v90h150v61h169v-61h55v-90h-55v-569h-149l-10 64c-28 -39 -79 -77 -159 -77c-141 0 -218 93 -218 262c0 181 103 262 215 262c63 0 117 -23 152 -58v116h-150zM397 171v159c-17 19 -49 41 -92 41c-60 0 -95 -33 -95 -120c0 -75 24 -125 97 -125c41 0 71 24 90 45
z" />
    <glyph glyph-name="Emacron" unicode="&#x112;" horiz-adv-x="598" 
d="M561 0h-503v720h499v-156h-322v-129h292v-146h-292v-134h326v-155zM445 784h-289v103h289v-103z" />
    <glyph glyph-name="emacron" unicode="&#x113;" horiz-adv-x="568" 
d="M476 160l44 -106c-68 -45 -142 -67 -223 -67c-168 0 -266 101 -266 273c0 85 24 153 72 204c49 51 114 77 196 77c156 0 241 -83 241 -250c0 -38 -1 -63 -3 -75h-326c8 -56 40 -95 109 -95c48 0 89 11 156 39zM211 319h168c0 64 -26 96 -78 96c-64 0 -90 -57 -90 -96z
M162 602v103h289v-103h-289z" />
    <glyph glyph-name="Ebreve" unicode="&#x114;" horiz-adv-x="598" 
d="M561 0h-503v720h499v-156h-322v-129h292v-146h-292v-134h326v-155zM306 848c48 0 64 17 71 64l94 -14c-8 -88 -61 -132 -165 -132c-107 0 -155 39 -168 132l97 14c8 -45 26 -64 71 -64z" />
    <glyph glyph-name="ebreve" unicode="&#x115;" horiz-adv-x="568" 
d="M476 160l44 -106c-68 -45 -142 -67 -223 -67c-168 0 -266 101 -266 273c0 85 24 153 72 204c49 51 114 77 196 77c156 0 241 -83 241 -250c0 -38 -1 -63 -3 -75h-326c8 -56 40 -95 109 -95c48 0 89 11 156 39zM211 319h168c0 64 -26 96 -78 96c-64 0 -90 -57 -90 -96z
M305 673c48 0 64 22 71 71l94 -14c-8 -93 -63 -139 -165 -139c-105 0 -155 44 -168 139l97 15c8 -51 26 -72 71 -72z" />
    <glyph glyph-name="Edotaccent" unicode="&#x116;" horiz-adv-x="598" 
d="M561 0h-503v720h499v-156h-322v-129h292v-146h-292v-134h326v-155zM202 852c0 53 41 83 98 83c60 0 99 -30 99 -83c0 -51 -39 -80 -99 -80c-56 0 -98 29 -98 80z" />
    <glyph glyph-name="edotaccent" unicode="&#x117;" horiz-adv-x="568" 
d="M476 160l44 -106c-68 -45 -142 -67 -223 -67c-168 0 -266 101 -266 273c0 85 24 153 72 204c49 51 114 77 196 77c156 0 241 -83 241 -250c0 -38 -1 -63 -3 -75h-326c8 -56 40 -95 109 -95c48 0 89 11 156 39zM211 319h168c0 64 -26 96 -78 96c-64 0 -90 -57 -90 -96z
M203 660c0 53 41 83 98 83c60 0 99 -30 99 -83c0 -51 -39 -80 -99 -80c-56 0 -98 29 -98 80z" />
    <glyph glyph-name="Eogonek" unicode="&#x118;" horiz-adv-x="598" 
d="M416 0h-358v720h499v-156h-322v-129h292v-146h-292v-134h326v-155h-43c-41 -43 -69 -89 -69 -117c0 -19 10 -28 29 -28c13 0 30 4 53 13l21 -70c-29 -17 -75 -32 -114 -32c-70 0 -105 28 -105 85c0 51 28 100 83 149z" />
    <glyph glyph-name="eogonek" unicode="&#x119;" horiz-adv-x="568" 
d="M476 160l44 -106l-80 -49c-53 -33 -82 -86 -82 -122c0 -19 10 -28 29 -28c13 0 30 4 53 13l21 -70c-29 -17 -75 -32 -114 -32c-70 0 -105 28 -105 85c0 45 23 91 69 136h-14c-168 0 -266 101 -266 273c0 85 24 153 72 204c49 51 114 77 196 77c156 0 241 -83 241 -250
c0 -36 -1 -60 -3 -72h-326c8 -56 41 -98 109 -98c48 0 89 11 156 39zM211 317h168c-1 63 -22 98 -78 98c-64 0 -90 -58 -90 -98z" />
    <glyph glyph-name="Ecaron" unicode="&#x11a;" horiz-adv-x="598" 
d="M561 0h-503v720h499v-156h-322v-129h292v-146h-292v-134h326v-155zM467 880l-109 -117h-97l-111 119l61 50l97 -64l96 65z" />
    <glyph glyph-name="ecaron" unicode="&#x11b;" horiz-adv-x="568" 
d="M476 160l44 -106c-68 -45 -142 -67 -223 -67c-168 0 -266 101 -266 273c0 85 24 153 72 204c49 51 114 77 196 77c156 0 241 -83 241 -250c0 -38 -1 -63 -3 -75h-326c8 -56 40 -95 109 -95c48 0 89 11 156 39zM211 319h168c0 64 -26 96 -78 96c-64 0 -90 -57 -90 -96z
M462 724l-114 -143h-97l-113 142l66 49l96 -86l96 84z" />
    <glyph glyph-name="Gcircumflex" unicode="&#x11c;" horiz-adv-x="715" 
d="M498 264h-103v133h274v-298c-71 -75 -168 -112 -293 -112c-256 0 -338 174 -338 370c0 218 105 375 337 375c203 0 281 -108 294 -251h-183c-7 61 -43 92 -108 92c-99 0 -154 -77 -154 -213c0 -139 53 -217 168 -217c44 0 79 10 106 29v92zM216 808l109 117h97l111 -119
l-61 -50l-97 64l-96 -65z" />
    <glyph glyph-name="gcircumflex" unicode="&#x11d;" horiz-adv-x="619" 
d="M428 529h139v-490c0 -186 -83 -249 -264 -249c-71 0 -137 11 -197 34l25 119c3 0 27 -6 30 -6c4 -1 26 -6 30 -6c18 -4 42 -9 63 -9c11 0 23 -1 35 -1c81 0 115 29 115 114v31c-37 -47 -92 -71 -155 -71c-136 0 -218 91 -218 260c0 176 83 286 228 286
c65 0 120 -31 157 -71zM397 173v186c-19 21 -58 42 -95 42c-59 0 -92 -45 -92 -136c0 -89 32 -133 96 -133c35 0 65 14 91 41zM143 622l114 143h97l113 -142l-63 -47l-97 84l-96 -84z" />
    <glyph glyph-name="Gbreve" unicode="&#x11e;" horiz-adv-x="715" 
d="M498 264h-103v133h274v-298c-71 -75 -168 -112 -293 -112c-256 0 -338 174 -338 370c0 218 105 375 337 375c203 0 281 -108 294 -251h-183c-7 61 -43 92 -108 92c-99 0 -154 -77 -154 -213c0 -139 53 -217 168 -217c44 0 79 10 106 29v92zM371 847c48 0 64 17 71 64
l94 -14c-8 -88 -61 -132 -165 -132c-107 0 -155 39 -168 132l97 14c8 -45 26 -64 71 -64z" />
    <glyph glyph-name="gbreve" unicode="&#x11f;" horiz-adv-x="619" 
d="M428 529h139v-490c0 -186 -83 -249 -264 -249c-71 0 -137 11 -197 34l25 119c3 0 27 -6 30 -6c4 -1 26 -6 30 -6c18 -4 42 -9 63 -9c11 0 23 -1 35 -1c81 0 115 29 115 114v31c-37 -47 -92 -71 -155 -71c-136 0 -218 91 -218 260c0 176 83 286 228 286
c65 0 120 -31 157 -71zM397 173v186c-19 21 -58 42 -95 42c-59 0 -92 -45 -92 -136c0 -89 32 -133 96 -133c35 0 65 14 91 41zM304 673c48 0 64 22 71 71l94 -14c-8 -93 -63 -139 -165 -139c-105 0 -155 44 -168 139l97 15c8 -51 26 -72 71 -72z" />
    <glyph glyph-name="Gdotaccent" unicode="&#x120;" horiz-adv-x="715" 
d="M498 264h-103v133h274v-298c-71 -75 -168 -112 -293 -112c-256 0 -338 174 -338 370c0 218 105 375 337 375c203 0 281 -108 294 -251h-183c-7 61 -43 92 -108 92c-99 0 -154 -77 -154 -213c0 -139 53 -217 168 -217c44 0 79 10 106 29v92zM280 851c0 53 41 83 98 83
c60 0 99 -30 99 -83c0 -51 -39 -80 -99 -80c-56 0 -98 29 -98 80z" />
    <glyph glyph-name="gdotaccent" unicode="&#x121;" horiz-adv-x="619" 
d="M428 529h139v-490c0 -186 -83 -249 -264 -249c-71 0 -137 11 -197 34l25 119c3 0 27 -6 30 -6c4 -1 26 -6 30 -6c18 -4 42 -9 63 -9c11 0 23 -1 35 -1c81 0 115 29 115 114v31c-37 -47 -92 -71 -155 -71c-136 0 -218 91 -218 260c0 176 83 286 228 286
c65 0 120 -31 157 -71zM397 173v186c-19 21 -58 42 -95 42c-59 0 -92 -45 -92 -136c0 -89 32 -133 96 -133c35 0 65 14 91 41zM204 660c0 53 41 83 98 83c60 0 99 -30 99 -83c0 -51 -39 -80 -99 -80c-56 0 -98 29 -98 80z" />
    <glyph glyph-name="Gcommaaccent" unicode="&#x122;" horiz-adv-x="699" 
d="M498 264h-103v133h274v-298c-71 -75 -168 -112 -293 -112c-256 0 -338 174 -338 370c0 218 105 375 337 375c203 0 281 -108 294 -251h-183c-7 61 -43 92 -108 92c-99 0 -154 -77 -154 -213c0 -139 53 -217 168 -217c44 0 79 10 106 29v92zM379 -266l-104 30l41 183
l128 -33z" />
    <glyph glyph-name="gcommaaccent" unicode="&#x123;" horiz-adv-x="619" 
d="M428 529h139v-490c0 -186 -83 -249 -264 -249c-71 0 -137 11 -197 34l25 119c3 0 27 -6 30 -6c4 -1 26 -6 30 -6c18 -4 42 -9 63 -9c11 0 23 -1 35 -1c81 0 115 29 115 114v31c-37 -47 -92 -71 -155 -71c-136 0 -218 91 -218 260c0 176 83 286 228 286
c65 0 120 -31 157 -71zM397 173v186c-19 21 -58 42 -95 42c-59 0 -92 -45 -92 -136c0 -89 32 -133 96 -133c35 0 65 14 91 41zM269 791l109 -29l-42 -185l-132 33z" />
    <glyph glyph-name="Hcircumflex" unicode="&#x124;" horiz-adv-x="717" 
d="M235 0h-177v720h177v-280h247v280h177v-720h-177v280h-247v-280zM203 808l109 117h97l111 -119l-61 -50l-97 64l-96 -65z" />
    <glyph glyph-name="hcircumflex" unicode="&#x125;" horiz-adv-x="591" 
d="M51 0v720h170v-246c40 40 96 67 156 67c104 0 167 -66 167 -181v-360h-170v316c0 57 -16 84 -67 84c-32 0 -66 -20 -86 -41v-359h-170zM-23 802l109 117h97l111 -119l-61 -50l-97 64l-96 -65z" />
    <glyph glyph-name="Hbar" unicode="&#x126;" horiz-adv-x="735" 
d="M67 523h-61v103h61v94h177v-94h247v94h177v-94h59v-103h-59v-523h-177v277h-247v-277h-177v523zM244 523v-86h247v86h-247z" />
    <glyph glyph-name="hbar" unicode="&#x127;" horiz-adv-x="591" 
d="M51 659v61h170v-61h143v-90h-143v-135c40 40 96 67 156 67c104 0 167 -66 167 -181v-320h-170v280c0 61 -15 94 -67 94c-28 0 -57 -17 -86 -51v-323h-170v569h-61v90h61z" />
    <glyph glyph-name="Itilde" unicode="&#x128;" horiz-adv-x="293" 
d="M235 0h-177v720h177v-720zM253 910l70 -28c-16 -67 -40 -105 -95 -105c-17 0 -41 5 -72 16s-50 17 -57 17c-16 0 -26 -9 -39 -38l-73 28c17 64 50 106 97 106c19 0 43 -6 72 -17s48 -17 57 -17c17 0 25 6 40 38z" />
    <glyph glyph-name="itilde" unicode="&#x129;" horiz-adv-x="280" 
d="M56 529h170v-529h-170v529zM240 726l70 -28c-16 -67 -40 -105 -95 -105c-17 0 -41 5 -72 16s-50 17 -57 17c-16 0 -26 -9 -39 -38l-73 28c17 64 50 106 97 106c19 0 43 -6 72 -17s48 -17 57 -17c17 0 25 6 40 38z" />
    <glyph glyph-name="Imacron" unicode="&#x12a;" horiz-adv-x="293" 
d="M235 0h-177v720h177v-720zM288 783h-289v103h289v-103z" />
    <glyph glyph-name="imacron" unicode="&#x12b;" horiz-adv-x="280" 
d="M56 529h170v-529h-170v529zM-3 602v103h289v-103h-289z" />
    <glyph glyph-name="Ibreve" unicode="&#x12c;" horiz-adv-x="293" 
d="M235 0h-177v720h177v-720zM144 847c48 0 64 17 71 64l94 -14c-8 -88 -61 -132 -165 -132c-107 0 -155 39 -168 132l97 14c8 -45 26 -64 71 -64z" />
    <glyph glyph-name="ibreve" unicode="&#x12d;" horiz-adv-x="280" 
d="M56 529h170v-529h-170v529zM141 673c48 0 64 22 71 71l94 -14c-8 -93 -63 -139 -165 -139c-105 0 -155 44 -168 139l97 15c8 -51 26 -72 71 -72z" />
    <glyph glyph-name="Iogonek" unicode="&#x12e;" horiz-adv-x="293" 
d="M104 0h-46v720h177v-720c-65 -40 -98 -85 -98 -117c0 -19 10 -28 29 -28c13 0 30 4 53 13l21 -70c-29 -17 -75 -32 -114 -32c-70 0 -105 28 -105 85c0 51 28 100 83 149z" />
    <glyph glyph-name="iogonek" unicode="&#x12f;" horiz-adv-x="282" 
d="M56 529h170v-529c-61 -37 -97 -85 -97 -117c0 -19 10 -28 29 -28c13 0 30 4 53 13l21 -70c-29 -17 -75 -32 -114 -32c-70 0 -105 28 -105 85c0 51 28 100 83 149h-40v529zM46 660c0 53 41 83 98 83c60 0 99 -30 99 -83c0 -51 -39 -80 -99 -80c-56 0 -98 29 -98 80z" />
    <glyph glyph-name="Idotaccent" unicode="&#x130;" horiz-adv-x="293" 
d="M235 0h-177v720h177v-720zM45 851c0 53 41 83 98 83c60 0 99 -30 99 -83c0 -51 -39 -80 -99 -80c-56 0 -98 29 -98 80z" />
    <glyph glyph-name="dotlessi" unicode="&#x131;" horiz-adv-x="281" 
d="M56 529h170v-529h-170v529z" />
    <glyph glyph-name="IJ" unicode="&#x132;" horiz-adv-x="721" 
d="M235 0h-177v720h177v-720zM491 720h177v-519c0 -145 -67 -214 -200 -214c-64 0 -114 7 -151 21l12 141c33 -7 62 -11 87 -11c57 0 75 21 75 88v494z" />
    <glyph glyph-name="ij" unicode="&#x133;" horiz-adv-x="560" 
d="M46 660c0 53 41 83 98 83c60 0 99 -30 99 -83c0 -51 -39 -80 -99 -80c-56 0 -98 29 -98 80zM56 529h170v-529h-170v529zM323 660c0 53 41 83 98 83c60 0 99 -30 99 -83c0 -51 -39 -80 -99 -80c-56 0 -98 29 -98 80zM336 529h169v-565c0 -111 -51 -168 -164 -168
c-39 0 -72 4 -99 13l9 117c16 -3 30 -5 42 -5c31 0 43 12 43 52v556z" />
    <glyph glyph-name="Jcircumflex" unicode="&#x134;" horiz-adv-x="423" 
d="M193 720h177v-519c0 -145 -67 -214 -200 -214c-64 0 -114 7 -151 21l12 141c33 -7 62 -11 87 -11c57 0 75 21 75 88v494zM122 808l109 117h97l111 -119l-61 -50l-97 64l-96 -65z" />
    <glyph glyph-name="jcircumflex" unicode="&#x135;" horiz-adv-x="279" 
d="M55 529h169v-565c0 -111 -51 -168 -164 -168c-39 0 -72 4 -99 13l9 117c16 -3 30 -5 42 -5c31 0 43 12 43 52v556zM-29 622l114 143h97l113 -142l-63 -47l-97 84l-96 -84z" />
    <glyph glyph-name="Kcommaaccent" unicode="&#x136;" horiz-adv-x="687" 
d="M235 0h-177v720h177v-280h77l152 280h196l-197 -350l218 -370h-204l-168 295h-74v-295zM344 -266l-104 30l41 183l128 -33z" />
    <glyph glyph-name="kcommaaccent" unicode="&#x137;" horiz-adv-x="578" 
d="M51 720h170v-361h43l105 170h184l-156 -235l180 -294h-197l-128 222h-31v-222h-170v720zM298 -266l-104 30l41 183l128 -33z" />
    <glyph glyph-name="kgreenlandic" unicode="&#x138;" horiz-adv-x="578" 
d="M45 529h170v-181h35l123 181h175l-166 -245l193 -284h-177l-152 216h-31v-216h-170v529z" />
    <glyph glyph-name="Lacute" unicode="&#x139;" horiz-adv-x="560" 
d="M58 0v720h177v-565h299v-155h-476zM74 747l-46 79l184 113l57 -103z" />
    <glyph glyph-name="lacute" unicode="&#x13a;" horiz-adv-x="272" 
d="M221 720v-720h-170v720h170zM56 747l-46 79l184 113l57 -103z" />
    <glyph glyph-name="Lcommaaccent" unicode="&#x13b;" horiz-adv-x="560" 
d="M58 0v720h177v-565h299v-155h-476zM283 -266l-104 30l41 183l128 -33z" />
    <glyph glyph-name="lcommaaccent" unicode="&#x13c;" horiz-adv-x="272" 
d="M221 720v-720h-170v720h170zM128 -266l-104 30l41 183l128 -33z" />
    <glyph glyph-name="Lcaron" unicode="&#x13d;" horiz-adv-x="560" 
d="M58 0v720h177v-565h299v-155h-476zM419 514h-108l28 206h135z" />
    <glyph glyph-name="lcaron" unicode="&#x13e;" horiz-adv-x="399" 
d="M221 720v-720h-170v720h170zM372 514h-108l28 206h135z" />
    <glyph glyph-name="Ldot" unicode="&#x13f;" horiz-adv-x="560" 
d="M58 0v720h177v-565h299v-155h-476zM325 382c0 53 41 83 98 83c60 0 99 -30 99 -83c0 -51 -39 -80 -99 -80c-56 0 -98 29 -98 80z" />
    <glyph glyph-name="ldot" unicode="&#x140;" horiz-adv-x="444" 
d="M216 720v-720h-170v720h170zM255 351c0 53 41 83 98 83c60 0 99 -30 99 -83c0 -51 -39 -80 -99 -80c-56 0 -98 29 -98 80z" />
    <glyph glyph-name="Lslash" unicode="&#x141;" horiz-adv-x="560" 
d="M58 392v328h177v-270l19 6l154 60v-125l-152 -59l-21 -7v-170h299v-155h-476v267l-3 -1l-66 -26v126l67 26h2z" />
    <glyph glyph-name="lslash" unicode="&#x142;" horiz-adv-x="347" 
d="M89 269l-72 -32v128l72 32v323h170v-266l71 32v-128l-71 -32v-326h-170v269z" />
    <glyph glyph-name="Nacute" unicode="&#x143;" horiz-adv-x="724" 
d="M232 0h-174v720h154l279 -423v423h175v-720h-153l-281 414v-414zM297 747l-46 79l184 113l57 -103z" />
    <glyph glyph-name="nacute" unicode="&#x144;" horiz-adv-x="591" 
d="M51 0v529h140l15 -63c39 43 98 75 169 75c104 0 169 -64 169 -179v-362h-170v307c0 65 -22 93 -66 93c-36 0 -70 -21 -87 -41v-359h-170zM250 575l-65 74l164 150l78 -95z" />
    <glyph glyph-name="Ncommaaccent" unicode="&#x145;" horiz-adv-x="724" 
d="M232 0h-174v720h154l279 -423v423h175v-720h-153l-281 414v-414zM368 -266l-104 30l41 183l128 -33z" />
    <glyph glyph-name="ncommaaccent" unicode="&#x146;" horiz-adv-x="591" 
d="M51 0v529h140l15 -63c39 43 98 75 169 75c104 0 169 -64 169 -179v-362h-170v307c0 65 -22 93 -66 93c-36 0 -70 -21 -87 -41v-359h-170zM296 -266l-104 30l41 183l128 -33z" />
    <glyph glyph-name="Ncaron" unicode="&#x147;" horiz-adv-x="724" 
d="M232 0h-174v720h154l279 -423v423h175v-720h-153l-281 414v-414zM519 879l-109 -117h-97l-111 119l61 50l97 -64l96 65z" />
    <glyph glyph-name="ncaron" unicode="&#x148;" horiz-adv-x="591" 
d="M51 0v529h140l15 -63c39 43 98 75 169 75c104 0 169 -64 169 -179v-362h-170v307c0 65 -22 93 -66 93c-36 0 -70 -21 -87 -41v-359h-170zM458 724l-114 -143h-97l-113 142l66 49l96 -86l96 84z" />
    <glyph glyph-name="napostrophe" unicode="&#x149;" horiz-adv-x="644" 
d="M104 0v529h140l15 -63c39 43 98 75 169 75c104 0 169 -64 169 -179v-362h-170v307c0 65 -22 93 -66 93c-36 0 -70 -21 -87 -41v-359h-170zM-10 655c0 36 26 63 65 63c48 0 74 -35 74 -82c0 -69 -36 -114 -112 -141l-21 43c37 15 57 37 59 66c-5 -1 -10 -2 -13 -2
c-27 0 -52 24 -52 53z" />
    <glyph glyph-name="Eng" unicode="&#x14a;" horiz-adv-x="723" 
d="M232 0h-174v720h153l280 -434v434h174v-749c0 -112 -59 -175 -178 -175c-55 0 -99 6 -133 19l10 109c20 -7 43 -10 69 -10c43 0 62 22 62 73v38l-263 393v-418z" />
    <glyph glyph-name="eng" unicode="&#x14b;" horiz-adv-x="585" 
d="M51 0v529h140l15 -63c37 43 98 75 159 75c112 0 173 -67 173 -184v-393c0 -112 -49 -168 -164 -168c-39 0 -72 4 -99 13l10 109c16 -3 30 -5 41 -5c32 0 43 11 43 52v352c0 71 -17 97 -64 97c-12 0 -24 -3 -36 -9c-23 -12 -31 -22 -48 -41v-364h-170z" />
    <glyph glyph-name="Omacron" unicode="&#x14c;" horiz-adv-x="787" 
d="M224 361c0 -132 61 -214 169 -214c109 0 170 82 170 214c0 125 -62 210 -170 210s-169 -85 -169 -210zM38 361c0 113 32 203 96 270s150 101 259 101s196 -33 260 -100s96 -157 96 -271c0 -117 -32 -208 -96 -275c-63 -66 -150 -99 -260 -99c-109 0 -196 33 -260 100
c-63 67 -95 158 -95 274zM537 783h-289v103h289v-103z" />
    <glyph glyph-name="omacron" unicode="&#x14d;" horiz-adv-x="617" 
d="M210 265c0 -93 33 -139 99 -139c65 0 98 46 98 139c0 96 -37 139 -98 139s-99 -46 -99 -139zM31 261c0 188 125 280 280 280s275 -92 275 -276c0 -185 -124 -278 -285 -278c-168 0 -270 97 -270 274zM165 602v103h289v-103h-289z" />
    <glyph glyph-name="Obreve" unicode="&#x14e;" horiz-adv-x="787" 
d="M224 361c0 -132 61 -214 169 -214c109 0 170 82 170 214c0 125 -62 210 -170 210s-169 -85 -169 -210zM38 361c0 113 32 203 96 270s150 101 259 101s196 -33 260 -100s96 -157 96 -271c0 -117 -32 -208 -96 -275c-63 -66 -150 -99 -260 -99c-109 0 -196 33 -260 100
c-63 67 -95 158 -95 274zM393 847c48 0 64 17 71 64l94 -14c-8 -88 -61 -132 -165 -132c-107 0 -155 39 -168 132l97 14c8 -45 26 -64 71 -64z" />
    <glyph glyph-name="obreve" unicode="&#x14f;" horiz-adv-x="617" 
d="M210 265c0 -93 33 -139 99 -139c65 0 98 46 98 139c0 96 -37 139 -98 139s-99 -46 -99 -139zM31 261c0 188 125 280 280 280s275 -92 275 -276c0 -185 -124 -278 -285 -278c-168 0 -270 97 -270 274zM307 673c48 0 64 22 71 71l94 -14c-8 -93 -63 -139 -165 -139
c-105 0 -155 44 -168 139l97 15c8 -51 26 -72 71 -72z" />
    <glyph glyph-name="Ohungarumlaut" unicode="&#x150;" horiz-adv-x="787" 
d="M224 361c0 -132 61 -214 169 -214c109 0 170 82 170 214c0 125 -62 210 -170 210s-169 -85 -169 -210zM38 361c0 113 32 203 96 270s150 101 259 101s196 -33 260 -100s96 -157 96 -271c0 -117 -32 -208 -96 -275c-63 -66 -150 -99 -260 -99c-109 0 -196 33 -260 100
c-63 67 -95 158 -95 274zM239 798l113 167l88 -64l-133 -153zM407 803l119 147l80 -71l-136 -132z" />
    <glyph glyph-name="ohungarumlaut" unicode="&#x151;" horiz-adv-x="617" 
d="M210 265c0 -93 33 -139 99 -139c65 0 98 46 98 139c0 96 -37 139 -98 139s-99 -46 -99 -139zM31 261c0 188 125 280 280 280s275 -92 275 -276c0 -185 -124 -278 -285 -278c-168 0 -270 97 -270 274zM166 625l109 154l85 -57l-123 -144zM326 625l109 141l84 -59
l-126 -130z" />
    <glyph glyph-name="OE" unicode="&#x152;" horiz-adv-x="1099" 
d="M1062 0h-486v88c-40 -64 -122 -100 -222 -100c-96 0 -173 32 -230 97s-86 157 -86 277c0 119 30 210 91 274c61 65 141 97 240 97c91 0 167 -38 207 -98v85h482v-156h-322v-129h292v-146h-292v-134h326v-155zM224 362c0 -132 61 -214 169 -214c105 0 169 75 169 214
c0 135 -61 210 -169 210s-169 -85 -169 -210z" />
    <glyph glyph-name="oe" unicode="&#x153;" horiz-adv-x="935" 
d="M843 160l44 -106c-68 -45 -139 -67 -213 -67c-83 0 -147 28 -192 85c-49 -57 -115 -85 -198 -85c-152 0 -253 98 -253 274c0 188 125 280 268 280c82 0 145 -31 188 -93c35 51 103 93 188 93c148 0 232 -85 232 -250c0 -36 -1 -60 -3 -72h-326c8 -56 41 -98 109 -98
c48 0 89 11 156 39zM210 265c0 -93 33 -139 99 -139c65 0 98 46 98 139c0 96 -37 139 -98 139s-99 -46 -99 -139zM578 317h168c-1 63 -22 98 -78 98c-65 0 -90 -58 -90 -98z" />
    <glyph glyph-name="Racute" unicode="&#x154;" horiz-adv-x="670" 
d="M58 0v720h281c177 0 275 -90 275 -234c0 -91 -37 -157 -110 -199l149 -287h-192l-121 246c-17 -3 -36 -4 -56 -4h-49v-242h-177zM330 568h-95v-186h90c72 0 109 33 109 96c0 61 -33 90 -104 90zM231 747l-46 79l184 113l57 -103z" />
    <glyph glyph-name="racute" unicode="&#x155;" horiz-adv-x="379" 
d="M51 529h133l18 -71c27 48 69 83 114 83c19 0 37 -4 56 -12l-12 -152c-17 5 -35 8 -54 8c-31 0 -68 -23 -85 -47v-338h-170v529zM170 575l-65 74l164 150l78 -95z" />
    <glyph glyph-name="Rcommaaccent" unicode="&#x156;" horiz-adv-x="670" 
d="M58 0v720h281c177 0 275 -90 275 -234c0 -91 -37 -157 -110 -199l149 -287h-192l-121 246c-17 -3 -36 -4 -56 -4h-49v-242h-177zM330 568h-95v-186h90c72 0 109 33 109 96c0 61 -33 90 -104 90zM335 -266l-104 30l41 183l128 -33z" />
    <glyph glyph-name="rcommaaccent" unicode="&#x157;" horiz-adv-x="379" 
d="M51 529h133l18 -71c27 48 69 83 114 83c19 0 37 -4 56 -12l-12 -152c-17 5 -35 8 -54 8c-31 0 -68 -23 -85 -47v-338h-170v529zM127 -266l-104 30l41 183l128 -33z" />
    <glyph glyph-name="Rcaron" unicode="&#x158;" horiz-adv-x="670" 
d="M58 0v720h281c177 0 275 -90 275 -234c0 -91 -37 -157 -110 -199l149 -287h-192l-121 246c-17 -3 -36 -4 -56 -4h-49v-242h-177zM330 568h-95v-186h90c72 0 109 33 109 96c0 61 -33 90 -104 90zM458 879l-109 -117h-97l-111 119l61 50l97 -64l96 65z" />
    <glyph glyph-name="rcaron" unicode="&#x159;" horiz-adv-x="379" 
d="M51 529h133l18 -71c27 48 69 83 114 83c19 0 37 -4 56 -12l-12 -152c-17 5 -35 8 -54 8c-31 0 -68 -23 -85 -47v-338h-170v529zM376 724l-114 -143h-97l-113 142l66 49l96 -86l96 84z" />
    <glyph glyph-name="Sacute" unicode="&#x15a;" horiz-adv-x="618" 
d="M18 113l86 108c68 -53 145 -88 206 -88c55 0 87 26 87 69c0 21 -9 38 -28 51c-18 13 -55 27 -112 43c-149 43 -209 102 -209 215c0 152 118 221 264 221c96 0 187 -36 259 -100l-81 -108c-59 44 -117 66 -174 66c-53 0 -86 -20 -86 -60c0 -21 10 -38 30 -49
s62 -28 127 -49c1 -1 2 -1 3 -1c69 -23 118 -49 147 -80s44 -74 44 -130c0 -73 -24 -131 -73 -172c-48 -41 -113 -62 -196 -62c-117 0 -215 42 -294 126zM249 747l-46 79l184 113l57 -103z" />
    <glyph glyph-name="sacute" unicode="&#x15b;" horiz-adv-x="523" 
d="M20 84l69 94c25 -17 53 -32 84 -45c32 -12 58 -18 79 -18c35 0 53 11 53 34c0 27 -17 37 -90 54c-115 27 -167 72 -167 165c0 107 87 173 220 173c87 0 161 -28 222 -85l-70 -91c-58 34 -105 51 -141 51c-35 0 -52 -11 -52 -32c0 -11 6 -20 19 -27c13 -6 40 -15 81 -27
c57 -17 98 -38 123 -61s38 -57 38 -102c0 -115 -84 -180 -220 -180c-99 0 -189 38 -248 97zM216 575l-65 74l164 150l78 -95z" />
    <glyph glyph-name="Scircumflex" unicode="&#x15c;" horiz-adv-x="618" 
d="M18 113l86 108c68 -53 145 -88 206 -88c55 0 87 26 87 69c0 21 -9 38 -28 51c-18 13 -55 27 -112 43c-149 43 -209 102 -209 215c0 152 118 221 264 221c96 0 187 -36 259 -100l-81 -108c-59 44 -117 66 -174 66c-53 0 -86 -20 -86 -60c0 -21 10 -38 30 -49
s62 -28 127 -49c1 -1 2 -1 3 -1c69 -23 118 -49 147 -80s44 -74 44 -130c0 -73 -24 -131 -73 -172c-48 -41 -113 -62 -196 -62c-117 0 -215 42 -294 126zM154 808l109 117h97l111 -119l-61 -50l-97 64l-96 -65z" />
    <glyph glyph-name="scircumflex" unicode="&#x15d;" horiz-adv-x="523" 
d="M20 84l69 94c25 -17 53 -32 84 -45c32 -12 58 -18 79 -18c35 0 53 11 53 34c0 27 -17 37 -90 54c-115 27 -167 72 -167 165c0 107 87 173 220 173c87 0 161 -28 222 -85l-70 -91c-58 34 -105 51 -141 51c-35 0 -52 -11 -52 -32c0 -11 6 -20 19 -27c13 -6 40 -15 81 -27
c57 -17 98 -38 123 -61s38 -57 38 -102c0 -115 -84 -180 -220 -180c-99 0 -189 38 -248 97zM108 622l114 143h97l113 -142l-63 -47l-97 84l-96 -84z" />
    <glyph glyph-name="Scedilla" unicode="&#x15e;" horiz-adv-x="618" 
d="M213 -209l12 63c23 -7 45 -11 66 -11c29 0 45 8 45 29c0 24 -19 32 -63 32h-19l16 85c-99 9 -183 51 -252 124l86 108c68 -53 145 -88 206 -88c55 0 87 26 87 69c0 21 -9 38 -28 51c-18 13 -55 27 -112 43c-149 43 -209 102 -209 215c0 152 118 221 264 221
c96 0 187 -36 259 -100l-81 -108c-59 44 -117 66 -174 66c-53 0 -86 -20 -86 -60c0 -21 10 -38 30 -49s62 -28 127 -49c1 -1 2 -1 3 -1c69 -23 118 -49 147 -80s44 -74 44 -130c0 -140 -95 -225 -248 -233l-6 -33c64 -5 96 -32 96 -81c0 -63 -43 -100 -116 -100
c-37 0 -69 6 -94 17z" />
    <glyph glyph-name="scedilla" unicode="&#x15f;" horiz-adv-x="523" 
d="M158 -209l12 63c23 -7 45 -11 66 -11c29 0 45 8 45 29c0 24 -19 32 -63 32h-19l17 86c-76 11 -141 42 -196 94l69 94c25 -17 53 -32 84 -45c32 -12 58 -18 79 -18c35 0 53 11 53 34c0 13 -6 22 -18 28c-11 7 -36 15 -75 24c-115 27 -167 74 -167 165
c0 108 87 175 223 175c83 0 158 -28 223 -83l-68 -91c-56 33 -104 49 -144 49c-34 0 -51 -11 -51 -32c0 -11 6 -19 19 -25s40 -15 82 -28c108 -31 160 -70 160 -164c0 -111 -80 -176 -211 -180l-6 -32c64 -5 96 -32 96 -81c0 -63 -41 -100 -116 -100c-37 0 -69 6 -94 17z
" />
    <glyph glyph-name="Scaron" unicode="&#x160;" horiz-adv-x="618" 
d="M18 113l86 108c68 -53 145 -88 206 -88c55 0 87 26 87 69c0 21 -9 38 -28 51c-18 13 -55 27 -112 43c-149 43 -209 102 -209 215c0 152 118 221 264 221c96 0 187 -36 259 -100l-81 -108c-59 44 -117 66 -174 66c-53 0 -86 -20 -86 -60c0 -21 10 -38 30 -49
s62 -28 127 -49c1 -1 2 -1 3 -1c69 -23 118 -49 147 -80s44 -74 44 -130c0 -73 -24 -131 -73 -172c-48 -41 -113 -62 -196 -62c-117 0 -215 42 -294 126zM473 879l-109 -117h-97l-111 119l61 50l97 -64l96 65z" />
    <glyph glyph-name="scaron" unicode="&#x161;" horiz-adv-x="523" 
d="M20 84l69 94c25 -17 53 -32 84 -45c32 -12 58 -18 79 -18c35 0 53 11 53 34c0 27 -17 37 -90 54c-115 27 -167 72 -167 165c0 107 87 173 220 173c87 0 161 -28 222 -85l-70 -91c-58 34 -105 51 -141 51c-35 0 -52 -11 -52 -32c0 -11 6 -20 19 -27c13 -6 40 -15 81 -27
c57 -17 98 -38 123 -61s38 -57 38 -102c0 -115 -84 -180 -220 -180c-99 0 -189 38 -248 97zM420 724l-114 -143h-97l-113 142l66 49l96 -86l96 84z" />
    <glyph glyph-name="Scommaaccent" unicode="&#x218;" horiz-adv-x="618" 
d="M18 113l86 108c68 -53 145 -88 206 -88c55 0 87 26 87 69c0 21 -9 38 -28 51c-18 13 -55 27 -112 43c-149 43 -209 102 -209 215c0 152 118 221 264 221c96 0 187 -36 259 -100l-81 -108c-59 44 -117 66 -174 66c-53 0 -86 -20 -86 -60c0 -21 10 -38 30 -49
s62 -28 127 -49c1 -1 2 -1 3 -1c69 -23 118 -49 147 -80s44 -74 44 -130c0 -73 -24 -131 -73 -172c-48 -41 -113 -62 -196 -62c-117 0 -215 42 -294 126zM311 -266l-104 30l41 183l128 -33z" />
    <glyph glyph-name="scommaaccent" unicode="&#x219;" horiz-adv-x="523" 
d="M20 84l69 94c25 -17 53 -32 84 -45c32 -12 58 -18 79 -18c35 0 53 11 53 34c0 27 -17 37 -90 54c-115 27 -167 72 -167 165c0 107 87 173 220 173c87 0 161 -28 222 -85l-70 -91c-58 34 -105 51 -141 51c-35 0 -52 -11 -52 -32c0 -11 6 -20 19 -27c13 -6 40 -15 81 -27
c57 -17 98 -38 123 -61s38 -57 38 -102c0 -115 -84 -180 -220 -180c-99 0 -189 38 -248 97zM261 -266l-104 30l41 183l128 -33z" />
    <glyph glyph-name="uni021A" unicode="&#x21a;" horiz-adv-x="627" 
d="M402 0h-177v564h-208v156h593v-156h-208v-564zM305 -266l-104 30l41 183l128 -33z" />
    <glyph glyph-name="uni021B" unicode="&#x21b;" horiz-adv-x="362" 
d="M340 529v-123h-86v-254c0 -27 10 -37 35 -37c13 0 27 2 43 7l15 -114c-42 -14 -84 -21 -127 -21c-91 0 -135 48 -135 133v286h-72v96l75 26l16 158h150v-157h86zM214 -266l-104 30l41 183l128 -33z" />
    <glyph glyph-name="Tcaron" unicode="&#x164;" horiz-adv-x="627" 
d="M402 0h-177v564h-208v156h593v-156h-208v-564zM472 879l-109 -117h-97l-111 119l61 50l97 -64l96 65z" />
    <glyph glyph-name="tcaron" unicode="&#x165;" horiz-adv-x="364" 
d="M340 529v-123h-86v-254c0 -27 10 -37 35 -37c13 0 27 2 43 7l15 -114c-42 -14 -84 -21 -127 -21c-91 0 -135 48 -135 133v286h-72v96l75 26l16 158h150v-157h86zM398 586h-108l28 206h135z" />
    <glyph glyph-name="Tbar" unicode="&#x166;" horiz-adv-x="627" 
d="M225 281h-113v123h113v160h-208v156h593v-156h-208v-160h110v-123h-110v-281h-177v281z" />
    <glyph glyph-name="tbar" unicode="&#x167;" horiz-adv-x="362" 
d="M340 529v-123h-86v-68h86v-108h-86v-78c0 -27 10 -37 35 -37c13 0 27 2 43 7l15 -114c-42 -14 -84 -21 -127 -21c-91 0 -135 48 -135 133v110h-72v108h72v68h-72v96l75 26l16 158h150v-157h86z" />
    <glyph glyph-name="uni0162" unicode="&#x162;" horiz-adv-x="627" 
d="M278 0h-53v564h-208v156h593v-156h-208v-564h-61l-9 -45c64 -5 96 -32 96 -81c0 -63 -41 -100 -116 -100c-37 0 -69 6 -94 17l12 63c23 -7 45 -11 66 -11c29 0 45 8 45 29c0 24 -19 32 -63 32h-19z" />
    <glyph glyph-name="uni0163" unicode="&#x163;" horiz-adv-x="362" 
d="M111 -209l12 63c23 -7 45 -11 66 -11c29 0 45 8 45 29c0 24 -19 32 -63 32h-19l17 89c-56 15 -84 58 -84 127v286h-72v96l75 26l16 158h150v-157h84v-123h-84v-254c0 -27 10 -37 35 -37c13 0 27 2 43 7l15 -114c-39 -13 -78 -20 -116 -21l-6 -32c64 -5 96 -32 96 -81
c0 -63 -43 -100 -116 -100c-37 0 -69 6 -94 17z" />
    <glyph glyph-name="Utilde" unicode="&#x168;" horiz-adv-x="702" 
d="M53 276v444h177v-440c0 -91 45 -136 120 -136c83 0 122 43 122 136v440h177v-444c0 -189 -107 -288 -299 -288c-198 0 -297 96 -297 288zM460 910l70 -28c-16 -67 -40 -105 -95 -105c-17 0 -41 5 -72 16s-50 17 -57 17c-16 0 -26 -9 -39 -38l-73 28c17 64 50 106 97 106
c19 0 43 -6 72 -17s48 -17 57 -17c17 0 25 6 40 38z" />
    <glyph glyph-name="utilde" unicode="&#x169;" horiz-adv-x="586" 
d="M535 529v-529h-136l-18 63c-44 -48 -93 -76 -162 -76c-115 0 -172 60 -172 180v362h171v-320c0 -56 17 -83 62 -83c35 0 63 13 86 39v364h169zM389 726l70 -28c-16 -67 -40 -105 -95 -105c-17 0 -41 5 -72 16s-50 17 -57 17c-16 0 -26 -9 -39 -38l-73 28
c17 64 50 106 97 106c19 0 43 -6 72 -17s48 -17 57 -17c17 0 25 6 40 38z" />
    <glyph glyph-name="Umacron" unicode="&#x16a;" horiz-adv-x="702" 
d="M53 276v444h177v-440c0 -91 45 -136 120 -136c83 0 122 43 122 136v440h177v-444c0 -189 -107 -288 -299 -288c-198 0 -297 96 -297 288zM494 783h-289v103h289v-103z" />
    <glyph glyph-name="umacron" unicode="&#x16b;" horiz-adv-x="586" 
d="M535 529v-529h-136l-18 63c-44 -48 -93 -76 -162 -76c-115 0 -172 60 -172 180v362h171v-320c0 -56 17 -83 62 -83c35 0 63 13 86 39v364h169zM150 602v103h289v-103h-289z" />
    <glyph glyph-name="Ubreve" unicode="&#x16c;" horiz-adv-x="702" 
d="M53 276v444h177v-440c0 -91 45 -136 120 -136c83 0 122 43 122 136v440h177v-444c0 -189 -107 -288 -299 -288c-198 0 -297 96 -297 288zM354 847c48 0 64 17 71 64l94 -14c-8 -88 -61 -132 -165 -132c-107 0 -155 39 -168 132l97 14c8 -45 26 -64 71 -64z" />
    <glyph glyph-name="ubreve" unicode="&#x16d;" horiz-adv-x="586" 
d="M535 529v-529h-136l-18 63c-44 -48 -93 -76 -162 -76c-115 0 -172 60 -172 180v362h171v-320c0 -56 17 -83 62 -83c35 0 63 13 86 39v364h169zM292 673c48 0 64 22 71 71l94 -14c-8 -93 -63 -139 -165 -139c-105 0 -155 44 -168 139l97 15c8 -51 26 -72 71 -72z" />
    <glyph glyph-name="Uring" unicode="&#x16e;" horiz-adv-x="702" 
d="M53 276v444h177v-440c0 -91 45 -136 120 -136c83 0 122 43 122 136v440h177v-444c0 -189 -107 -288 -299 -288c-198 0 -297 96 -297 288zM314 842c0 -24 15 -37 40 -37c49 -4 50 81 0 74c-24 0 -40 -16 -40 -37zM243 839c0 64 46 104 111 104c64 0 109 -37 109 -100
c0 -61 -46 -102 -109 -102c-69 0 -111 35 -111 98z" />
    <glyph glyph-name="uring" unicode="&#x16f;" horiz-adv-x="586" 
d="M535 529v-529h-136l-18 63c-44 -48 -93 -76 -162 -76c-115 0 -172 60 -172 180v362h171v-320c0 -56 17 -83 62 -83c35 0 63 13 86 39v364h169zM254 676c0 -24 15 -37 40 -37c49 -4 50 81 0 74c-24 0 -40 -16 -40 -37zM183 673c0 64 46 104 111 104c64 0 109 -37 109 -100
c0 -61 -46 -102 -109 -102c-69 0 -111 35 -111 98z" />
    <glyph glyph-name="Uhungarumlaut" unicode="&#x170;" horiz-adv-x="702" 
d="M53 276v444h177v-440c0 -91 45 -136 120 -136c83 0 122 43 122 136v440h177v-444c0 -189 -107 -288 -299 -288c-198 0 -297 96 -297 288zM196 798l113 167l88 -64l-133 -153zM364 803l119 147l80 -71l-136 -132z" />
    <glyph glyph-name="uhungarumlaut" unicode="&#x171;" horiz-adv-x="586" 
d="M535 529v-529h-136l-18 63c-44 -48 -93 -76 -162 -76c-115 0 -172 60 -172 180v362h171v-320c0 -56 17 -83 62 -83c35 0 63 13 86 39v364h169zM146 625l109 154l85 -57l-123 -144zM306 625l109 141l84 -59l-126 -130z" />
    <glyph glyph-name="Uogonek" unicode="&#x172;" horiz-adv-x="701" 
d="M53 276v444h177v-440c0 -91 45 -136 120 -136c83 0 122 43 122 136v440h177v-444c0 -45 -7 -85 -20 -120c-25 -69 -66 -109 -133 -150c-53 -32 -89 -83 -89 -115c0 -24 10 -36 29 -36c13 0 30 4 53 13l21 -70c-29 -17 -75 -32 -114 -32c-70 0 -105 28 -105 85
c0 47 23 92 70 137h-11c-198 0 -297 96 -297 288z" />
    <glyph glyph-name="uogonek" unicode="&#x173;" horiz-adv-x="586" 
d="M535 529v-529c-53 -40 -83 -86 -83 -117c0 -19 10 -28 29 -28c13 0 30 4 53 13l21 -70c-29 -17 -75 -32 -114 -32c-70 0 -105 28 -105 85c0 47 28 96 83 149h-20l-18 63c-44 -48 -93 -76 -162 -76c-115 0 -172 60 -172 180v362h171v-320c0 -56 17 -83 62 -83
c35 0 63 13 86 39v364h169z" />
    <glyph glyph-name="Wcircumflex" unicode="&#x174;" horiz-adv-x="934" 
d="M371 0h-189l-177 720h181l105 -489l97 489h158l100 -490l101 490h182l-178 -720h-183l-101 444zM308 808l109 117h97l111 -119l-61 -50l-97 64l-96 -65z" />
    <glyph glyph-name="wcircumflex" unicode="&#x175;" horiz-adv-x="800" 
d="M559 186l64 343h169l-143 -529h-185l-65 303l-63 -303h-185l-143 529h168l75 -343l68 343h160zM236 622l114 143h97l113 -142l-63 -47l-97 84l-96 -84z" />
    <glyph glyph-name="Wgrave" unicode="&#x1e80;" horiz-adv-x="934" 
d="M371 0h-189l-177 720h181l105 -489l97 489h158l100 -490l101 490h182l-178 -720h-183l-101 444zM340 836l58 103l183 -113l-46 -79z" />
    <glyph glyph-name="wgrave" unicode="&#x1e81;" horiz-adv-x="800" 
d="M559 186l64 343h169l-143 -529h-185l-65 303l-63 -303h-185l-143 529h168l75 -343l68 343h160zM279 701l80 94l159 -143l-65 -77z" />
    <glyph glyph-name="Wacute" unicode="&#x1e82;" horiz-adv-x="934" 
d="M371 0h-189l-177 720h181l105 -489l97 489h158l100 -490l101 490h182l-178 -720h-183l-101 444zM386 747l-46 79l184 113l57 -103z" />
    <glyph glyph-name="wacute" unicode="&#x1e83;" horiz-adv-x="800" 
d="M559 186l64 343h169l-143 -529h-185l-65 303l-63 -303h-185l-143 529h168l75 -343l68 343h160zM331 575l-65 74l164 150l78 -95z" />
    <glyph glyph-name="Wdieresis" unicode="&#x1e84;" horiz-adv-x="934" 
d="M371 0h-189l-177 720h181l105 -489l97 489h158l100 -490l101 490h182l-178 -720h-183l-101 444zM492 838c0 41 30 72 81 72c55 0 82 -29 82 -72c0 -41 -33 -70 -81 -70c-53 0 -82 27 -82 70zM270 838c0 41 33 72 82 72c53 0 81 -29 81 -72c0 -41 -32 -70 -80 -70
c-53 0 -83 27 -83 70z" />
    <glyph glyph-name="wdieresis" unicode="&#x1e85;" horiz-adv-x="800" 
d="M559 186l64 343h169l-143 -529h-185l-65 303l-63 -303h-185l-143 529h168l75 -343l68 343h160zM427 660c0 41 30 72 81 72c55 0 82 -29 82 -72c0 -41 -33 -70 -81 -70c-53 0 -82 27 -82 70zM205 660c0 41 33 72 82 72c53 0 81 -29 81 -72c0 -41 -32 -70 -80 -70
c-53 0 -83 27 -83 70z" />
    <glyph glyph-name="Ygrave" unicode="&#x1ef2;" horiz-adv-x="673" 
d="M420 0h-177v276l-241 444h193l138 -270l140 270h198l-251 -444v-276zM210 836l58 103l183 -113l-46 -79z" />
    <glyph glyph-name="ygrave" unicode="&#x1ef3;" horiz-adv-x="561" 
d="M284 165l100 364h169l-182 -501l-28 -73c-6 -17 -14 -35 -25 -56c-10 -21 -20 -37 -29 -46c-28 -33 -74 -61 -138 -57c-36 0 -73 4 -111 13l12 118c34 -4 59 -6 74 -6c37 0 57 11 70 60l4 14l-192 534h177zM134 701l80 94l159 -143l-65 -77z" />
    <glyph glyph-name="Ycircumflex" unicode="&#x176;" horiz-adv-x="673" 
d="M420 0h-177v276l-241 444h193l138 -270l140 270h198l-251 -444v-276zM178 808l109 117h97l111 -119l-61 -50l-97 64l-96 -65z" />
    <glyph glyph-name="ycircumflex" unicode="&#x177;" horiz-adv-x="561" 
d="M284 165l100 364h169l-182 -501l-28 -73c-6 -17 -14 -35 -25 -56c-10 -21 -20 -37 -29 -46c-28 -33 -74 -61 -138 -57c-36 0 -73 4 -111 13l12 118c34 -4 59 -6 74 -6c37 0 57 11 70 60l4 14l-192 534h177zM123 622l114 143h97l113 -142l-63 -47l-97 84l-96 -84z" />
    <glyph glyph-name="Ydieresis" unicode="&#x178;" horiz-adv-x="673" 
d="M420 0h-177v276l-241 444h193l138 -270l140 270h198l-251 -444v-276zM362 838c0 41 30 72 81 72c55 0 82 -29 82 -72c0 -41 -33 -70 -81 -70c-53 0 -82 27 -82 70zM140 838c0 41 33 72 82 72c53 0 81 -29 81 -72c0 -41 -32 -70 -80 -70c-53 0 -83 27 -83 70z" />
    <glyph glyph-name="Zacute" unicode="&#x179;" horiz-adv-x="636" 
d="M606 0h-579v111l312 453h-297v156h565v-69l-341 -496h340v-155zM250 747l-46 79l184 113l57 -103z" />
    <glyph glyph-name="zacute" unicode="&#x17a;" horiz-adv-x="476" 
d="M450 0h-419v103l202 302h-197v124h414v-70l-218 -335h218v-124zM194 575l-65 74l164 150l78 -95z" />
    <glyph glyph-name="Zdotaccent" unicode="&#x17b;" horiz-adv-x="636" 
d="M606 0h-579v111l312 453h-297v156h565v-69l-341 -496h340v-155zM219 851c0 53 41 83 98 83c60 0 99 -30 99 -83c0 -51 -39 -80 -99 -80c-56 0 -98 29 -98 80z" />
    <glyph glyph-name="zdotaccent" unicode="&#x17c;" horiz-adv-x="476" 
d="M450 0h-419v103l202 302h-197v124h414v-70l-218 -335h218v-124zM146 660c0 53 41 83 98 83c60 0 99 -30 99 -83c0 -51 -39 -80 -99 -80c-56 0 -98 29 -98 80z" />
    <glyph glyph-name="Zcaron" unicode="&#x17d;" horiz-adv-x="636" 
d="M606 0h-579v111l312 453h-297v156h565v-69l-341 -496h340v-155zM477 879l-109 -117h-97l-111 119l61 50l97 -64l96 65z" />
    <glyph glyph-name="zcaron" unicode="&#x17e;" horiz-adv-x="476" 
d="M450 0h-419v103l202 302h-197v124h414v-70l-218 -335h218v-124zM404 724l-114 -143h-97l-113 142l66 49l96 -86l96 84z" />
    <glyph glyph-name="longs" unicode="&#x17f;" horiz-adv-x="342" 
d="M252 0h-170v406h-69v97l69 17v43c0 109 54 169 167 169c35 0 69 -4 101 -12l-8 -110c-17 5 -33 7 -46 7c-29 0 -44 -16 -44 -48v-569z" />
    <glyph glyph-name="dotlessj" unicode="&#x237;" horiz-adv-x="279" 
d="M55 529h169v-565c0 -111 -51 -168 -164 -168c-39 0 -72 4 -99 13l9 117c16 -3 30 -5 42 -5c31 0 43 12 43 52v556z" />
    <glyph glyph-name="circumflex" unicode="&#x2c6;" horiz-adv-x="504" 
d="M90 622l114 143h97l113 -142l-63 -47l-97 84l-96 -84z" />
    <glyph glyph-name="caron" unicode="&#x2c7;" horiz-adv-x="504" 
d="M414 724l-114 -143h-97l-113 142l66 49l96 -86l96 84z" />
    <glyph glyph-name="uni02C9" unicode="&#x2c9;" horiz-adv-x="504" 
d="M108 602v103h289v-103h-289z" />
    <glyph glyph-name="breve" unicode="&#x2d8;" horiz-adv-x="504" 
d="M252 673c48 0 64 22 71 71l94 -14c-8 -93 -63 -139 -165 -139c-105 0 -155 44 -168 139l97 15c8 -51 26 -72 71 -72z" />
    <glyph glyph-name="dieresis" unicode="&#xa8;" horiz-adv-x="504" 
d="M281 660c0 41 30 72 81 72c55 0 82 -29 82 -72c0 -41 -33 -70 -81 -70c-53 0 -82 27 -82 70zM59 660c0 41 33 72 82 72c53 0 81 -29 81 -72c0 -41 -32 -70 -80 -70c-53 0 -83 27 -83 70z" />
    <glyph glyph-name="macron" unicode="&#xaf;" horiz-adv-x="504" 
d="M108 602v103h289v-103h-289z" />
    <glyph glyph-name="degree" unicode="&#xb0;" horiz-adv-x="335" 
d="M98 669c0 -44 28 -73 71 -73c40 0 70 30 70 73s-29 71 -70 71c-43 0 -71 -28 -71 -71zM42 668c0 35 12 64 37 88s55 36 90 36s64 -12 88 -36s36 -53 36 -88s-12 -64 -36 -88s-53 -36 -88 -36c-75 0 -127 51 -127 124z" />
    <glyph glyph-name="acute" unicode="&#xb4;" horiz-adv-x="504" 
d="M192 575l-65 74l164 150l78 -95z" />
    <glyph glyph-name="grave" unicode="`" horiz-adv-x="504" 
d="M139 701l80 94l159 -143l-65 -77z" />
    <glyph glyph-name="cedilla" unicode="&#xb8;" horiz-adv-x="504" 
d="M152 -209l12 63c21 -7 41 -10 60 -10c29 0 43 10 43 29c0 24 -18 28 -65 28h-16l22 105h63l-10 -51c65 -5 97 -32 97 -81c0 -63 -42 -100 -117 -100c-34 0 -64 6 -89 17z" />
    <glyph glyph-name="dotaccent" unicode="&#x2d9;" horiz-adv-x="504" 
d="M153 660c0 53 41 83 98 83c60 0 99 -30 99 -83c0 -51 -39 -80 -99 -80c-56 0 -98 29 -98 80z" />
    <glyph glyph-name="ring" unicode="&#x2da;" horiz-adv-x="504" 
d="M213 676c0 -24 15 -37 40 -37c49 -4 50 81 0 74c-24 0 -40 -16 -40 -37zM142 673c0 64 46 104 111 104c64 0 109 -37 109 -100c0 -61 -46 -102 -109 -102c-69 0 -111 35 -111 98z" />
    <glyph glyph-name="ogonek" unicode="&#x2db;" horiz-adv-x="504" 
d="M245 17l86 -5v-10c-49 -47 -73 -86 -73 -119c0 -19 10 -28 29 -28c13 0 30 4 53 13l21 -70c-29 -17 -75 -32 -114 -32c-70 0 -105 28 -105 85c0 55 34 110 103 166z" />
    <glyph glyph-name="tilde" unicode="&#x2dc;" horiz-adv-x="504" 
d="M351 726l70 -28c-16 -67 -40 -105 -95 -105c-17 0 -41 5 -72 16s-50 17 -57 17c-16 0 -26 -9 -39 -38l-73 28c17 64 50 106 97 106c19 0 43 -6 72 -17s48 -17 57 -17c17 0 25 6 40 38z" />
    <glyph glyph-name="hungarumlaut" unicode="&#x2dd;" horiz-adv-x="504" 
d="M55 625l109 154l85 -57l-123 -144zM215 625l109 141l84 -59l-126 -130z" />
    <glyph glyph-name="perthousand" unicode="&#x2030;" horiz-adv-x="1275" 
d="M578 172c0 56 18 102 54 138s84 54 144 54c53 0 100 -21 132 -56c32 33 82 56 146 56c53 0 97 -18 132 -54s52 -81 52 -134c0 -55 -17 -100 -51 -136c-34 -35 -78 -53 -133 -53c-63 0 -112 18 -149 53c-37 -35 -84 -53 -140 -53c-57 0 -103 17 -137 51
c-33 35 -50 79 -50 134zM235 710c59 0 106 -18 142 -53c37 -35 55 -80 55 -135s-19 -100 -56 -136c-37 -35 -84 -53 -141 -53c-124 0 -198 73 -198 185c0 56 18 102 54 138s84 54 144 54zM357 0h-135l439 720h137zM166 522c0 -47 25 -76 69 -76c43 0 67 31 67 76
s-24 76 -67 76c-44 0 -69 -31 -69 -76zM707 176c0 -47 26 -76 69 -76s67 28 67 72c0 48 -24 80 -67 80c-44 0 -69 -31 -69 -76zM972 176c0 -45 22 -76 69 -76c43 0 67 31 67 76s-24 76 -67 76s-69 -29 -69 -76z" />
    <glyph glyph-name="percent" unicode="%" horiz-adv-x="1009" 
d="M707 176c0 -47 26 -76 69 -76s67 31 67 76s-24 76 -67 76c-44 0 -69 -31 -69 -76zM776 364c59 0 106 -18 142 -53c37 -35 55 -80 55 -135s-19 -100 -56 -136c-37 -35 -84 -53 -141 -53c-124 0 -198 73 -198 185c0 56 18 102 54 138s84 54 144 54zM166 522
c0 -47 25 -76 69 -76c43 0 67 31 67 76s-24 76 -67 76c-44 0 -69 -31 -69 -76zM235 710c59 0 106 -18 142 -53c37 -35 55 -80 55 -135s-19 -100 -56 -136c-37 -35 -84 -53 -141 -53c-124 0 -198 73 -198 185c0 56 18 102 54 138s84 54 144 54zM357 0h-135l439 720h137z" />
    <glyph glyph-name="fraction" unicode="&#x2044;" horiz-adv-x="139" 
d="M-90 0h-130l443 720h128z" />
    <glyph glyph-name="zerosuperior" unicode="&#x2070;" horiz-adv-x="406" 
d="M22 589c0 120 67 196 183 196c113 0 179 -76 179 -193c0 -123 -68 -199 -185 -199c-109 0 -177 67 -177 196zM248 588c0 68 -15 90 -44 90c-32 0 -47 -24 -47 -89c0 -60 10 -88 45 -88c37 0 46 44 46 87z" />
    <glyph glyph-name="onesuperior" unicode="&#xb9;" horiz-adv-x="308" 
d="M257 400h-135v223c-33 -1 -55 3 -86 11l-9 79c47 11 93 32 124 65h106v-378z" />
    <glyph glyph-name="twosuperior" unicode="&#xb2;" horiz-adv-x="362" 
d="M38 400v78l111 105c31 29 42 40 42 63c0 21 -12 31 -36 31c-31 0 -60 -14 -96 -37l-49 73c44 39 108 72 184 72c79 0 137 -40 137 -113c0 -47 -15 -75 -60 -115l-69 -62h138v-95h-302z" />
    <glyph glyph-name="threesuperior" unicode="&#xb3;" horiz-adv-x="360" 
d="M6 444l40 75c33 -21 67 -33 106 -33c32 0 51 7 51 30c0 24 -19 30 -58 30c-13 0 -34 -2 -43 -3v89c51 1 84 9 84 37c0 21 -16 25 -41 25c-28 0 -66 -13 -93 -26l-31 74c39 23 98 43 163 43c91 0 137 -35 137 -96c0 -45 -26 -74 -78 -88v-2c64 -7 95 -39 95 -90
c0 -79 -70 -116 -167 -116c-64 0 -124 16 -165 51z" />
    <glyph glyph-name="foursuperior" unicode="&#x2074;" horiz-adv-x="398" 
d="M216 690l-88 -135h88v135zM216 400v56h-193v98l151 224h165v-223h36v-99h-36v-56h-123z" />
    <glyph glyph-name="fivesuperior" unicode="&#x2075;" horiz-adv-x="358" 
d="M41 539l18 239h251l-7 -101h-148l-5 -52c15 8 39 17 75 17c80 0 114 -41 114 -113c0 -89 -70 -136 -163 -136c-68 0 -125 23 -160 54l40 70c29 -17 73 -30 105 -30s52 10 52 39c0 25 -12 37 -36 37c-15 0 -28 -5 -36 -9l-2 -15h-98z" />
    <glyph glyph-name="sixsuperior" unicode="&#x2076;" horiz-adv-x="380" 
d="M32 571c0 114 57 214 189 214c44 0 88 -10 121 -26l-23 -77c-28 13 -53 18 -78 18c-59 0 -78 -39 -82 -91c24 19 51 29 88 29c76 0 114 -49 114 -110c0 -97 -78 -135 -161 -135c-124 0 -168 69 -168 178zM205 555c-15 0 -32 -6 -44 -14c0 -32 9 -62 40 -62
c28 0 38 14 38 37c0 26 -11 39 -34 39z" />
    <glyph glyph-name="sevensuperior" unicode="&#x2077;" horiz-adv-x="343" 
d="M327 705l-130 -305h-136v11l119 261h-162v106h309v-73z" />
    <glyph glyph-name="eightsuperior" unicode="&#x2078;" horiz-adv-x="375" 
d="M130 507c0 -23 22 -36 53 -36s46 12 46 36c0 27 -33 37 -66 48c-17 -12 -33 -25 -33 -48zM157 687c0 -21 24 -32 52 -43c15 12 24 22 24 39c0 20 -13 30 -39 30c-25 0 -37 -11 -37 -26zM22 499c0 56 36 82 71 98c-29 15 -57 40 -57 81c0 64 60 107 152 107
c101 0 153 -37 153 -94c0 -43 -27 -68 -56 -84c45 -23 70 -47 70 -98c0 -76 -70 -116 -170 -116s-163 38 -163 106z" />
    <glyph glyph-name="ninesuperior" unicode="&#x2079;" horiz-adv-x="383" 
d="M354 607c0 -114 -57 -214 -189 -214c-44 0 -88 10 -121 26l24 81c28 -13 53 -18 78 -18c59 0 80 30 84 86c-27 -20 -54 -28 -91 -28c-76 0 -114 49 -114 110c0 97 78 135 161 135c124 0 168 -69 168 -178zM184 623c15 0 32 6 44 14c0 39 -11 64 -42 64
c-28 0 -39 -16 -39 -39c0 -25 14 -39 37 -39z" />
    <glyph glyph-name="zeroinferior" unicode="&#x2080;" horiz-adv-x="406" 
d="M22 93c0 120 67 196 183 196c113 0 179 -76 179 -193c0 -123 -68 -199 -185 -199c-109 0 -177 67 -177 196zM248 92c0 68 -15 90 -44 90c-32 0 -47 -24 -47 -89c0 -60 10 -88 45 -88c37 0 46 44 46 87z" />
    <glyph glyph-name="oneinferior" unicode="&#x2081;" horiz-adv-x="300" 
d="M249 -96h-135v223c-33 -1 -55 3 -86 11l-9 79c47 11 93 32 124 65h106v-378z" />
    <glyph glyph-name="twoinferior" unicode="&#x2082;" horiz-adv-x="362" 
d="M38 -96v78l111 105c31 29 42 40 42 63c0 21 -12 31 -36 31c-31 0 -60 -14 -96 -37l-49 73c44 39 108 72 184 72c79 0 137 -40 137 -113c0 -47 -15 -75 -60 -115l-69 -62h138v-95h-302z" />
    <glyph glyph-name="threeinferior" unicode="&#x2083;" horiz-adv-x="360" 
d="M6 -52l40 75c33 -21 67 -33 106 -33c32 0 51 7 51 30c0 24 -19 30 -58 30c-13 0 -34 -2 -43 -3v89c51 1 84 9 84 37c0 21 -16 25 -41 25c-28 0 -66 -13 -93 -26l-31 74c39 23 98 43 163 43c91 0 137 -35 137 -96c0 -45 -26 -74 -78 -88v-2c64 -7 95 -39 95 -90
c0 -79 -70 -116 -167 -116c-64 0 -124 16 -165 51z" />
    <glyph glyph-name="fourinferior" unicode="&#x2084;" horiz-adv-x="398" 
d="M216 194l-88 -135h88v135zM216 -96v56h-193v98l151 224h165v-223h36v-99h-36v-56h-123z" />
    <glyph glyph-name="fiveinferior" unicode="&#x2085;" horiz-adv-x="358" 
d="M45 43l18 239h251l-7 -101h-148l-5 -52c15 8 39 17 75 17c80 0 114 -41 114 -113c0 -89 -70 -136 -163 -136c-68 0 -125 23 -160 54l40 70c29 -17 73 -30 105 -30s52 10 52 39c0 25 -12 37 -36 37c-15 0 -28 -5 -36 -9l-2 -15h-98z" />
    <glyph glyph-name="sixinferior" unicode="&#x2086;" horiz-adv-x="380" 
d="M32 75c0 114 57 214 189 214c44 0 88 -10 121 -26l-23 -77c-28 13 -53 18 -78 18c-59 0 -78 -39 -82 -91c24 19 51 29 88 29c76 0 114 -49 114 -110c0 -97 -78 -135 -161 -135c-124 0 -168 69 -168 178zM205 59c-15 0 -32 -6 -44 -14c0 -32 9 -62 40 -62
c28 0 38 14 38 37c0 26 -11 39 -34 39z" />
    <glyph glyph-name="seveninferior" unicode="&#x2087;" horiz-adv-x="343" 
d="M327 209l-130 -305h-136v11l119 261h-162v106h309v-73z" />
    <glyph glyph-name="eightinferior" unicode="&#x2088;" horiz-adv-x="375" 
d="M130 11c0 -23 22 -36 53 -36s46 12 46 36c0 27 -33 37 -66 48c-17 -12 -33 -25 -33 -48zM157 191c0 -21 24 -32 52 -43c15 12 24 22 24 39c0 20 -13 30 -39 30c-25 0 -37 -11 -37 -26zM22 3c0 56 36 82 71 98c-29 15 -57 40 -57 81c0 64 60 107 152 107
c101 0 153 -37 153 -94c0 -43 -27 -68 -56 -84c45 -23 70 -47 70 -98c0 -76 -70 -116 -170 -116s-163 38 -163 106z" />
    <glyph glyph-name="nineinferior" unicode="&#x2089;" horiz-adv-x="383" 
d="M354 111c0 -114 -57 -214 -189 -214c-44 0 -88 10 -121 26l24 81c28 -13 53 -18 78 -18c59 0 80 30 84 86c-27 -20 -54 -28 -91 -28c-76 0 -114 49 -114 110c0 97 78 135 161 135c124 0 168 -69 168 -178zM184 127c15 0 32 6 44 14c0 39 -11 64 -42 64
c-28 0 -39 -16 -39 -39c0 -25 14 -39 37 -39z" />
    <glyph glyph-name="zero.num" horiz-adv-x="406" 
d="M22 539c0 120 67 196 183 196c113 0 179 -76 179 -193c0 -123 -68 -199 -185 -199c-109 0 -177 67 -177 196zM248 538c0 68 -15 90 -44 90c-32 0 -47 -24 -47 -89c0 -60 10 -88 45 -88c37 0 46 44 46 87z" />
    <glyph glyph-name="one.num" horiz-adv-x="300" 
d="M249 350h-135v223c-33 -1 -55 3 -86 11l-9 79c47 11 93 32 124 65h106v-378z" />
    <glyph glyph-name="two.num" horiz-adv-x="362" 
d="M38 350v78l111 105c31 29 42 40 42 63c0 21 -12 31 -36 31c-31 0 -60 -14 -96 -37l-49 73c44 39 108 72 184 72c79 0 137 -40 137 -113c0 -47 -15 -75 -60 -115l-69 -62h138v-95h-302z" />
    <glyph glyph-name="three.num" horiz-adv-x="360" 
d="M6 394l40 75c33 -21 67 -33 106 -33c32 0 51 7 51 30c0 24 -19 30 -58 30c-13 0 -34 -2 -43 -3v89c51 1 84 9 84 37c0 21 -16 25 -41 25c-28 0 -66 -13 -93 -26l-31 74c39 23 98 43 163 43c91 0 137 -35 137 -96c0 -45 -26 -74 -78 -88v-2c64 -7 95 -39 95 -90
c0 -79 -70 -116 -167 -116c-64 0 -124 16 -165 51z" />
    <glyph glyph-name="four.num" horiz-adv-x="398" 
d="M216 640l-88 -135h88v135zM216 350v56h-193v98l151 224h165v-223h36v-99h-36v-56h-123z" />
    <glyph glyph-name="five.num" horiz-adv-x="358" 
d="M45 489l18 239h251l-7 -101h-148l-5 -52c15 8 39 17 75 17c80 0 114 -41 114 -113c0 -89 -70 -136 -163 -136c-68 0 -125 23 -160 54l40 70c29 -17 73 -30 105 -30s52 10 52 39c0 25 -12 37 -36 37c-15 0 -28 -5 -36 -9l-2 -15h-98z" />
    <glyph glyph-name="six.num" horiz-adv-x="380" 
d="M32 521c0 114 57 214 189 214c44 0 88 -10 121 -26l-23 -77c-28 13 -53 18 -78 18c-59 0 -78 -39 -82 -91c24 19 51 29 88 29c76 0 114 -49 114 -110c0 -97 -78 -135 -161 -135c-124 0 -168 69 -168 178zM205 505c-15 0 -32 -6 -44 -14c0 -32 9 -62 40 -62
c28 0 38 14 38 37c0 26 -11 39 -34 39z" />
    <glyph glyph-name="seven.num" horiz-adv-x="343" 
d="M327 655l-130 -305h-136v11l119 261h-162v106h309v-73z" />
    <glyph glyph-name="eight.num" horiz-adv-x="375" 
d="M130 457c0 -23 22 -36 53 -36s46 12 46 36c0 27 -33 37 -66 48c-17 -12 -33 -25 -33 -48zM157 637c0 -21 24 -32 52 -43c15 12 24 22 24 39c0 20 -13 30 -39 30c-25 0 -37 -11 -37 -26zM22 449c0 56 36 82 71 98c-29 15 -57 40 -57 81c0 64 60 107 152 107
c101 0 153 -37 153 -94c0 -43 -27 -68 -56 -84c45 -23 70 -47 70 -98c0 -76 -70 -116 -170 -116s-163 38 -163 106z" />
    <glyph glyph-name="nine.num" horiz-adv-x="383" 
d="M354 557c0 -114 -57 -214 -189 -214c-44 0 -88 10 -121 26l24 81c28 -13 53 -18 78 -18c59 0 80 30 84 86c-27 -20 -54 -28 -91 -28c-76 0 -114 49 -114 110c0 97 78 135 161 135c124 0 168 -69 168 -178zM184 573c15 0 32 6 44 14c0 39 -11 64 -42 64
c-28 0 -39 -16 -39 -39c0 -25 14 -39 37 -39z" />
    <glyph glyph-name="zero.denom" horiz-adv-x="406" 
d="M22 189c0 120 67 196 183 196c113 0 179 -76 179 -193c0 -123 -68 -199 -185 -199c-109 0 -177 67 -177 196zM248 188c0 68 -15 90 -44 90c-32 0 -47 -24 -47 -89c0 -60 10 -88 45 -88c37 0 46 44 46 87z" />
    <glyph glyph-name="one.denom" horiz-adv-x="300" 
d="M249 0h-135v223c-33 -1 -55 3 -86 11l-9 79c47 11 93 32 124 65h106v-378z" />
    <glyph glyph-name="two.denom" horiz-adv-x="362" 
d="M38 0v78l111 105c31 29 42 40 42 63c0 21 -12 31 -36 31c-31 0 -60 -14 -96 -37l-49 73c44 39 108 72 184 72c79 0 137 -40 137 -113c0 -47 -15 -75 -60 -115l-69 -62h138v-95h-302z" />
    <glyph glyph-name="three.denom" horiz-adv-x="360" 
d="M6 44l40 75c33 -21 67 -33 106 -33c32 0 51 7 51 30c0 24 -19 30 -58 30c-13 0 -34 -2 -43 -3v89c51 1 84 9 84 37c0 21 -16 25 -41 25c-28 0 -66 -13 -93 -26l-31 74c39 23 98 43 163 43c91 0 137 -35 137 -96c0 -45 -26 -74 -78 -88v-2c64 -7 95 -39 95 -90
c0 -79 -70 -116 -167 -116c-64 0 -124 16 -165 51z" />
    <glyph glyph-name="four.denom" horiz-adv-x="398" 
d="M216 290l-88 -135h88v135zM216 0v56h-193v98l151 224h165v-223h36v-99h-36v-56h-123z" />
    <glyph glyph-name="five.denom" horiz-adv-x="358" 
d="M45 139l18 239h251l-7 -101h-148l-5 -52c15 8 39 17 75 17c80 0 114 -41 114 -113c0 -89 -70 -136 -163 -136c-68 0 -125 23 -160 54l40 70c29 -17 73 -30 105 -30s52 10 52 39c0 25 -12 37 -36 37c-15 0 -28 -5 -36 -9l-2 -15h-98z" />
    <glyph glyph-name="six.denom" horiz-adv-x="380" 
d="M32 171c0 114 57 214 189 214c44 0 88 -10 121 -26l-23 -77c-28 13 -53 18 -78 18c-59 0 -78 -39 -82 -91c24 19 51 29 88 29c76 0 114 -49 114 -110c0 -97 -78 -135 -161 -135c-124 0 -168 69 -168 178zM205 155c-15 0 -32 -6 -44 -14c0 -32 9 -62 40 -62
c28 0 38 14 38 37c0 26 -11 39 -34 39z" />
    <glyph glyph-name="seven.denom" horiz-adv-x="343" 
d="M327 305l-130 -305h-136v11l119 261h-162v106h309v-73z" />
    <glyph glyph-name="eight.denom" horiz-adv-x="375" 
d="M130 107c0 -23 22 -36 53 -36s46 12 46 36c0 27 -33 37 -66 48c-17 -12 -33 -25 -33 -48zM157 287c0 -21 24 -32 52 -43c15 12 24 22 24 39c0 20 -13 30 -39 30c-25 0 -37 -11 -37 -26zM22 99c0 56 36 82 71 98c-29 15 -57 40 -57 81c0 64 60 107 152 107
c101 0 153 -37 153 -94c0 -43 -27 -68 -56 -84c45 -23 70 -47 70 -98c0 -76 -70 -116 -170 -116s-163 38 -163 106z" />
    <glyph glyph-name="nine.denom" horiz-adv-x="383" 
d="M354 207c0 -114 -57 -214 -189 -214c-44 0 -88 10 -121 26l24 81c28 -13 53 -18 78 -18c59 0 80 30 84 86c-27 -20 -54 -28 -91 -28c-76 0 -114 49 -114 110c0 97 78 135 161 135c124 0 168 -69 168 -178zM184 223c15 0 32 6 44 14c0 39 -11 64 -42 64
c-28 0 -39 -16 -39 -39c0 -25 14 -39 37 -39z" />
    <glyph glyph-name="onehalf" unicode="&#xbd;" horiz-adv-x="921" 
d="M275 728v-378h-135v223h-10c-23 0 -48 4 -76 11l-9 79c53 11 95 33 124 65h106zM255 0h-130l443 720h128zM844 0h-302v78l111 105c35 34 38 37 42 63c0 21 -12 31 -36 31c-25 0 -57 -12 -96 -37l-49 73c48 43 113 72 184 72c80 0 137 -42 137 -113
c0 -45 -16 -75 -60 -115l-69 -62h138v-95z" />
    <glyph glyph-name="onequarter" unicode="&#xbc;" horiz-adv-x="921" 
d="M280 728v-378h-135v223h-10c-23 0 -48 4 -76 11l-9 79c53 11 95 33 124 65h106zM284 0h-130l443 720h128zM694 155v135l-88 -135h88zM817 0h-123v56h-193v98l151 224h165v-223h36v-99h-36v-56z" />
    <glyph glyph-name="threequarters" unicode="&#xbe;" horiz-adv-x="921" 
d="M63 394l40 75c35 -22 70 -33 106 -33c34 0 51 10 51 30c0 24 -17 30 -58 30c-11 0 -25 -1 -43 -3v89c55 1 84 10 84 37c0 19 -13 25 -41 25c-26 0 -57 -9 -93 -26l-31 74c49 29 103 43 163 43c89 0 137 -35 137 -96c0 -44 -26 -73 -78 -88v-2c63 -5 95 -38 95 -90
c0 -76 -66 -116 -167 -116c-69 0 -124 17 -165 51zM328 0h-130l443 720h128zM708 155v135l-88 -135h88zM831 0h-123v56h-193v98l151 224h165v-223h36v-99h-36v-56z" />
    <glyph glyph-name="onethird" unicode="&#x2153;" horiz-adv-x="921" 
d="M271 350h-135v223c-33 -1 -55 3 -86 11l-9 79c47 11 93 32 124 65h106v-378zM258 0h-130l443 720h128zM525 44l40 75c33 -21 67 -33 106 -33c32 0 51 7 51 30c0 24 -19 30 -58 30c-13 0 -34 -2 -43 -3v89c51 1 84 9 84 37c0 21 -16 25 -41 25c-28 0 -66 -13 -93 -26
l-31 74c39 23 98 43 163 43c91 0 137 -35 137 -96c0 -45 -26 -74 -78 -88v-2c64 -7 95 -39 95 -90c0 -79 -70 -116 -167 -116c-64 0 -124 16 -165 51z" />
    <glyph glyph-name="twothirds" unicode="&#x2154;" horiz-adv-x="921" 
d="M57 350v78l111 105c31 29 42 40 42 63c0 21 -12 31 -36 31c-31 0 -60 -14 -96 -37l-49 73c44 39 108 72 184 72c79 0 137 -40 137 -113c0 -47 -15 -75 -60 -115l-69 -62h138v-95h-302zM322 0h-130l443 720h128zM574 44l40 75c33 -21 67 -33 106 -33c32 0 51 7 51 30
c0 24 -19 30 -58 30c-13 0 -34 -2 -43 -3v89c51 1 84 9 84 37c0 21 -16 25 -41 25c-28 0 -66 -13 -93 -26l-31 74c39 23 98 43 163 43c91 0 137 -35 137 -96c0 -45 -26 -74 -78 -88v-2c64 -7 95 -39 95 -90c0 -79 -70 -116 -167 -116c-64 0 -124 16 -165 51z" />
    <glyph glyph-name="oneeighth" unicode="&#x215b;" horiz-adv-x="921" 
d="M279 350h-135v223c-33 -1 -55 3 -86 11l-9 79c47 11 93 32 124 65h106v-378zM271 0h-130l443 720h128zM627 107c0 -23 22 -36 53 -36s46 12 46 36c0 27 -33 37 -66 48c-17 -12 -33 -25 -33 -48zM654 287c0 -21 24 -32 52 -43c15 12 24 22 24 39c0 20 -13 30 -39 30
c-25 0 -37 -11 -37 -26zM519 99c0 56 36 82 71 98c-29 15 -57 40 -57 81c0 64 60 107 152 107c101 0 153 -37 153 -94c0 -43 -27 -68 -56 -84c45 -23 70 -47 70 -98c0 -76 -70 -116 -170 -116s-163 38 -163 106z" />
    <glyph glyph-name="threeeighths" unicode="&#x215c;" horiz-adv-x="921" 
d="M44 394l40 75c33 -21 67 -33 106 -33c32 0 51 7 51 30c0 24 -19 30 -58 30c-13 0 -34 -2 -43 -3v89c51 1 84 9 84 37c0 21 -16 25 -41 25c-28 0 -66 -13 -93 -26l-31 74c39 23 98 43 163 43c91 0 137 -35 137 -96c0 -45 -26 -74 -78 -88v-2c64 -7 95 -39 95 -90
c0 -79 -70 -116 -167 -116c-64 0 -124 16 -165 51zM296 0h-130l443 720h128zM640 107c0 -23 22 -36 53 -36s46 12 46 36c0 27 -33 37 -66 48c-17 -12 -33 -25 -33 -48zM667 287c0 -21 24 -32 52 -43c15 12 24 22 24 39c0 20 -13 30 -39 30c-25 0 -37 -11 -37 -26zM532 99
c0 56 36 82 71 98c-29 15 -57 40 -57 81c0 64 60 107 152 107c101 0 153 -37 153 -94c0 -43 -27 -68 -56 -84c45 -23 70 -47 70 -98c0 -76 -70 -116 -170 -116s-163 38 -163 106z" />
    <glyph glyph-name="fiveeighths" unicode="&#x215d;" horiz-adv-x="921" 
d="M74 489l18 239h251l-7 -101h-148l-5 -52c15 8 39 17 75 17c80 0 114 -41 114 -113c0 -89 -70 -136 -163 -136c-68 0 -125 23 -160 54l40 70c29 -17 73 -30 105 -30s52 10 52 39c0 25 -12 37 -36 37c-15 0 -28 -5 -36 -9l-2 -15h-98zM297 0h-130l443 720h128zM650 107
c0 -23 22 -36 53 -36s46 12 46 36c0 27 -33 37 -66 48c-17 -12 -33 -25 -33 -48zM677 287c0 -21 24 -32 52 -43c15 12 24 22 24 39c0 20 -13 30 -39 30c-25 0 -37 -11 -37 -26zM542 99c0 56 36 82 71 98c-29 15 -57 40 -57 81c0 64 60 107 152 107c101 0 153 -37 153 -94
c0 -43 -27 -68 -56 -84c45 -23 70 -47 70 -98c0 -76 -70 -116 -170 -116s-163 38 -163 106z" />
    <glyph glyph-name="seveneighths" unicode="&#x215e;" horiz-adv-x="921" 
d="M367 655l-130 -305h-136v11l119 261h-162v106h309v-73zM264 0h-130l443 720h128zM634 107c0 -23 22 -36 53 -36s46 12 46 36c0 27 -33 37 -66 48c-17 -12 -33 -25 -33 -48zM661 287c0 -21 24 -32 52 -43c15 12 24 22 24 39c0 20 -13 30 -39 30c-25 0 -37 -11 -37 -26z
M526 99c0 56 36 82 71 98c-29 15 -57 40 -57 81c0 64 60 107 152 107c101 0 153 -37 153 -94c0 -43 -27 -68 -56 -84c45 -23 70 -47 70 -98c0 -76 -70 -116 -170 -116s-163 38 -163 106z" />
    <glyph glyph-name="minus" unicode="&#x2212;" 
d="M42 343h520v-103h-520v103z" />
    <glyph glyph-name="uni2215" unicode="&#x2215;" horiz-adv-x="139" 
d="M-90 0h-130l443 720h128z" />
    <glyph glyph-name="uni2219" unicode="&#x2219;" horiz-adv-x="320" 
d="M75 332c0 55 32 88 92 88c56 0 92 -33 92 -84s-36 -86 -92 -86c-59 0 -92 34 -92 82z" />
    <glyph glyph-name="approxequal" unicode="&#x2248;" horiz-adv-x="746" 
d="M649 473l65 -110c-61 -48 -144 -83 -216 -83c-74 0 -196 61 -258 61c-19 0 -37 -3 -55 -8c-35 -9 -50 -20 -97 -48l-63 107c72 55 142 82 210 82c71 0 193 -60 256 -60c45 0 98 20 158 59zM649 262l65 -110c-61 -48 -144 -83 -216 -83c-74 0 -196 61 -258 61
c-19 0 -37 -3 -55 -8c-35 -9 -50 -20 -97 -48l-63 107c72 55 142 82 210 82c71 0 193 -60 256 -60c45 0 98 20 158 59z" />
    <glyph glyph-name="notequal" unicode="&#x2260;" 
d="M345 245h217v-105h-281l-85 -140h-130l86 140h-111v105h175l52 85h-227v104h291l55 89h128l-54 -89h101v-104h-165z" />
    <glyph glyph-name="lessequal" unicode="&#x2264;" 
d="M42 105h520v-105h-520v105zM562 249l-45 -110l-475 208v79l473 208l45 -105l-325 -141z" />
    <glyph glyph-name="greaterequal" unicode="&#x2265;" 
d="M562 0h-520v105h520v-105zM562 426v-79l-475 -208l-45 110l327 139l-325 141l45 105z" />
    <glyph glyph-name="less" unicode="&#x3c;" 
d="M595 146l-45 -109l-523 221v79l521 222l45 -108l-366 -153z" />
    <glyph glyph-name="equal" unicode="=" 
d="M41 245h521v-105h-521v105zM42 434h520v-103h-520v103z" />
    <glyph glyph-name="greater" unicode="&#x3e;" 
d="M579 337v-79l-523 -221l-44 109l366 152l-365 153l45 108z" />
    <glyph glyph-name="logicalnot" unicode="&#xac;" horiz-adv-x="2298" 
d="M87 720h178v-566h299v-154h-477v720zM1031 750l158 -80l-357 -700l-158 79zM1438 750l160 -80l-359 -700l-160 79zM1977 562h-92v-156h91c47 0 77 25 77 81c0 53 -31 75 -76 75zM1987 248h-102v-248h-178v720h280c161 0 249 -79 249 -230c0 -139 -89 -242 -249 -242z" />
    <glyph glyph-name="plus" unicode="+" 
d="M248 553h108v-210h207v-103h-207v-210h-108v210h-208v103h208v210z" />
    <glyph glyph-name="plusminus" unicode="&#xb1;" 
d="M356 103h206v-103h-520v103h206v140h-206v100h206v159h108v-159h206v-100h-206v-140z" />
    <glyph glyph-name="divide" unicode="&#xf7;" 
d="M302 533c35 0 64 -30 64 -66c0 -35 -28 -64 -64 -64c-37 0 -66 28 -66 64s30 66 66 66zM300 53c-35 0 -65 30 -65 65c0 36 30 66 66 66s65 -31 65 -66s-29 -65 -66 -65zM42 343h520v-103h-520v103z" />
    <glyph glyph-name="multiply" unicode="&#xd7;" 
d="M448 515l78 -78l-148 -147l148 -149l-74 -74l-148 149l-148 -149l-78 78l149 149l-149 147l74 74l148 -148z" />
    <glyph glyph-name="partialdiff" unicode="&#x2202;" horiz-adv-x="618" 
d="M250 -12c-125 0 -210 74 -210 209c0 145 84 260 230 260c60 0 117 -32 137 -81c3 29 4 49 4 58c0 94 -38 141 -115 141c-48 0 -94 -10 -138 -29l-26 104c61 34 127 51 196 51c152 0 233 -98 233 -277c0 -204 -81 -436 -311 -436zM275 119c65 0 104 57 104 121
c0 69 -26 103 -79 103c-72 0 -101 -66 -101 -127s28 -97 76 -97z" />
    <glyph glyph-name="Omega" unicode="&#x2126;" horiz-adv-x="813" 
d="M760 0h-306v146c79 45 125 123 125 223c0 125 -60 203 -169 203s-170 -81 -170 -206c0 -97 44 -177 113 -220v-146h-305v152h141v5c-76 41 -136 129 -136 244c0 100 32 180 97 241s151 91 260 91s196 -28 260 -85c64 -56 96 -133 96 -231c0 -137 -75 -226 -150 -261v-4
h144v-152z" />
    <glyph glyph-name="Delta" unicode="&#x2206;" horiz-adv-x="732" 
d="M257 720h216l244 -720h-703zM236 142h249l-120 404z" />
    <glyph glyph-name="product" unicode="&#x220f;" horiz-adv-x="717" 
d="M235 -140h-177v860h601v-860h-177v711h-247v-711z" />
    <glyph glyph-name="summation" unicode="&#x2211;" horiz-adv-x="614" 
d="M566 720v-152h-295l165 -252l-168 -283h320v-152h-587v65l225 370l-225 339v65h565z" />
    <glyph glyph-name="uni0394" unicode="&#x394;" horiz-adv-x="732" 
d="M257 720h216l244 -720h-703zM236 142h249l-120 404z" />
    <glyph glyph-name="uni03A9" unicode="&#x3a9;" horiz-adv-x="813" 
d="M760 0h-306v146c79 45 125 123 125 223c0 125 -60 203 -169 203s-170 -81 -170 -206c0 -97 44 -177 113 -220v-146h-305v152h141v5c-76 41 -136 129 -136 244c0 100 32 180 97 241s151 91 260 91s196 -28 260 -85c64 -56 96 -133 96 -231c0 -137 -75 -226 -150 -261v-4
h144v-152z" />
    <glyph glyph-name="uni03BC" unicode="&#x3bc;" horiz-adv-x="603" 
d="M540 529v-529h-150v55c-20 -33 -59 -60 -103 -60c-25 0 -46 7 -65 22v-217h-169v729h169v-330c0 -55 27 -79 67 -79c28 0 55 9 81 28v381h170z" />
    <glyph glyph-name="pi" unicode="&#x3c0;" horiz-adv-x="723" 
d="M121 402h-81v127h642v-127h-73v-402h-169v402h-150v-402h-169v402z" />
    <glyph glyph-name="mu" unicode="&#xb5;" horiz-adv-x="603" 
d="M540 529v-529h-150v55c-20 -33 -59 -60 -103 -60c-25 0 -46 7 -65 22v-217h-169v729h169v-330c0 -55 27 -79 67 -79c28 0 55 9 81 28v381h170z" />
    <glyph glyph-name="radical" unicode="&#x221a;" horiz-adv-x="775" 
d="M171 220h-129v119h242l111 -315l266 800h149l-336 -990h-157z" />
    <glyph glyph-name="infinity" unicode="&#x221e;" horiz-adv-x="800" 
d="M751 314c0 -52 -15 -94 -45 -126s-66 -48 -109 -48c-44 3 -72 6 -103 24c-23 13 -29 15 -50 34l-21 18l-21 19c-64 -63 -116 -95 -187 -95c-100 0 -166 61 -166 161s67 170 174 170c81 -3 128 -37 181 -100c22 23 41 40 58 53c35 27 81 48 133 48c101 0 156 -67 156 -158
zM638 306c0 44 -21 71 -65 71c-35 0 -63 -20 -107 -71c44 -47 80 -71 109 -71c40 0 63 31 63 71zM340 304c-40 49 -71 72 -106 72c-47 0 -71 -29 -71 -72c0 -44 26 -71 71 -71c32 0 71 30 106 71z" />
    <glyph glyph-name="integral" unicode="&#x222b;" horiz-adv-x="361" 
d="M-18 -200v123h67c43 0 64 23 64 80v603c0 123 58 184 174 184h80v-123l-55 1h-2c-41 0 -54 -24 -54 -96v-584c0 -123 -57 -188 -192 -188h-82z" />
    <glyph glyph-name="lozenge" unicode="&#x25ca;" horiz-adv-x="638" 
d="M372 0h-114l-195 352l195 348h114l204 -346zM434 350l-117 210l-114 -210l114 -211z" />
    <glyph glyph-name="commaaccent" horiz-adv-x="504" 
d="M266 -266l-104 30l41 183l128 -33z" />
    <glyph glyph-name="revcommaaccent" horiz-adv-x="504" 
d="M206 790l109 -29l-42 -185l-132 33z" />
    <glyph glyph-name="tilde.cap" horiz-adv-x="504" 
d="M351 910l70 -28c-16 -67 -40 -105 -95 -105c-17 0 -41 5 -72 16s-50 17 -57 17c-16 0 -26 -9 -39 -38l-73 28c17 64 50 106 97 106c19 0 43 -6 72 -17s48 -17 57 -17c17 0 25 6 40 38z" />
    <glyph glyph-name="ring.cap" horiz-adv-x="504" 
d="M213 842c0 -24 15 -37 40 -37c49 -4 50 81 0 74c-24 0 -40 -16 -40 -37zM142 839c0 64 46 104 111 104c64 0 109 -37 109 -100c0 -61 -46 -102 -109 -102c-69 0 -111 35 -111 98z" />
    <glyph glyph-name="circumflex.cap" horiz-adv-x="504" 
d="M95 808l109 117h97l111 -119l-61 -50l-97 64l-96 -65z" />
    <glyph glyph-name="acute.cap" horiz-adv-x="504" 
d="M176 747l-46 79l184 113l57 -103z" />
    <glyph glyph-name="grave.cap" horiz-adv-x="504" 
d="M130 836l58 103l183 -113l-46 -79z" />
    <glyph glyph-name="dieresis.cap" horiz-adv-x="504" 
d="M281 838c0 41 30 72 81 72c55 0 82 -29 82 -72c0 -41 -33 -70 -81 -70c-53 0 -82 27 -82 70zM59 838c0 41 33 72 82 72c53 0 81 -29 81 -72c0 -41 -32 -70 -80 -70c-53 0 -83 27 -83 70z" />
    <glyph glyph-name="caron.cap" horiz-adv-x="504" 
d="M412 879l-109 -117h-97l-111 119l61 50l97 -64l96 65z" />
    <glyph glyph-name="macron.cap" horiz-adv-x="504" 
d="M396 783h-289v103h289v-103z" />
    <glyph glyph-name="dotaccent.cap" horiz-adv-x="504" 
d="M153 851c0 53 41 83 98 83c60 0 99 -30 99 -83c0 -51 -39 -80 -99 -80c-56 0 -98 29 -98 80z" />
    <glyph glyph-name="cedilla.cap" horiz-adv-x="504" 
d="M152 -209l12 63c21 -7 41 -10 60 -10c29 0 43 10 43 29c0 24 -18 28 -65 28h-16l22 105h63l-10 -51c65 -5 97 -32 97 -81c0 -63 -42 -100 -117 -100c-34 0 -64 6 -89 17z" />
    <glyph glyph-name="hungarumlaut.cap" horiz-adv-x="504" 
d="M69 798l113 167l88 -64l-133 -153zM237 803l119 147l80 -71l-136 -132z" />
    <glyph glyph-name="apostrophe" unicode="&#x2bc;" horiz-adv-x="504" 
d="M192 666c0 36 26 63 65 63c48 0 74 -35 74 -82c0 -69 -36 -114 -112 -141l-21 43c37 15 57 37 59 66c-5 -1 -10 -2 -13 -2c-27 0 -52 24 -52 53z" />
    <glyph glyph-name="commaaccent.cap" horiz-adv-x="504" 
d="M266 -266l-104 30l41 183l128 -33z" />
    <glyph glyph-name="breve.cap" horiz-adv-x="504" 
d="M252 847c48 0 64 17 71 64l94 -14c-8 -88 -61 -132 -165 -132c-107 0 -155 39 -168 132l97 14c8 -45 26 -64 71 -64z" />
    <glyph glyph-name="caron.alt" horiz-adv-x="504" 
d="M274 514h-108l28 206h135z" />
    <glyph glyph-name="ogonek.cap" horiz-adv-x="504" 
d="M245 17l86 -5v-10c-49 -47 -73 -86 -73 -119c0 -19 10 -28 29 -28c13 0 30 4 53 13l21 -70c-29 -17 -75 -32 -114 -32c-70 0 -105 28 -105 85c0 55 34 110 103 166z" />
    <glyph glyph-name="ampersand.alt" horiz-adv-x="757" 
d="M719 89l-118 -99l-82 86c-71 -64 -134 -89 -230 -89c-68 0 -123 19 -166 57c-42 39 -63 90 -63 154c0 101 48 166 143 217c-43 47 -65 87 -65 143c0 90 71 173 220 173c133 0 199 -59 199 -176v-31h-142v22c0 53 -19 74 -59 74c-37 0 -56 -19 -56 -48
c0 -27 13 -47 57 -94l131 -135l96 96l97 -94l-103 -103zM316 123c41 0 80 18 116 54l-141 153c-48 -27 -73 -60 -73 -115c0 -53 37 -92 98 -92z" />
    <glyph glyph-name="J.alt" horiz-adv-x="423" 
d="M193 720h177v-488c0 -140 -51 -232 -273 -232h-80v151h58c99 0 118 21 118 96v473z" />
    <glyph glyph-name="Q.alt" horiz-adv-x="787" 
d="M38 361c0 113 32 203 96 270s150 101 259 101s196 -33 260 -100s96 -157 96 -271c0 -203 -102 -335 -275 -367v-139h-159v139c-173 29 -277 163 -277 367zM224 361c0 -132 61 -214 169 -214c109 0 170 82 170 214c0 125 -62 210 -170 210s-169 -85 -169 -210z" />
    <glyph glyph-name="j.alt" horiz-adv-x="279" 
d="M55 529h169v-542c0 -67 -15 -116 -45 -146c-29 -30 -81 -45 -156 -45h-62v131h35c45 0 59 14 59 59v543zM42 660c0 53 41 83 98 83c60 0 99 -30 99 -83c0 -51 -39 -80 -99 -80c-56 0 -98 29 -98 80z" />
    <glyph glyph-name="m.alt" horiz-adv-x="857" 
d="M51 0v529h272c77 0 117 -20 142 -72c56 64 104 84 188 84c99 0 157 -61 157 -173v-368h-170v333c0 45 -13 66 -50 66c-26 0 -51 -12 -74 -35v-364h-170v322c0 46 -24 69 -72 69h-53v-391h-170z" />
    <glyph glyph-name="y.alt" horiz-adv-x="561" 
d="M284 171l100 358h169l-183 -517v-68c0 -128 -52 -144 -189 -144h-68v133h59c24 0 32 6 32 29v44l-196 523h177z" />
    <glyph glyph-name="Jcircumflex.alt" horiz-adv-x="423" 
d="M193 720h177v-488c0 -140 -51 -232 -273 -232h-80v151h58c99 0 118 21 118 96v473zM126 808l109 117h97l111 -119l-61 -50l-97 64l-96 -65z" />
    <glyph glyph-name="jcircumflex.alt" horiz-adv-x="279" 
d="M55 529h169v-542c0 -67 -15 -116 -45 -146c-29 -30 -81 -45 -156 -45h-62v131h35c45 0 59 14 59 59v543zM-22 622l114 143h97l113 -142l-63 -47l-97 84l-96 -84z" />
    <glyph glyph-name="ygrave.alt" horiz-adv-x="561" 
d="M284 171l100 358h169l-183 -517v-68c0 -128 -52 -144 -189 -144h-68v133h59c24 0 32 6 32 29v44l-196 523h177zM148 701l80 94l159 -143l-65 -77z" />
    <glyph glyph-name="ycircumflex.alt" horiz-adv-x="561" 
d="M284 171l100 358h169l-183 -517v-68c0 -128 -52 -144 -189 -144h-68v133h59c24 0 32 6 32 29v44l-196 523h177zM123 622l114 143h97l113 -142l-63 -47l-97 84l-96 -84z" />
    <glyph glyph-name="ydieresis.alt" horiz-adv-x="561" 
d="M284 171l100 358h169l-183 -517v-68c0 -128 -52 -144 -189 -144h-68v133h59c24 0 32 6 32 29v44l-196 523h177zM315 660c0 41 30 72 81 72c55 0 82 -29 82 -72c0 -41 -33 -70 -81 -70c-53 0 -82 27 -82 70zM93 660c0 41 33 72 82 72c53 0 81 -29 81 -72
c0 -41 -32 -70 -80 -70c-53 0 -83 27 -83 70z" />
    <glyph glyph-name="yacute.alt" horiz-adv-x="561" 
d="M284 171l100 358h169l-183 -517v-68c0 -128 -52 -144 -189 -144h-68v133h59c24 0 32 6 32 29v44l-196 523h177zM258 565l-65 74l164 150l78 -95z" />
    <glyph glyph-name="agrave.alt" horiz-adv-x="615" 
d="M567 0h-149l-10 64c-32 -45 -86 -77 -159 -77c-144 0 -218 99 -218 276c0 186 103 278 225 278c61 0 120 -26 160 -71l12 59h139v-529zM397 171v189c-21 21 -53 41 -92 41c-63 0 -95 -45 -95 -136c0 -93 32 -139 97 -139c35 0 65 15 90 45zM187 701l80 94l159 -143
l-65 -77z" />
    <glyph glyph-name="a.alt" horiz-adv-x="615" 
d="M567 0h-149l-10 64c-32 -45 -86 -77 -159 -77c-144 0 -218 99 -218 276c0 186 103 278 225 278c61 0 120 -26 160 -71l12 59h139v-529zM397 171v189c-21 21 -53 41 -92 41c-63 0 -95 -45 -95 -136c0 -93 32 -139 97 -139c35 0 65 15 90 45z" />
    <glyph glyph-name="aacute.alt" horiz-adv-x="615" 
d="M567 0h-149l-10 64c-32 -45 -86 -77 -159 -77c-144 0 -218 99 -218 276c0 186 103 278 225 278c61 0 120 -26 160 -71l12 59h139v-529zM397 171v189c-21 21 -53 41 -92 41c-63 0 -95 -45 -95 -136c0 -93 32 -139 97 -139c35 0 65 15 90 45zM283 575l-65 74l164 150
l78 -95z" />
    <glyph glyph-name="acircumflex.alt" horiz-adv-x="615" 
d="M567 0h-149l-10 64c-32 -45 -86 -77 -159 -77c-144 0 -218 99 -218 276c0 186 103 278 225 278c61 0 120 -26 160 -71l12 59h139v-529zM397 171v189c-21 21 -53 41 -92 41c-63 0 -95 -45 -95 -136c0 -93 32 -139 97 -139c35 0 65 15 90 45zM147 622l114 143h97l113 -142
l-63 -47l-97 84l-96 -84z" />
    <glyph glyph-name="atilde.alt" horiz-adv-x="615" 
d="M567 0h-149l-10 64c-32 -45 -86 -77 -159 -77c-144 0 -218 99 -218 276c0 186 103 278 225 278c61 0 120 -26 160 -71l12 59h139v-529zM397 171v189c-21 21 -53 41 -92 41c-63 0 -95 -45 -95 -136c0 -93 32 -139 97 -139c35 0 65 15 90 45zM409 726l70 -28
c-16 -67 -40 -105 -95 -105c-17 0 -41 5 -72 16s-50 17 -57 17c-16 0 -26 -9 -39 -38l-73 28c17 64 50 106 97 106c19 0 43 -6 72 -17s48 -17 57 -17c17 0 25 6 40 38z" />
    <glyph glyph-name="adieresis.alt" horiz-adv-x="615" 
d="M567 0h-149l-10 64c-32 -45 -86 -77 -159 -77c-144 0 -218 99 -218 276c0 186 103 278 225 278c61 0 120 -26 160 -71l12 59h139v-529zM397 171v189c-21 21 -53 41 -92 41c-63 0 -95 -45 -95 -136c0 -93 32 -139 97 -139c35 0 65 15 90 45zM348 660c0 41 30 72 81 72
c55 0 82 -29 82 -72c0 -41 -33 -70 -81 -70c-53 0 -82 27 -82 70zM126 660c0 41 33 72 82 72c53 0 81 -29 81 -72c0 -41 -32 -70 -80 -70c-53 0 -83 27 -83 70z" />
    <glyph glyph-name="aring.alt" horiz-adv-x="615" 
d="M567 0h-149l-10 64c-32 -45 -86 -77 -159 -77c-144 0 -218 99 -218 276c0 186 103 278 225 278c61 0 120 -26 160 -71l12 59h139v-529zM397 171v189c-21 21 -53 41 -92 41c-63 0 -95 -45 -95 -136c0 -93 32 -139 97 -139c35 0 65 15 90 45zM275 676c0 -24 15 -37 40 -37
c49 -4 50 81 0 74c-24 0 -40 -16 -40 -37zM204 673c0 64 46 104 111 104c64 0 109 -37 109 -100c0 -61 -46 -102 -109 -102c-69 0 -111 35 -111 98z" />
    <glyph glyph-name="amacron.alt" horiz-adv-x="615" 
d="M567 0h-149l-10 64c-32 -45 -86 -77 -159 -77c-144 0 -218 99 -218 276c0 186 103 278 225 278c61 0 120 -26 160 -71l12 59h139v-529zM397 171v189c-21 21 -53 41 -92 41c-63 0 -95 -45 -95 -136c0 -93 32 -139 97 -139c35 0 65 15 90 45zM172 602v103h289v-103h-289z
" />
    <glyph glyph-name="abreve.alt" horiz-adv-x="615" 
d="M567 0h-149l-10 64c-32 -45 -86 -77 -159 -77c-144 0 -218 99 -218 276c0 186 103 278 225 278c61 0 120 -26 160 -71l12 59h139v-529zM397 171v189c-21 21 -53 41 -92 41c-63 0 -95 -45 -95 -136c0 -93 32 -139 97 -139c35 0 65 15 90 45zM309 673c48 0 64 22 71 71
l94 -14c-8 -93 -63 -139 -165 -139c-105 0 -155 44 -168 139l97 15c8 -51 26 -72 71 -72z" />
    <glyph glyph-name="aogonek.alt" horiz-adv-x="615" 
d="M451 0h-33l-10 64c-32 -45 -86 -77 -159 -77c-144 0 -218 99 -218 276c0 186 103 278 225 278c61 0 120 -26 160 -71l12 59h139v-529c-56 -43 -83 -84 -83 -117c0 -19 10 -28 29 -28c13 0 30 4 53 13l21 -70c-29 -17 -75 -32 -114 -32c-70 0 -105 28 -105 85
c0 51 28 100 83 149zM397 171v189c-21 21 -53 41 -92 41c-63 0 -95 -45 -95 -136c0 -93 32 -139 97 -139c35 0 65 15 90 45z" />
    <glyph glyph-name="gcircumflex.alt" horiz-adv-x="619" 
d="M428 529h139v-490c-1 -188 -90 -239 -285 -239h-153v131h142c97 -1 132 17 133 104v31c-37 -47 -92 -71 -155 -71c-136 0 -218 91 -218 260c0 176 83 286 228 286c65 0 120 -31 157 -71zM397 173v186c-19 21 -58 42 -95 42c-59 0 -92 -45 -92 -136c0 -89 32 -133 96 -133
c35 0 65 14 91 41zM149 622l114 143h97l113 -142l-63 -47l-97 84l-96 -84z" />
    <glyph glyph-name="g.alt" horiz-adv-x="619" 
d="M428 529h139v-490c-1 -188 -90 -239 -285 -239h-153v131h142c97 -1 132 17 133 104v31c-37 -47 -92 -71 -155 -71c-136 0 -218 91 -218 260c0 176 83 286 228 286c65 0 120 -31 157 -71zM397 173v186c-19 21 -58 42 -95 42c-59 0 -92 -45 -92 -136c0 -89 32 -133 96 -133
c35 0 65 14 91 41z" />
    <glyph glyph-name="gbreve.alt" horiz-adv-x="619" 
d="M428 529h139v-490c-1 -188 -90 -239 -285 -239h-153v131h142c97 -1 132 17 133 104v31c-37 -47 -92 -71 -155 -71c-136 0 -218 91 -218 260c0 176 83 286 228 286c65 0 120 -31 157 -71zM397 173v186c-19 21 -58 42 -95 42c-59 0 -92 -45 -92 -136c0 -89 32 -133 96 -133
c35 0 65 14 91 41zM306 673c48 0 64 22 71 71l94 -14c-8 -93 -63 -139 -165 -139c-105 0 -155 44 -168 139l97 15c8 -51 26 -72 71 -72z" />
    <glyph glyph-name="gdotaccent.alt" horiz-adv-x="619" 
d="M428 529h139v-490c-1 -188 -90 -239 -285 -239h-153v131h142c97 -1 132 17 133 104v31c-37 -47 -92 -71 -155 -71c-136 0 -218 91 -218 260c0 176 83 286 228 286c65 0 120 -31 157 -71zM397 173v186c-19 21 -58 42 -95 42c-59 0 -92 -45 -92 -136c0 -89 32 -133 96 -133
c35 0 65 14 91 41zM207 660c0 53 41 83 98 83c60 0 99 -30 99 -83c0 -51 -39 -80 -99 -80c-56 0 -98 29 -98 80z" />
    <glyph glyph-name="gcommaaccent.alt" horiz-adv-x="619" 
d="M428 529h139v-490c-1 -188 -90 -239 -285 -239h-153v131h142c97 -1 132 17 133 104v31c-37 -47 -92 -71 -155 -71c-136 0 -218 91 -218 260c0 176 83 286 228 286c65 0 120 -31 157 -71zM397 173v186c-19 21 -58 42 -95 42c-59 0 -92 -45 -92 -136c0 -89 32 -133 96 -133
c35 0 65 14 91 41zM295 790l109 -29l-42 -185l-132 33z" />
    <glyph glyph-name="logicalnot.001" 
d="M571 404v-284h-111v182h-426v102h537z" />
    <glyph glyph-name="currency" unicode="&#xa4;" horiz-adv-x="581" 
d="M384 338c0 56 -39 93 -94 93c-52 0 -95 -38 -95 -93c0 -59 39 -96 95 -96c53 0 94 43 94 96zM120 432l-84 86l69 74l84 -88c32 19 65 28 100 28c37 0 69 -9 98 -26l84 84l73 -73l-86 -85c20 -29 30 -61 30 -95c0 -35 -10 -68 -30 -99l86 -83l-73 -72l-84 85
c-32 -18 -65 -27 -98 -27c-35 0 -67 9 -98 27l-43 -43l-42 -42l-70 72l84 84c-19 29 -28 62 -28 98c0 33 9 64 28 95z" />
    <glyph glyph-name="arrowright" unicode="&#x2192;" horiz-adv-x="504" 
d="M286 198h-284v126h284l-80 80l85 74l211 -216l-214 -218l-82 75z" />
    <glyph glyph-name="arrowleft" unicode="&#x2190;" horiz-adv-x="504" 
d="M218 324h284v-126h-284l80 -79l-82 -75l-214 218l211 216l85 -74z" />
    <glyph glyph-name="arroewup" horiz-adv-x="504" 
d="M314 305v-294h-124v293l-81 -79l-75 74l218 212l217 -214l-75 -72z" />
    <glyph glyph-name="arrowdown" unicode="&#x2193;" horiz-adv-x="504" 
d="M190 218v293h124v-294l80 80l75 -72l-217 -214l-218 212l75 74z" />
    <glyph glyph-name="arrowNW" horiz-adv-x="504" 
d="M264 334l208 -207l-88 -88l-198 198v-111h-116v312h307v-104h-113z" />
    <glyph glyph-name="arrowNE" horiz-adv-x="504" 
d="M317 236l-198 -198l-88 88l208 207h-113v104h307v-312h-116v111z" />
    <glyph glyph-name="arrowSE" horiz-adv-x="504" 
d="M239 153l-208 207l88 88l198 -198v111h116v-312h-307v104h113z" />
    <glyph glyph-name="arrowSW" horiz-adv-x="504" 
d="M186 250l198 198l88 -88l-208 -207h113v-104h-307v312h116v-111z" />
    <glyph glyph-name="arrowLeftRight" horiz-adv-x="1004" 
d="M782 198h-562l80 -79l-84 -75l-214 218l211 216l85 -74l-80 -80h566l-80 80l88 78l208 -220l-214 -218l-84 75z" />
    <glyph glyph-name="arrowUpDown" horiz-adv-x="754" 
d="M442 501v-562l79 80l75 -84l-218 -214l-216 211l74 85l80 -80v566l-80 -80l-78 88l220 208l218 -214l-75 -84z" />
    <glyph glyph-name="arrowright.750" horiz-adv-x="754" 
d="M536 198h-534v126h534l-80 80l85 74l211 -216l-214 -218l-82 75z" />
    <glyph glyph-name="arrowup.750" horiz-adv-x="754" 
d="M439 436v-544h-124v543l-81 -79l-75 74l218 212l217 -214l-75 -72z" />
    <glyph glyph-name="arrowleft.750" horiz-adv-x="754" 
d="M218 324h534v-126h-534l80 -79l-82 -75l-214 218l211 216l85 -74z" />
    <glyph glyph-name="arrowdown.750" horiz-adv-x="754" 
d="M315 87v543h124v-544l80 80l75 -72l-217 -214l-218 212l75 74z" />
    <glyph glyph-name="arrowNW.750" horiz-adv-x="754" 
d="M290 419l382 -379l-88 -88l-372 370v-111h-116v312h307v-104h-113z" />
    <glyph glyph-name="arrowNE.750" horiz-adv-x="754" 
d="M542 317l-372 -370l-88 88l382 379h-113v104h307v-312h-116v111z" />
    <glyph glyph-name="arrowSE.750" horiz-adv-x="754" 
d="M464 104l-382 379l88 88l372 -370v111h116v-312h-307v104h113z" />
    <glyph glyph-name="arrowSW.750" horiz-adv-x="754" 
d="M212 201l372 370l88 -88l-382 -379h113v-104h-307v312h116v-111z" />
    <glyph glyph-name="arrowCircleLeft" horiz-adv-x="754" 
d="M212 219v109c0 128 85 211 242 211c152 0 235 -79 235 -224h-124c0 68 -16 125 -111 125c-85 0 -118 -37 -118 -120v-102l80 80l75 -72l-217 -214l-218 212l75 74z" />
    <glyph glyph-name="arrowCircleRight" horiz-adv-x="754" 
d="M542 337v-118l81 79l75 -74l-218 -212l-217 214l75 72l80 -80v102c0 83 -32 120 -111 120c-102 0 -118 -56 -118 -125h-124c0 144 90 224 246 224c157 0 231 -74 231 -202z" />
    <glyph glyph-name="arrowDubLeft" horiz-adv-x="754" 
d="M259 490l85 -74l-45 -46h378v-84h-461l-20 -21l20 -21h461v-84h-379l42 -43l-85 -78l-217 223z" />
    <glyph glyph-name="arrowDubTop" horiz-adv-x="754" 
d="M621 418l-74 -85l-46 45v-378h-84v461l-21 20l-21 -20v-461h-84v379l-43 -42l-78 85l223 217z" />
    <glyph glyph-name="arrowDubRight" horiz-adv-x="754" 
d="M77 370h378l-45 46l85 74l221 -228l-217 -223l-85 78l42 43h-379v84h461l20 21l-20 21h-461v84z" />
    <glyph glyph-name="arrowDubDown" horiz-adv-x="754" 
d="M486 626v-378l46 45l74 -85l-228 -221l-223 217l78 85l43 -42v379h84v-461l21 -20l21 20v461h84z" />
    <glyph glyph-name="triangleBlackLeft" horiz-adv-x="614" 
d="M550 490v-468l-486 236z" />
    <glyph glyph-name="triangleBlackRight" horiz-adv-x="614" 
d="M64 490l486 -232l-486 -236v468z" />
    <glyph glyph-name="triangleWhiteLeft" horiz-adv-x="614" 
d="M230 260l248 -128v250zM64 261l486 229v-465l-486 234v2z" />
    <glyph glyph-name="triangleWhiteRight" horiz-adv-x="614" 
d="M384 260l-248 122v-250zM550 259l-486 -234v465l486 -229v-2z" />
    <glyph glyph-name="square" horiz-adv-x="614" 
d="M481 500v-349h-349v349h349z" />
    <glyph glyph-name="square.open" horiz-adv-x="614" 
d="M177 196h259v259h-259v-259zM481 500v-349h-349v349h349z" />
    <glyph glyph-name="circle" unicode="&#x25cb;" horiz-adv-x="614" 
d="M409 146c-31 -18 -65 -27 -102 -27c-112 0 -205 92 -205 205s93 205 205 205c73 0 141 -39 177 -102c58 -94 22 -229 -75 -281z" />
    <glyph glyph-name="circle.open" horiz-adv-x="614" 
d="M409 146c-31 -18 -65 -27 -102 -27c-112 0 -205 92 -205 205s93 205 205 205c73 0 141 -39 177 -102c58 -94 22 -229 -75 -281zM307 167c42 0 78 16 107 47c29 32 44 70 44 113s-15 79 -44 108c-29 30 -65 45 -107 45c-43 0 -78 -15 -107 -46s-43 -67 -43 -110
s14 -80 43 -111s64 -46 107 -46z" />
    <glyph glyph-name="triangle.left" horiz-adv-x="429" 
d="M277 434v-231l-185 117z" />
    <glyph glyph-name="triangle" unicode="&#x25b3;" horiz-adv-x="429" 
d="M152 434l185 -114l-185 -117v231z" />
    <glyph glyph-name="raute" horiz-adv-x="614" 
d="M307 535l209 -210l-210 -209l-209 210z" />
    <glyph glyph-name="onefifth" horiz-adv-x="921" 
d="M286 350h-135v223c-33 -1 -55 3 -86 11l-9 79c47 11 93 32 124 65h106v-378zM268 0h-130l443 720h128zM547 139l18 239h251l-7 -101h-148l-5 -52c15 8 39 17 75 17c80 0 114 -41 114 -113c0 -89 -70 -136 -163 -136c-68 0 -125 23 -160 54l40 70c29 -17 73 -30 105 -30
s52 10 52 39c0 25 -12 37 -36 37c-15 0 -28 -5 -36 -9l-2 -15h-98z" />
    <glyph glyph-name="twofifths" horiz-adv-x="921" 
d="M62 350v78l111 105c31 29 42 40 42 63c0 21 -12 31 -36 31c-31 0 -60 -14 -96 -37l-49 73c44 39 108 72 184 72c79 0 137 -40 137 -113c0 -47 -15 -75 -60 -115l-69 -62h138v-95h-302zM322 0h-130l443 720h128zM588 139l18 239h251l-7 -101h-148l-5 -52c15 8 39 17 75 17
c80 0 114 -41 114 -113c0 -89 -70 -136 -163 -136c-68 0 -125 23 -160 54l40 70c29 -17 73 -30 105 -30s52 10 52 39c0 25 -12 37 -36 37c-15 0 -28 -5 -36 -9l-2 -15h-98z" />
    <glyph glyph-name="threefifths" horiz-adv-x="921" 
d="M62 394l40 75c33 -21 67 -33 106 -33c32 0 51 7 51 30c0 24 -19 30 -58 30c-13 0 -34 -2 -43 -3v89c51 1 84 9 84 37c0 21 -16 25 -41 25c-28 0 -66 -13 -93 -26l-31 74c39 23 98 43 163 43c91 0 137 -35 137 -96c0 -45 -26 -74 -78 -88v-2c64 -7 95 -39 95 -90
c0 -79 -70 -116 -167 -116c-64 0 -124 16 -165 51zM307 0h-130l443 720h128zM579 139l18 239h251l-7 -101h-148l-5 -52c15 8 39 17 75 17c80 0 114 -41 114 -113c0 -89 -70 -136 -163 -136c-68 0 -125 23 -160 54l40 70c29 -17 73 -30 105 -30s52 10 52 39
c0 25 -12 37 -36 37c-15 0 -28 -5 -36 -9l-2 -15h-98z" />
    <glyph glyph-name="fourfifths" horiz-adv-x="921" 
d="M224 640l-88 -135h88v135zM224 350v56h-193v98l151 224h165v-223h36v-99h-36v-56h-123zM316 0h-130l443 720h128zM583 139l18 239h251l-7 -101h-148l-5 -52c15 8 39 17 75 17c80 0 114 -41 114 -113c0 -89 -70 -136 -163 -136c-68 0 -125 23 -160 54l40 70
c29 -17 73 -30 105 -30s52 10 52 39c0 25 -12 37 -36 37c-15 0 -28 -5 -36 -9l-2 -15h-98z" />
    <glyph glyph-name="onesixth" horiz-adv-x="921" 
d="M284 350h-135v223c-33 -1 -55 3 -86 11l-9 79c47 11 93 32 124 65h106v-378zM275 0h-130l443 720h128zM511 171c0 114 57 214 189 214c44 0 88 -10 121 -26l-23 -77c-28 13 -53 18 -78 18c-59 0 -78 -39 -82 -91c24 19 51 29 88 29c76 0 114 -49 114 -110
c0 -97 -78 -135 -161 -135c-124 0 -168 69 -168 178zM684 155c-15 0 -32 -6 -44 -14c0 -32 9 -62 40 -62c28 0 38 14 38 37c0 26 -11 39 -34 39z" />
    <glyph glyph-name="fivesixths" horiz-adv-x="921" 
d="M79 489l18 239h251l-7 -101h-148l-5 -52c15 8 39 17 75 17c80 0 114 -41 114 -113c0 -89 -70 -136 -163 -136c-68 0 -125 23 -160 54l40 70c29 -17 73 -30 105 -30s52 10 52 39c0 25 -12 37 -36 37c-15 0 -28 -5 -36 -9l-2 -15h-98zM300 0h-130l443 720h128zM527 171
c0 114 57 214 189 214c44 0 88 -10 121 -26l-23 -77c-28 13 -53 18 -78 18c-59 0 -78 -39 -82 -91c24 19 51 29 88 29c76 0 114 -49 114 -110c0 -97 -78 -135 -161 -135c-124 0 -168 69 -168 178zM700 155c-15 0 -32 -6 -44 -14c0 -32 9 -62 40 -62c28 0 38 14 38 37
c0 26 -11 39 -34 39z" />
    <glyph glyph-name="oneseventh" horiz-adv-x="921" 
d="M262 350h-135v223c-33 -1 -55 3 -86 11l-9 79c47 11 93 32 124 65h106v-378zM254 0h-130l443 720h128zM865 305l-130 -305h-136v11l119 261h-162v106h309v-73z" />
    <glyph glyph-name="twosevenths" horiz-adv-x="921" 
d="M55 350v78l111 105c31 29 42 40 42 63c0 21 -12 31 -36 31c-31 0 -60 -14 -96 -37l-49 73c44 39 108 72 184 72c79 0 137 -40 137 -113c0 -47 -15 -75 -60 -115l-69 -62h138v-95h-302zM315 0h-130l443 720h128zM893 305l-130 -305h-136v11l119 261h-162v106h309v-73z" />
    <glyph glyph-name="threesevenths" horiz-adv-x="921" 
d="M36 394l40 75c33 -21 67 -33 106 -33c32 0 51 7 51 30c0 24 -19 30 -58 30c-13 0 -34 -2 -43 -3v89c51 1 84 9 84 37c0 21 -16 25 -41 25c-28 0 -66 -13 -93 -26l-31 74c39 23 98 43 163 43c91 0 137 -35 137 -96c0 -45 -26 -74 -78 -88v-2c64 -7 95 -39 95 -90
c0 -79 -70 -116 -167 -116c-64 0 -124 16 -165 51zM280 0h-130l443 720h128zM873 305l-130 -305h-136v11l119 261h-162v106h309v-73z" />
    <glyph glyph-name="foursevenths" horiz-adv-x="921" 
d="M213 640l-88 -135h88v135zM213 350v56h-193v98l151 224h165v-223h36v-99h-36v-56h-123zM299 0h-130l443 720h128zM889 305l-130 -305h-136v11l119 261h-162v106h309v-73z" />
    <glyph glyph-name="fivesevenths" horiz-adv-x="921" 
d="M66 489l18 239h251l-7 -101h-148l-5 -52c15 8 39 17 75 17c80 0 114 -41 114 -113c0 -89 -70 -136 -163 -136c-68 0 -125 23 -160 54l40 70c29 -17 73 -30 105 -30s52 10 52 39c0 25 -12 37 -36 37c-15 0 -28 -5 -36 -9l-2 -15h-98zM278 0h-130l443 720h128zM870 305
l-130 -305h-136v11l119 261h-162v106h309v-73z" />
    <glyph glyph-name="sixsevenths" horiz-adv-x="921" 
d="M36 521c0 114 57 214 189 214c44 0 88 -10 121 -26l-23 -77c-28 13 -53 18 -78 18c-59 0 -78 -39 -82 -91c24 19 51 29 88 29c76 0 114 -49 114 -110c0 -97 -78 -135 -161 -135c-124 0 -168 69 -168 178zM209 505c-15 0 -32 -6 -44 -14c0 -32 9 -62 40 -62
c28 0 38 14 38 37c0 26 -11 39 -34 39zM286 0h-130l443 720h128zM887 305l-130 -305h-136v11l119 261h-162v106h309v-73z" />
    <glyph glyph-name="oneninth" horiz-adv-x="921" 
d="M275 350h-135v223c-33 -1 -55 3 -86 11l-9 79c47 11 93 32 124 65h106v-378zM271 0h-130l443 720h128zM871 207c0 -114 -57 -214 -189 -214c-44 0 -88 10 -121 26l24 81c28 -13 53 -18 78 -18c59 0 80 30 84 86c-27 -20 -54 -28 -91 -28c-76 0 -114 49 -114 110
c0 97 78 135 161 135c124 0 168 -69 168 -178zM701 223c15 0 32 6 44 14c0 39 -11 64 -42 64c-28 0 -39 -16 -39 -39c0 -25 14 -39 37 -39z" />
    <glyph glyph-name="twoninths" horiz-adv-x="921" 
d="M63 350v78l111 105c31 29 42 40 42 63c0 21 -12 31 -36 31c-31 0 -60 -14 -96 -37l-49 73c44 39 108 72 184 72c79 0 137 -40 137 -113c0 -47 -15 -75 -60 -115l-69 -62h138v-95h-302zM327 0h-130l443 720h128zM891 207c0 -114 -57 -214 -189 -214c-44 0 -88 10 -121 26
l24 81c28 -13 53 -18 78 -18c59 0 80 30 84 86c-27 -20 -54 -28 -91 -28c-76 0 -114 49 -114 110c0 97 78 135 161 135c124 0 168 -69 168 -178zM721 223c15 0 32 6 44 14c0 39 -11 64 -42 64c-28 0 -39 -16 -39 -39c0 -25 14 -39 37 -39z" />
    <glyph glyph-name="fourninths" horiz-adv-x="921" 
d="M229 640l-88 -135h88v135zM229 350v56h-193v98l151 224h165v-223h36v-99h-36v-56h-123zM323 0h-130l443 720h128zM890 207c0 -114 -57 -214 -189 -214c-44 0 -88 10 -121 26l24 81c28 -13 53 -18 78 -18c59 0 80 30 84 86c-27 -20 -54 -28 -91 -28
c-76 0 -114 49 -114 110c0 97 78 135 161 135c124 0 168 -69 168 -178zM720 223c15 0 32 6 44 14c0 39 -11 64 -42 64c-28 0 -39 -16 -39 -39c0 -25 14 -39 37 -39z" />
    <glyph glyph-name="fiveninths" horiz-adv-x="921" 
d="M70 489l18 239h251l-7 -101h-148l-5 -52c15 8 39 17 75 17c80 0 114 -41 114 -113c0 -89 -70 -136 -163 -136c-68 0 -125 23 -160 54l40 70c29 -17 73 -30 105 -30s52 10 52 39c0 25 -12 37 -36 37c-15 0 -28 -5 -36 -9l-2 -15h-98zM289 0h-130l443 720h128zM861 207
c0 -114 -57 -214 -189 -214c-44 0 -88 10 -121 26l24 81c28 -13 53 -18 78 -18c59 0 80 30 84 86c-27 -20 -54 -28 -91 -28c-76 0 -114 49 -114 110c0 97 78 135 161 135c124 0 168 -69 168 -178zM691 223c15 0 32 6 44 14c0 39 -11 64 -42 64c-28 0 -39 -16 -39 -39
c0 -25 14 -39 37 -39z" />
    <glyph glyph-name="sevenninths" horiz-adv-x="921" 
d="M343 655l-130 -305h-136v11l119 261h-162v106h309v-73zM249 0h-130l443 720h128zM849 207c0 -114 -57 -214 -189 -214c-44 0 -88 10 -121 26l24 81c28 -13 53 -18 78 -18c59 0 80 30 84 86c-27 -20 -54 -28 -91 -28c-76 0 -114 49 -114 110c0 97 78 135 161 135
c124 0 168 -69 168 -178zM679 223c15 0 32 6 44 14c0 39 -11 64 -42 64c-28 0 -39 -16 -39 -39c0 -25 14 -39 37 -39z" />
    <glyph glyph-name="eightninths" horiz-adv-x="921" 
d="M158 457c0 -23 22 -36 53 -36s46 12 46 36c0 27 -33 37 -66 48c-17 -12 -33 -25 -33 -48zM185 637c0 -21 24 -32 52 -43c15 12 24 22 24 39c0 20 -13 30 -39 30c-25 0 -37 -11 -37 -26zM50 449c0 56 36 82 71 98c-29 15 -57 40 -57 81c0 64 60 107 152 107
c101 0 153 -37 153 -94c0 -43 -27 -68 -56 -84c45 -23 70 -47 70 -98c0 -76 -70 -116 -170 -116s-163 38 -163 106zM302 0h-130l443 720h128zM867 207c0 -114 -57 -214 -189 -214c-44 0 -88 10 -121 26l24 81c28 -13 53 -18 78 -18c59 0 80 30 84 86
c-27 -20 -54 -28 -91 -28c-76 0 -114 49 -114 110c0 97 78 135 161 135c124 0 168 -69 168 -178zM697 223c15 0 32 6 44 14c0 39 -11 64 -42 64c-28 0 -39 -16 -39 -39c0 -25 14 -39 37 -39z" />
    </font>
</defs>
</svg>
